/* XPM */
static char *result[] = {
/* columns rows colors chars-per-pixel */
"64 64 131 2 ",
"   c #1B140F",
".  c #1C1612",
"X  c #1F1813",
"o  c #25160F",
"O  c #2C170E",
"+  c #2E190F",
"@  c #341A0F",
"#  c #3B1C0F",
"$  c #221711",
"%  c #231B15",
"&  c #2C1B12",
"*  c #261F19",
"=  c #281F18",
"-  c #331C11",
";  c #3C1E11",
":  c #2B2117",
">  c #27201A",
",  c #2C231A",
"<  c #2F281F",
"1  c #352215",
"2  c #3B2314",
"3  c #3F2817",
"4  c #31251B",
"5  c #3C2718",
"6  c #34291E",
"7  c #3B2B1C",
"8  c #352C21",
"9  c #3A2E21",
"0  c #373024",
"q  c #3C3224",
"w  c #3E3628",
"e  c #411F0F",
"r  c #411F10",
"t  c #41240F",
"y  c #4A2B0D",
"u  c #55320C",
"i  c #442112",
"p  c #4C2413",
"a  c #422916",
"s  c #4C2B14",
"d  c #442D1B",
"f  c #482F1A",
"g  c #522614",
"h  c #562815",
"j  c #5B2B17",
"k  c #5D2C18",
"l  c #4D3216",
"z  c #46301D",
"x  c #4B321D",
"c  c #513017",
"v  c #52351E",
"b  c #6B3E0E",
"n  c #612D17",
"m  c #632E19",
"M  c #66301A",
"N  c #69321B",
"B  c #433524",
"V  c #4A3623",
"C  c #463927",
"Z  c #4B3A26",
"A  c #443728",
"S  c #453A29",
"D  c #4C3D2A",
"F  c #533D26",
"G  c #523E28",
"H  c #5B421B",
"J  c #6D400E",
"K  c #6A451A",
"L  c #6E491F",
"P  c #744D1D",
"I  c #7F561A",
"U  c #4F412C",
"Y  c #564027",
"T  c #594127",
"R  c #54432C",
"E  c #5A452B",
"W  c #5B492F",
"Q  c #564630",
"!  c #584730",
"~  c #5D4B31",
"^  c #614729",
"/  c #654C2D",
"(  c #694E2D",
")  c #6C512F",
"_  c #73552F",
"`  c #614E32",
"'  c #655134",
"]  c #6B5535",
"[  c #6F5936",
"{  c #655338",
"}  c #6A5638",
"|  c #6E5939",
" . c #765630",
".. c #795732",
"X. c #715A37",
"o. c #7A5A33",
"O. c #745D3A",
"+. c #785F39",
"@. c #77603C",
"#. c #7C633D",
"$. c #7D6540",
"%. c #865B1F",
"&. c #A6731E",
"*. c #8A5F20",
"=. c #966822",
"-. c #946A29",
";. c #82663D",
":. c #86693E",
">. c #8A6B3E",
",. c #A17225",
"<. c #A67A2E",
"1. c #AB7D2A",
"2. c #B07B22",
"3. c #806740",
"4. c #856A41",
"5. c #8C6E42",
"6. c #8E7044",
"7. c #947344",
"8. c #997645",
"9. c #9B7947",
"0. c #927548",
"q. c #9C7B49",
"w. c #A17E4B",
"e. c #CD942A",
"r. c #D89E2D",
"t. c #DBA12E",
"y. c #E6AF38",
"u. c #E7B13B",
"i. c #EBB53D",
"p. c #A5824D",
"a. c #A9854E",
/* pixels */
", < , 9 { ' ' @.0.0.7.0.7.9.0.>.q.w.5.{ 8 8 O.9.a.a.w.w.a.p.a.$.$.p.p.a.a.a.w.a.3.{ < q ~ 5.q.q.4.4.5.4.>.>.6.0.#.X.] [ 9 6 6 < ",
"4 6 6 q ' { | #.6.6.7.6.6.0.q.p.q.0.$.{ 8 8 } ;.5.6.6.0.5.5.6.| | 5.5.0.$.3.0.6.$.| 8 B @.4.4.4.4.4.5.0.0.0.6.0.:.:.@.[ q q < < ",
"< 6 q Z } | $.$.#.4.6.:.@.p.a.p.q.| | { 8 8 ~ } | $.O.O.| O.O.W ~ O.| | Q ~ @.O.O.{ < D 6.$.| $.4.4.5.a.p.a.0.6.0.0.#.@.U C 8 < ",
", 6 R R @.@.#.4.q.q.p.0.0.0.0.6.6.| ~ Q 8 8 G ! ~ ~ D 9 q 9 9 6 8 w w 9 8 A { ~ ! Q 8 q ~ { ~ @.O.@.$.q.p.a.p.p.>.#.;.>.~ R 6 < ",
"6 6 E ~ #.#.#.3.p.p.q.p.p.0.6.3.3.{ ~ Q < < Q G Q D 9 * * * % % % * * = % 8 ! ! Q D , 8 D ! ~ | O.| O.9.q.a.a.a.#.[ >.>.} ` < < ",
"0 q R W #.$.@.4.p.p.a.0.#.4.3.} { Q U S < , > = * * = 4 Z Z F G F F G F 4 , * = = * * > > q D Q ~ O.| O.5.a.a.p.0.5.p.8.[ ` z w ",
"0 0 R ~ @.$.$.4.q.p.p.6.$.3.3.} { D A w = = = , = 6 7 z G G F T F F F F 9 6 > , , = , = , 9 B D R | | O.4.9.p.p.6.:.p.p.' ` S q ",
"0 0 S U } | 0.3.} $.6.@.| } | Q D * > * , , = z V o............._ ) ..o.V V G Z 9 , , , * = * B B ~ { O.} Q ` | O.O.>.7.@.[ z q ",
"q 0 C D } O.0.6.@.@.$.O.O.| } S A 8 = = 9 d V F E / ^ E G Z G G F G F F 9 9 V T Z z 9 6 6 , = 9 0 Q ~ [ | [ ' ` } [ >.p.X.' 9 9 ",
"8 8 B Z | O.p.q.5.O.{ O.#.} ~ , , V B 8 V G .. . .V z = . . . X . . . . * > 4 ( ( F G F V 7 4 = < U U ~ [ #.] W ' ' >.>.` W 6 4 ",
"8 8 R R ~ { 3.@.| | O.` ~ 9 8 , 4 8 z G ( ^ z 4 4 % % . & - - - - = - O . . . , , < / / F V z , < > 8 U ~ ' ] ] [ @.X.X.W W 6 6 ",
"6 8 R Q ~ ~ #.| ~ } O.~ U 8 * 4 4 4 B G ) ^ = %   . . . ; 5 5 ; - - - & . . . . . % )  .E A q 4 4 > > U W ` ] _ [ @.] ' ` W 6 6 ",
"q 0 q q R ~ R D w D Q 8 * 4 4 Z G _ / R % . . .   ; ; 5 r ; ; $ o 2 3 a 2 i i % . . . % 5 Z G G U 4 4 > 0 U ` [ W W ~ W S w 0 0 ",
"8 8 8 8 B A w w 8 q A 8 * 9 z E E F V z . . $ & $ ; - - - - = $ o & - - 1 - ; & & $ . X , B G ^ E z 6 > 6 q U U U C U U 0 < 0 8 ",
", < > > > > > > * > > * * V G ] ` , X   . $ ; a a ; % $ $ $   . . $ . $ $ % ; a 2 2 o . X B F ( ) Y Y % % % > > > > > > > > > , ",
"D D ~ W ~ Q S A 8 < > 4 z E / T G . . . - 1 ; & % $ $ O @ @ O @ # i i i - O $ % & ; @ & . % = F Y ( ` z 6 > < 8 U R R R [ [ U U ",
"R W  .[ X.[ E U q 0 , 3 Z ( _ Y x . . . 1 2 # o     o - r # - # r g g g - O .   O 2 2 +       V Y ) ( Y 0 > 0 q W ] _ ` :.>.E R ",
"~ ' >.>.7.7.>.+.W C 6 D / Y Z > X . + 2 a 2   .   O ; g r # - ; r g r r @ # i + o   1 2 5 %   X > / ) / S > w R :.9.>.;.>.:./ ` ",
"' ' >.>.>.7.7.;.W D 6 H ) Z z X . . : 2 2 1   . o O r h r r - r p h r r @ ; r # o   - 2 5 & %   > H E ( z > U R >.q.>.>.>.:.` W ",
"` } >.>.p.9.8.>.~ R D E ^ 4 : . . 1 2 2 % X & # r @ r g h r - r g M h g # r g g e @   & a a 2 X X : 7 ) z : U ~ >.9.p.q.q.p.W R ",
"` ' ;.:.w.w.;. .U U W Y F , X . % 2 2 1 + + 2 y p @ r g n r @ r g M m h e e h j p # $ & = 2 a X X % 4 / E Y U R @.#.>.p.>.>.` W ",
"` ` O.@.>.w.X./ 7 Z _ Y z % . . $ a 2 - + 1 g p p @ r g N g O r g M N m # p h m g # + &   5 a X X X , / / / Y U ' ' >.p.>.#.W R ",
"~ ` X.O.O.+.:.X.q Y ) Z < % X & & f 1 o @ i g p r @ r g M g @ r g h h h # r g m g i ; & . 2 x & % X : Y T ( U U ` [ [ [ ' ' W Q ",
"~ ~ X.] ` ` >.X.B Y ) z : X . : 1 x 5   ; p p e r @ r g M g # r r g g g e i g n g # # + . a x = : X : x T ) U q ~ ] W Q Q Q W Q ",
"D D ~ ` ' | ' ! , 9 G 9 , % X 5 5 z 5 . i h N p i @ r h M h e h n g g p @ e p n h r r @ . 1 f 2 5 % % : 9 U 7 , U Q ` ' R R U w ",
"B A Q ~ } | ` G > 9 Z 9 , * . 5 a f 1 . i h N h p - r h M h e j n g g g O e p n h p p - . 1 f a 5 X % : 7 x < > w U ] X.R Q z q ",
"B B B A G Q A 9 , , 6 = % X X 3 d - - + p h N g r ; r r M h e j m m n m e g M M h p i r @ @ + 5 3 . X % : 4 > > 0 w U U U U < 4 ",
"8 8 6 8 B w 9 8 * * = & X X . d d & + + p h n p r + ; p M h # j m j n m e p m n p ; p r @ & & 2 3 X X % % > % > , < 0 0 8 q > , ",
"= * = , > = > = % % X X . . X d 5 X $ - p h h p r - ; g m g r n m r j m e g M h r - h r + & X 5 5 X X X % % % X > * > > > > > > ",
"A q 9 B Q Q R G D A q , > X X 3 a & & @ h k g p r @ r g j r @ j m n m m @ r h g i @ g p @ & & 3 3 X X > : 8 U Y R Y U U 6 4 8 6 ",
"C C B Z ' ` ` ` ~ Q S 7 : % X z f + + + j k p t r # r g g r # j M M m m @ e g g t @ p i # @ + d f X X : 8 9 W ] ' ] R U q 6 6 6 ",
"~ ` +.3.8.9.4.6.9.5.| D 7 > % d x a 2 & j k p p r # p m g r # j M M g r @ g b b c @ p y # @ + l z X % 7 x W @.>.p.>.>.#._ ` U x ",
"Q R X.@.>.:.7.6.>.#.] D 6 , X z x a 2 O g j j r e @ p M j r # j n j p ; a K ,.,.P t p p # - + f f $ % 8 V R #.>.9.9.>.7.X. .B q ",
"S U ~ ~ ` ] q.>.] ] E B 6 % % z x a 2 + r g M p e # g m M p # n n r ; ; N =.i.i.,.u y p p # @ f f . % 7 Z E :.9.w.q.9.q.;.@.B 9 ",
"A S ' ' @.@.p.>.X.] W C 6 = % d f a ; O p j M r # # p M M g # j m j r ; 2.=.( P %.&.s i p - + f x X % 7 C W X.;.7.q.>.;.' ' z q ",
"C S W W #.#.9.>.@.@.] z 4 = X f x a ; @ p h M r O # g M M g r m M n r r e.=.# e %.e.c i p # - f f X % 7 C W ] X.>.9.;.#.W E B q ",
"6 q q q ~ ~ ~ ' _ ] ' Y C : % f f a 2 - p j M g e e g M N h # r h m p 2 u.<.r ; -.y.v i p ; @ x f X * 7 S R ' @.' ' W W D C B 9 ",
"q 6 9 7 U U W ~ ] ' W U 9 , % f x a 2 + p g n p e e g N n g # g j m g i 1.-.P P =.1.s i p ; @ f d X % 7 Z R ~ ' W W R W C w 9 9 ",
"w q 6 q S U W E U U Y z 7 % X z x 5 1 + p g g r e e g M h r + j m m h g y %.r.t.=.u 2 i p ; + x z X * 7 Z R D S R W W W A w 6 6 ",
"< < 6 6 w q q q 9 0 9 < , % X z f ; - O j g p p r e r j j g @ j m h h h # a H H l ; p i ; # @ x f X % , 7 q w q A A q q 8 6 , : ",
"< < < < q q < 6 6 , , , : % X z f - & + h h t p p # r h m g @ n m h j j @ O . % & ; p i @ @ ; f z X % : : 4 8 0 q 0 < , < < , , ",
"q q Z D A C D D U R R B 7 > % z a % & + k k p g p # g n m h # g h g j n # r p p r r j p @ & % f z % % 4 z U U U R U U Z q q q q ",
"B B R R U U R E W ' W C q : X z f % & & h j g g p # g m m h ; p h h j j # ; g g p # k p @ $ % f z X > 4 S R E E ~ W R U S A B B ",
"B A ~ ' :.:.>.6.8.;.' E C : X 5 5 5 1 + p h m h p ; p N h r + p g m j h - ; h m g # p p @ @ @ z z % : C W ] >.9.0.9.@.[ ] X.E E ",
"C C ` [ #.:.:.>.>.#.' F V > X d f a 1 + p h M p r @ g n h r + p h m n h # r j m p ; p p - - @ x x % > z R ' #.>.7.0.:.:.[ ] Y U ",
"D U +.@.:.;.#.#.X.X.' R C , X x x a 1 + i g M p e ; r h g r @ p h m m n @ p m m p @ p i ; - + x x X > 9 C W ] X.>.0.<.>.] ` B B ",
"B C W ]  .' [ ] X.} / D B : % x x a 1 - i g M g r # r g k p + p g h n n # r h m p ; h p # @ - f z X > 7 Z W } X.>.7.#.X.[ @.C B ",
"C C W ~ ' ' W ` O.' ' R C : % x x 5 2 & p h M h p ; r g m h @ p g p h m # r g n p ; k h @ @ - x x X % 7 Z W ' [ >.7.] ` [ @.C C ",
"q B W W U U ~ ~ E U A q 6 , % x x a 2 @ p p r g p + r g m h ; r p e p p & ; g m p # i i # @ - x z X % , B E [ +.` W } ] E E 6 6 ",
"6 q R U U U E Q U S q 6 6 % X z x 3 1 + i p e t g + ; g n h # g p e p p O ; p m h @ i # - @ @ x z % % : V R } +.` R { ' U U 8 7 ",
"w w q q 0 0 q w 0 0 < , * % % 5 3 @ @ & ; i r p p ; r h g r ; n n p p p ; ; g n p + p ; O - & 5 5 X % % , 6 B D R E S w 6 < q w ",
"0 0 8 8 0 8 0 6 0 < < > * * X d f & & + 1 e p p r # r h h r ; n m h g p ; r h h i + p i + & & a d X % , < 4 8 w D S q 0 < < 8 8 ",
"< > < , 6 , < , , < > * * * % x z X % - # # p r e # p m h r ; h m m h g # i g g i @ p i @ & . f x X % , , , , > > < < < , < > < ",
"q w U R ' ` R R D D C 7 6 % % x x - & $ i p i i r @ p N g r + k n h p r # r i g i + p i @ & & f z % % , q D D D D U w q D D B B ",
"A C W ( X.@./ W ~ ~ D B 7 , * x x - & . p p i r ; + p m p r + k j p e e # # r g 2 + p i - - & x f % % 4 A W R W ~ ~ D w W ` D D ",
"^ W #.#.7.>.7.>.#.[ ` E Z , % x v a 4 . ; 2 ; ; - - p m g r ; g g e r r - - r p p ; p i - @ - x z % % 9 E ' 4.8.8.0.:.;.#.O.D G ",
"W W @.#.9.>.9.7.;.X.' U V : = x v f 1 . - r ; - - - p m g i ; p p r # r - - r p i ; p i - - - x x % : 7 E ' 4.9.8.9.5.7.+.O.R D ",
"C U ) ' ;.;.;.>.9.;.` V 6 : = x F 5 , $ ; ; - ; r @ i g p r ; p g r @ - ; ; - ; i ; i # - - - x x % : q D ' O.#.7.9.q.8./ W D D ",
"z B ( ] >.;.X.#.5.#.~ Z 7 : $ x x 2 = $ & - & - - - ; 2 - - - ; ; - & & - - O - - - - - - - - f z % : 7 R / ] O.4.6.6.5.W R D C ",
"9 q W ) ;.;./ } +.' R A 7 : % z f 1 & $ . . . X X . . $ . % % $ . % $ . . . . % . X $ $ X & & 5 3 % % 7 U / ` ` O.+.+.+.R U w q ",
"q q Z Y [ ] E W W R S q 6 : % z V a 5 = 5 5 5 5 5 d 5 3 a 7 d 5 5 d d a 7 a d 5 d d 5 1 - ; - 1 5 X > 6 A G R Q ' ' ~ ~ D A q 8 ",
"B B B C ~ W D U W D w 7 6 > = z x V a - z x x x x x x x x f V x V x V v x V V v v v F f 1 1 1 - 1 X : 5 B R D R W { Q U A w 7 6 ",
"6 7 9 9 D Y U D Y A 6 7 6 > > : 4 - 4 1 , 4 1 , : 4 , 4 4 4 1 1 4 4 4 4 4 4 4 1 4 1 1 4 = : : : : % > 7 7 9 S U R R A w 9 8 6 6 ",
"6 6 6 9 D U Z D U B 6 6 6 , % : 4 = = , : : : : , : : : , = = 4 = , = 4 = , , , , , , : = : > : : % > 7 8 7 S D R Q A w 6 6 7 6 "
};
