/* XPM */
static char *result[] = {
/* columns rows colors chars-per-pixel */
"64 64 5 1 ",
"  c #464646",
". c #2B2B2A",
"X c #332C25",
"o c #040404",
"O c #5B5B5B",
/* pixels */
"       .                   XXooooooooXX                         ",
"      .          .          XoooooooX            .          OOO ",
"O     .   .     .        O   XoooooX     .      .              O",
"     .   .     .        . O  XooooX     .       .     ..       .",
"    .   .  O  .        .  O  XooooX    .O      .  O  .         .",
"   .   .  O   .      O.    O  XooXX   . O     .   O  .  O    .. ",
"  .    .  O  .       O.    O  XooX   .  O    .   O  .   O   .   ",
" .    .  O   .      O.        XooX   . O    .   O  .   O    .   ",
".    .  O   .      O.         XoX   .  O   ..   O  .   O   .   O",
"     . O   .       O.         XoX  .  O   .    O  .   O    .   O",
"    .  O   .      O.    O     XoX  .  O   .    O .   O   ..   O ",
"    .     .      O.     O   . XoX    O   .    O  .  O    .   O  ",
"   .     .       O     O   .  XoX    O  .      ..   O    .  O  .",
"  .             O    OO   .   XoX   O   .     .    O    .     . ",
"  .            .     O   .    XoX      .     ..        .     .  ",
"              .     O   .     XoX     .     ..        .     ..  ",
"              .               XoX    .     ..                   ",
"                             XooX          .                  OO",
"      ooo                   XXooXX                XXXXX      O  ",
"oooXXXooooXooo XXXXXXX     XXooooXXX   XXXXXXXXXXXXXoooXXXXXXXXX",
"XXX   XXXXoXXXooooooooXXXXXXoooooooooooooooooooooooooooooooooooo",
"  .           Xooooooooooooo  XXXXXXXXXXXXXXXXXXXXXXXXXXoooooooo",
" .            XooooXXXXXXX                            XXXooooooX",
".              XoooXX              .                .   XooooXXX",
".              XooX                .                .    XooXX  ",
"               XooX       ..       .      .        .     XoX    ",
"      ..       XoX       .    O  O.       .       .      XXX    ",
"      .        XoX       .   O  .O       .        .      XoX    ",
"     .         XoXO     .   O   O  O    .  O     .       XoX    ",
"    .        . XoXO    .   O   O  O     .  O    .        XoX   O",
"    .       .  XoXO   .    O  .O  O     . O     .   O .  XoX  . ",
"   .       .   XoXO   .      .O  O     .  O    .   O .   XoX    ",
"  .        .   XoXO  .       O   O    .  O    .    O .   XoX    ",
" .        .    XoXO         O   O    .   O   .    O .    XXX   .",
".        .     XoXO        O.  O     .      .    O  .    XXX .. ",
".       .      XoXO        .   O    .       .      .     XoX    ",
"      ..       XoXO       .   O    .       .      .      XoX    ",
"    ..         XoXO       .        .      .       .    O XoX    ",
"               XoX O     .        .              .     O XoXX   ",
"               XoXXO     .        .             .   OOO  XoXX   ",
"               XooX O   .        .                OO     XoXX   ",
"              XoooX                                    XXXooXXX ",
"        XXX XXXoooXXX          XXX XXXXXXXXXXXXXXXXXXXXXXoooooXX",
"XXX XXXXooXXXooooooXXXXXXXXXXXXooooooooooooooooooooooooooooooooo",
"oooooooooooooooooooooooooooooXooooooooooXXXXXXXXXXXXXXXX o XXX  ",
"XXXXXXXXXXXXXXXXXXXXXXXXXXXXXXXXXXXooooXX                       ",
" ..  XX    XX                    XXooooX   OO .       .  O    . ",
" .                                XoooX   O  .       .  O     . ",
".                              OOOXXooX  O   .      .  O      . ",
"    O            .       .        OXXoX     .      .   O     .  ",
"    O .     O    .   O  .         O XoX    .      .   O     .   ",
"   O  .    O    .    O .     O  . O XoX   .       .  O      .   ",
"  O  .     O   .    O .      O  .    oX   .      .   O     .   O",
" O  .     O    .   O .      O   .    ooX  .      .        .    O",
"O  .     O    .    O .     O   .     ooX .      .         .   O ",
"   .    O    .    O .      O  .      ooX       .         .      ",
"  .     O   .     O .     O  .       oX       .         .       ",
" .          .    O .     O  .       XoX      .         .       .",
".          .      .      O  .       XoX     .         .        .",
"          .       .         .      XooX     .         .       . ",
"         .       .         .       XooX    .         .          ",
"        .       .          .       XoooXX            .     OO   ",
"       ...                       XXooooXXXXX    OOOOOOOOOOO     ",
"                                 oooooooooo                     "
};
