/* XPM */
static char *result[] = {
/* columns rows colors chars-per-pixel */
"64 64 31 1 ",
"  c #272217",
". c #292417",
"X c #2C2518",
"o c #2F2819",
"O c #302719",
"+ c #332A1A",
"@ c #392F1C",
"# c #3D311D",
"$ c #41351F",
"% c #443720",
"& c #463921",
"* c #4C3D23",
"= c #503F24",
"- c #4F4024",
"; c #544326",
": c #594627",
"> c #5B4827",
", c #574628",
"< c #5A4728",
"1 c #5D4929",
"2 c #634D2A",
"3 c #67502C",
"4 c #6B532D",
"5 c #70572E",
"6 c #73582F",
"7 c #765A30",
"8 c #7A5D31",
"9 c #7E6033",
"0 c #836434",
"q c #896937",
"w c #8D6D39",
/* pixels */
"XX$####%**&&********&@oo=***=;*=&**&=*#@++##%%%%%%#%####++XXoo  ",
"OO$$%#%&********--*--*oo;==-====*&*=**&$@+##%%&&%&#%#%#$##++++  ",
"+@;:243478887777555444@o1298880833534344&%7788778833443334**&&XX",
"+@:;333477989777454434@o1108888835534455%$7888888833444344*&*%XX",
"++::3433557544995555,-++,100122<335577<,$$2377222233770q5534==XX",
"++:;3444757744995457,;++,1002<23544575,,$%338822324477004533==oX",
"O+><8708331,55322112;;XX;;442333331,1,11$#223234785575333233&&XX",
"O+;>8788231154322111-;XX;<22233253,<,1,,##122234885775222333&*+X",
"++=,23111,5555533333--X *-225555,,<133--@@11774488q0112255,1*&oo",
"o+=,331<114555323433**XX&*224555,<<<33-=#@2175347798;,1234<,*&XX",
"++----**33--=-,-,1&%#$XX**1,,11112;;22*-@@,,111222;-;=3211&%&&..",
"o+==--**13--=-,-,,&%##XX&*,1111121*;22--@@;;111122=--;1111%%&&.X",
"XX+@######@@##%#@@@@XXX #@**1112=-,;$$&$oo@@&%##&*&&--%%$$&*@@O+",
"XX++@#####++##%#@+@+XXXX@@&&<113;-,,%$$$oo#@%$##&**&*=$$$$*&@@+O",
"X XX         XXXX X  XXX+++++@###@oXoooXXXX XXXXoXXXXX X  XXXooo",
"X XX     XX X X X  X XXX++++o+++##ooo@oXX  XXXXoXXXoooXXXXXXXoXX",
"#%;-,;,;=;O+&&11222423*;-;*;+O;;12<,<<;,;:;;--OO*-,,,;;;;,<<<<##",
"%%=;;;,;*=OO&&<<322442*;;;=;++;-11<<;><;;;>>;*O+**,,,,;,;;<<<>+#",
"%&,<5555;;XX*=878877988034;;+O43002232444688;>XO,,797844745411&&",
"%*,13455;=OX&*888888899844;;+O43993322446468;:+X<,888854467712$&",
"%&4455,,1<XX%*118933762343;;@+224543864444<<;=++3275355544>111$$",
"%&44341<,;OX&&1<8633762244*;@@227543884544>>--++22553555441111$$",
"%%,;<233**XX@%;<3221;,11::<1++;-11;,111<<>21--++;;232222;>23;;##",
"%%==<<11**OX%%;,21<;-;<<<;><+@*-1<;;21<<;,2<;$++*=242222>;13;;##",
"@%*=<<***%o.#%,1;;<1--,<;,&&Oo#%*&::;*>:>;;;$-+o;;22;$;$>;*$-*##",
"@@**<,*&&*o.#%,1;;1<--,,,;$&oo$#&&;;**;;>1;;-$++$*12$-$$>;-***##",
".X@@%%%%+@oX++$$&%##%&@@+@ooO+##$$$%&&&&-$;;##XX$$$$$#$$$#$$@+XX",
"X.@@%%%%@+.ooo$$####%%@+++oo+O###$$$%$%%--$$##oX$$$$@#####$$++ X",
"..oOXX    XX XXXooXXXX..oX  .ooo.....X..XXXXXXX oXoXXXXXX XX....",
"X.+o XXX  XX..XX...XX... XX ..XX ..X.XXXXXXXX XXoooXXXXXX.XXX  X",
"@$2233343333333311&%oo-*>111<1<<<,<<;;&*O+;;;;1123--:;::;;;;;;++",
"@#2233333331331313**oo-*><<>1<<<;<<1;:&*+o;;;;1>22*;::;;;;;;;;++",
"+$5500ww6600000034<<OO1268655500545477==+X11878866888744445544++",
"@@5400q06699000933<;OX2187544400454556==+X12878865888844545544++",
"@$22540090460q2123<;oO12560077241111;;*=XX1242225500;:;:553323@+",
"@@:244080044001112<;OO21550054321112;;==++1244224488=:;:554422@@",
"@$>>2288>14421;:*---++11443422122222****oX**33325444>>545555=:+@",
"@$>:2288>12321>:&$**+O1<422442212122;;*=oo*;22224444>:545556::@$",
"@@>>22;:::1133<11:&$OO*=:::122;,21=***%%oo*-=*=*::::2112::;===OO",
"+@::21:<;;<:1>,;>>$$XX==;:::22;,12**&*%@++**&&**>:;;>11>;;=;=$O.",
"@@=***11<<*--*;;####.X##&%,<,;;*%%%%**@@OX%%****$;;;:;-;==**;;OO",
"@@*-$&;:<,%#*&;;@#@#XX##%&,<,;;;%%&&&&@$XX$@***&;$:-:;;;;$-$$;OO",
"XX+O++++##OoooooXO.X XX +oO+O+XXXXX.XX.X..OX++Oo++XXXX.XO+++XXXX",
"OO+@+++#+#OoooX.ooX.XXXXo+O+XO.XX.XXX.....OoOOoXooXOOXXXO+++.XXX",
"&%=;,;**;*&&O+=;;;;,<<-*;;;;==oo==11111<<2=*;=oO$$;;-*--;;*;-*@@",
"%%;;,;&-=**&+@**;;,,><--;;,<==oo==11111112===;oO$$;-----;;;;*;++",
"&&6776114223O+12888878441223,;oX228688222244,,XX;;126688446622++",
"&*6886112242++12788878441133;;oX228888333234,<.o;;226666456612@+",
"%&551>886821O@22784322435423=;XX:22222223455::X+;;454521::::2:++",
"%&5421885622++227624124445<2;=oX:12244244355;:OO;:44562:>::::2+@",
"%%1:44225623O+11<<55453444<,=;Oo:;2254562>;=;;XX::5421222:44;=@@",
"$%:144226622++::2134533343;==;+@;;125565>2;-;;XX:;54>>232233$=@@",
"$$221:2>****O+11;;222111;;,,;;+o:::=:;;:22=;:;XX$$;:11;;--:::;++",
"##22:>2>*=*=++21;;241121;;;;;;+O:2:;:::::2;;;-XX$$;;12$=--::;:OO",
"@#**::**;;&$++&*;,;;;;**;;%%$@OO$$::;;:2==:;$$XX$$$;$;:;;=##$$X+",
"@+&&:=*=;;$%++*&;,,;*;**;;%%@%O@@@::;;>2$$;=$#XX$$;$;$;-:$##$$XO",
"+@=*$#&&@@@#OX%#@@$##$%&&*##$#OX+@@$#@$$@#$$@@.X+O$#@@$$#@$#+++O",
"@+*$#$&&@+@@XX@#@+$$#$&&&&#$$#OX@@###@@@@@#$@#X.X+##@@@##@@#O+OO",
". XXOXXX.XXX .XXX.XXXoOoOOXXXX.XO.OXXX+XXXXX.X...XXXOX.XXXXXX   ",
"  XXXXXX...... . .XXX..XXo..XX.....  XXXXXXXX. .  X X.XXXOXX.X  ",
"O+#$&&;**=;;==;=;;&****$&&$&$*;**;&*$;#+##1:2222$$;;;-$$#$$$$$OX",
"++@#&&**;*;;=;=;;;&&&*$$%&&&$$*;;;**=$@@#$1:1222$;$-$-$$##$$$$OO",
"OO++OO+@@#%&%%##$$@###@##$++@@$##$$$##+O$$$$$$$$$-$$;-=;$*@@++X.",
"OXO+OX@@@@%%%&##$$+++@@@#$++++#####$##+O$$$$$$=$$$$$$;$$$*@@OOXO"
};
