/* XPM */
static char *result[] = {
/* columns rows colors chars-per-pixel */
"64 64 158 2 ",
"   c #452D25",
".  c #492D24",
"X  c #422F28",
"o  c #4C3226",
"O  c #433028",
"+  c #4C342C",
"@  c #4C382F",
"#  c #53362C",
"$  c #5B372B",
"%  c #55392E",
"&  c #5C3B2E",
"*  c #4E3730",
"=  c #543730",
"-  c #553B32",
";  c #5C3D33",
":  c #623D2E",
">  c #623D33",
",  c #6B3E33",
"<  c #643F38",
"1  c #703D33",
"2  c #5F402F",
"3  c #5D4135",
"4  c #5E4339",
"5  c #65432F",
"6  c #634235",
"7  c #6B4336",
"8  c #674937",
"9  c #6C4936",
"0  c #644439",
"q  c #6B453A",
"w  c #65493B",
"e  c #6C4A3C",
"r  c #724436",
"t  c #784737",
"y  c #734A37",
"u  c #7A4B36",
"i  c #72463A",
"p  c #7A463A",
"a  c #734B3C",
"s  c #7A4C3D",
"d  c #6C513D",
"f  c #74513D",
"g  c #7B523D",
"h  c #7D593E",
"j  c #664D41",
"k  c #6C4E42",
"l  c #734E41",
"z  c #7B4E41",
"x  c #675046",
"c  c #6D5244",
"v  c #6C5449",
"b  c #745243",
"n  c #7B5344",
"m  c #765943",
"M  c #7C5945",
"N  c #745649",
"B  c #7B5649",
"V  c #75594D",
"C  c #7C5A4C",
"Z  c #755C51",
"A  c #7C5D52",
"S  c #796048",
"D  c #7D6153",
"F  c #7D6259",
"G  c #7C6860",
"H  c #814E3C",
"J  c #81543D",
"K  c #8A533E",
"L  c #845A3D",
"P  c #834E42",
"I  c #825543",
"U  c #895642",
"Y  c #835A45",
"T  c #895B45",
"R  c #825749",
"E  c #835C4B",
"W  c #8A5D4B",
"Q  c #915F45",
"!  c #835E51",
"~  c #885F50",
"^  c #856245",
"/  c #8B6445",
"(  c #836845",
")  c #8B6A46",
"_  c #84624B",
"`  c #8B634C",
"'  c #86694A",
"]  c #8B6B4B",
"[  c #906042",
"{  c #906E46",
"}  c #90614D",
"|  c #936D4E",
" . c #9A6E4E",
".. c #8D714E",
"X. c #91714D",
"o. c #9C744C",
"O. c #846253",
"+. c #8A6454",
"@. c #866B51",
"#. c #8D6B54",
"$. c #856559",
"%. c #8B675A",
"&. c #85695B",
"*. c #8E6C5B",
"=. c #926652",
"-. c #926D52",
";. c #996D57",
":. c #91665A",
">. c #936B5C",
",. c #8E7253",
"<. c #8E7957",
"1. c #937454",
"2. c #9A7554",
"3. c #967955",
"4. c #9B7955",
"5. c #94745A",
"6. c #9A755A",
"7. c #967B5B",
"8. c #9B7C5B",
"9. c #A07856",
"0. c #A17D5C",
"q. c #9B7264",
"w. c #957C60",
"e. c #9B7E61",
"r. c #A07E63",
"t. c #9D815E",
"y. c #A2835E",
"u. c #A9845E",
"i. c #978261",
"p. c #9D8262",
"a. c #9E8569",
"s. c #9F8969",
"d. c #A28563",
"f. c #A98564",
"g. c #A48966",
"h. c #A98A66",
"j. c #A38669",
"k. c #A88569",
"l. c #A48B6B",
"z. c #AA8C6C",
"x. c #A6906E",
"c. c #AC916D",
"v. c #B1936F",
"b. c #A58D71",
"n. c #AA8E72",
"m. c #A69171",
"M. c #AC9273",
"N. c #AF9877",
"B. c #A7977A",
"V. c #AD9679",
"C. c #AE997A",
"Z. c #B19575",
"A. c #B19875",
"S. c #B29779",
"D. c #B39A7C",
"F. c #BA9D7D",
"G. c #B59D81",
"H. c #B9A286",
/* pixels */
"7.1.s / / E g M Y J J ` n _ g g E g g C Y n 9 9 d d h d @.e g ) 9.3.4.) ^ ` Y f 7 9 6 9 g J K } Y g #.8.6.7.e.*.@.2.` L 9 s d.t.",
"4.9 y s g I J E d s q C b a R d a q y q m g i i e C 8 d 8 a u g 9.d.3.g -.C g / d 0 6 % 8 s Q T M _ O.>.#.*.;.*.C _ E g y g  .d.",
"d.q s R R i R a M a 7 ! b q R _ s 8 s E s s g a C D V x e m s W c.0.p.V E E 4.W N 9 b 6 & 0 U T R ~ -.~ :.%.` _ Y g ' Y g s / z.",
"d.a g R s 9 s s g E a C W E s b E f C ! , q y q d c c x M 8 E R y.y.1.f O.E L 9 ; k q , y , ` E O.I I n ~ W R -.Y ' m M Y a M g.",
"d.e ~ P a s i z 9 l C >.%.s N E z w b 6 9 i 0 l d 3 0 0 l s N s p.t.t.a ' W n f c 8 ; q e n E _ O.T ` w.#.6.>.;._ S m U n s f M.",
"z.s z T P l a n b > I n R y 9 b b q a i q w 7 q w d q q B 8 w 8 ( { 1.5 / n E C 6 q q s q c O.e n ` R 2.U | @.` #.M _ g C M S D.",
"M.I p l s > , a E r 7 a n a 9 U B l i a q > < , 7 7 a q q e y r { 4.3.g n E J s l s r a n k R s R M s 5.#.J h M ] -.Y m ^ m / F.",
"e.z s q 0 7 q s U , 7 7 q s 7 i q i q 0 q ; w 1 7 9 , q 3 C y 7 3.3.) n O._ : E N l g z n n b a a a Y 5.a i Y ` ,.,.^ e M g g C.",
"z.z z , i i l n r 7 r Y } s i ` R q ; > q ; > l z q < r n n l s { <.) d n g r n i 4 a ` b b V a 9 C a m E I M @.` _ / ` m m S m.",
"p.0 < l q s P r q 4 i I M J T W B l < b 7 i z q > j q 0 8 s E s ) t.4.8 n f s 7 , c z $.R B f M ! m M a S #.E M ' m f L d n ` z.",
"z.k ; l r , r q e 0 6 I I T u n n n w z q q s l k q B j l ~ E R 3.l.) 9 e i q I a k R $.! A C +.b l e y ' b R _ _ m _ ` e 6 / z.",
"j.q ; k z 0 7 7 > 7 9 I s s 6 R z l w q a q k q l e k w a l l s X.t...9 i 0 y q , C ! ! C C ! z E l e q *.b T +.g a E n Y g ] N.",
"e.0 0 I M 9 q R W Y n %.M n C %.O.a l +.M N V n l e 0 ; k R k b t.....I e e w i j b O.R E %.k q V q k W m $.9 M z I E W b s ..M.",
"d.J q l g i l a Y Y ` g n U E >._ f i T E a 8 b q k s w 9 m a ` X.l.2.5 y ; 9 % 6 0 7 R n R s M C B b b b V 0 % 7 r 9 g a s / c.",
"h.d./ 9 _ Y 7 s s | / i ~ / / 6.o.T ` ` Y Y s U q m w u M E | | | c.X.) ' ( ] 6./ ] 1.1.,.w.w.e.b.b.5.p.a.7.-.-.M | 5.X.2.X.8.g.",
"8.c.y.d.l.c.t.t.p.c.M.M.M.N.m.v.v.v.h.d.c.M.z.j.g.l.s.g.c.M.j.z.Z.N.u.t.y.p.y.y.d.l.j.x.t.C.M.V.G.V.z.m.V.C.z.p.g.S.S.A.x.h.d.d.",
"6.y.8.d.8.k.e.$.r.z.6.6.8.d.d.j.S.h.d.h.4.f.8.;.5.*.7.e.8.w.e.r.k.7.1.1.8.p.1.7.7.5.5.c.S.l.k.j.a.e.a.e.5.e.,.@.1.6.' 5.2.2.4.5.",
"> 6 i 7 q a i s A ! q e E n U E 9.4.l.9 $ i K W ; q j j j k ! %.B b 8 0 N & 7 >   + _ g.S.E e a E q l j > q 6 ; 6 6 7 b g r J 6 ",
"l i a i i 7 r ! +.k w R ! n W R 8.z.h.9 r +.} l ! V k w N %.%.~ q k A w j A q ; - k + p.g.^ m z E l z z q k q q b q i s 6 > a > ",
"b q q > > e i a ~ n ; s M k g W 6.N.8.f p b B i ! l V q N Z Z n q B A w a 8 q # 9 0 8 i.z.9 a M l M z z n n l , B q q i a ; < r ",
"0 y 6 ; > n n s N l w M %.z C E r.x.3.a k I z z q Z V b A ! C q q l N 0 6 q ; q l N 4 p.s.d q n n e R R l s i l l 0 q z a # # k ",
"a 0 3 8 N R s a l 8 8 y E %.b ` | p.c.N q ~ ~ l k v b B l 6 ; q 6 ; w 3 , 0 q 0 F v 0 a.B.w N k q y m J a U z z n e N q 0 q > q ",
"8 ; & q z I q > M i ; ; a 8 g a ] l.d.7 B B i z a V Z 7 7 j 6 q > E 5 $ : ; 0 = ; q = p.g.f N a q E k g y R R 7 E O.9 k e 6 b q ",
"9 ; 6 0 ; i k 0 q s > 6 q O.e f 1.M.j.N R n 0 a q E E 9 q 6 ; z 6 > 0 # ; ; j q ; w b 8.m.9 ; q 9 l i i k R n z b i > > 0 g 9 a ",
"7 s > 0 w s 9 q r i i a R R 0 0 | p.0.N n E l ; N A 9 P , < q s z ; 6 ; y b k 6 V x 0 n.j.a k b ! I q E N ~ C E R q l a Z E m ; ",
"N 0 w w J g i 0 ; i i n m R s s 1.n.j.f ! y p e ; q i a a > i z ; k q n b ; j N j j k w.s.q q M N V z E R +.$.A v B l N V P a 7 ",
"l 0 k 6 > 6 7 + 0 > 0 B b R i s z.n.8._ s a 7 6 ; 0 k q q 0 > a w e ; a < ; 4 6 ; - w p.i.a c V A C B z l %.b w ; w a E b y 6 l ",
"k q 0 6 ; = 7 b ; w w 0 y b s i 6.D.e.9 > y 7 7 # c 6 ; q > 6 b s 0 w b < 0 w q k * 0 1.a.k 9 l Z l l l A B B B 4 w M l N 6 a 7 ",
"w q 3 = ; w v 3 3 N N > 0 e m a 2.S.t.6 7 s 0 # # 4 6 ; 3 w l a f e e d 6 4 e w 3 @ - <.p._ q B A ! A B A Z 0 ; 0 0 - 0 0 w 0 3 ",
"6 k ; ; > Z e & k Z w ; 4 C f 6 ] 8.X.5 # 6 & % - - 3 3 < w E 8 N 3 3 N - * 4 - * 3 d ,.l.5.z ! $.Z N l V C q - 4 4 - e 3 n i 7 ",
"n > > 6 n C I b n M m g ` 5._ Y 8.t.) L 0 6 7 8 > 0 6 r y q s g M 7 6 e $ y 9 # 6 h 9 ..g.d.| l +.R l N A +.y 9 d m 0 7 n U H 7 ",
"1.5.<.] ] d.g.7.a.6.3.8.g.d.6.8.d.9.1.t...8.t.u.8.1.,.1.8.z.8.4.2.0.8.8.2.1.] 0.l.7.p.g.m.l.z.b.C.V.n.k.b.p.8.g.p.5.,.j.j.j.d.2.",
"1.7.6.6.8.d.,.] <.5.1.4.4.d.2.| 2.0.1.2.( 4.X.X.2.' ( ,.o.t.u.X.3.4.3.2.o.4.6.f.j.6...7.V.G.M.n.G.V.S.z.M.z.V.m.l.g.<.p.j.V.z.e.",
"> ; 6 3 w 7 % $ 0 - k = e k 9 q t i i i % ; 6 0 # % ; - % $ t.y.L 6 6 $ # 8 8 6 > 0 - l F C l Z V k _ 5.l.j.C s 0 k 6 e +.q 6 ; ",
"> 0 9 0 0 b % ; e v 3 l P j r , 7 I b C q s s = = - 3 & % % { y.L ; 0 7 i i 4 ; e 9 0 l Z N V z m N n 0.N.z.e 9 M a a +.B ; ; # ",
"w q b c w k i 6 N n C N k c 7 H s n ! ; q 9 i ; > ; X % % 2 <.3.7 6 3 6 k 6 0 7 7 y q R N ! l M $.b z y.m.p.a E b M I R C q ; > ",
"l A V 3 3 l s l 0 e S k 6 m e > 6 b b - 4 B z s $ # O * w 3 i.( ; ; ; ; ; p q z q 6 0 B G N i V &.D m p.N.e.9 R b V B R q < > 6 ",
"B 4 v 0 - e q > @ x v ; 3 l : s 9 k w w > l n q = + * @ 2 @ ' ..$ ; 4 ; ; < a 6 n k b w 0 = N n N B f 8.M.z.f 0 Z N O.q < q > q ",
"N V 3 ; l A q j k C 6 ; > N z < 6 k 0 > < a l q 0 > + - 4 2 ) ( 6 4 * ; q ; 0 < ! B > q 0 q a < n e 6 7.l.g.7 0 E A i q > s l 0 ",
"b % ; c q < 0 j 6 j 3 ; > 0 > ; k w 7 ; + q x q l 6 + 3 8 o ' t.7 3 ; = ; = 0 e s q : i a i i i 7 3 6 t.M.g.3 0 n w q a a n n n ",
"9 0 4 w ; < > 0 j ; k k < ; = ; 6 ; 0 = q ; e 8 B a < l q 6 t.t.u % ; x q < A < < q i s q q W z r q a 2.M.z.z n l j i N q B +.e ",
"; ; ; ; l j j ; - 4 0 0 = ; = $ - w k 0 l ; q A B z z R e 7 t.3.9 3 3 ; ; q k q ; > z P q M } z s 0 4 5.V.z.O.6 > ; l e a R E p ",
"a q < q l < ; + * ; ; ; ; i 1 1 ; 6 6 b a k k k q b e O.n e 3.y.f - 6 6 < > q a q ; l p z I T R a k a 1.M.n.q 0 b l i ~ $.%.+.P ",
"q i z < q ; < l ; k 4 * < i 1 1 < i Z b l ! n s w w q 0 e e d.t.e ; = b 4 0 C q q z q < B B l p i l z 2.G.z.0 q N z ! A O.R I p ",
", z q r ; l l b m j c 0 6 s p U i m D N w e l V k 0 E j e L c.h.| 6 q w 7 e i ; < a 7 0 H r 7 s > q y o.M.d./ q l N N j g p 1 s ",
"q 0 w i , , r < 9 - ; q > 6 i , ; 4 e 0 a > a N w w w e 7.8.g.y.1.6 0 w c % > ; q ; r ; q i 7 7 q R n 4.M.h.j.@.Y q O.E a y 0 l ",
"j.l.8.t.g.x.z.f.t.i.i.8.d.l.8.7.g.M.w.p.l.b.M.z.8.l.p.z.n.F.v.v.y.0...p.g.4.u.8.p.d.7.g.e.e.n.a.j.y.M.7.l.Z.S.l.S.M.b.p.d.p.M.n.",
"p.d.z.M.h.z.d.d.D.h.l.z.S.z.b.z.n.V.a.h.h.z.p.l.p.e.l.d.z.j.z.d.2.8.t.t.l.v.h.u.d.g.l.j.z.j.z.c.c.c.A.Z.m.D.F.M.M.S.C.M.M.S.M.M.",
"> $ i _ e 0 8 X.t.y.3.g : $ & & e N a a e b e # 3 8 V 6 B & 5 & 5 $ : 6 > | 1.0.j.{ 7 % > ; , > 8 i t r q q W s > r > p > s e 7 ",
"6 0 8 ; ; k 6 7 t.N.1.% % 3 8 0 M M b w b c ; o 6 f 8 & ; ; ; 6 6 7 & ; 3 0 T 0.d./ . % > l P z 0 i M s q M U a q i b r i n a 0 ",
"R i y b e s / L N.x.S e m 4 % w B B 8 l M B 6 ; q a 9 d 6 - ; R g y l q n R z h.h.-.i C i i p U s I e.I M ;.T I E a s l I g a g ",
"n M b C s i K %.N.g.3.e R +.q n l b l q b C i a 0 g c c e y i Y q > i n m _ Y y.p.6.7 ` n q a z I T I M Y n z s l y R s z a e q ",
"P l n z q s +.;.p.p.X.U #.M E E C 0 z m 0 i s Y , N w k e I q R q q i 9 M =.~ d.7.] 6 s z W I ~ I n I J } K z p > q P u > q 9 q ",
"E e M %.n b O.f 7.l.t.f @.D R B C k z n E 9 M R b V e 0 b 3 w w q r a l z s a 8.m.6.a l 1 B %.! #.R E J -._ z i l a g H r 7 > i ",
"W Y s b C M e e X.g.1.9 / _ E W n b q b I s g s r i # ; e ; ; M i > i l 9 i s 2.h.6.0 s R n =.q.+.T h p ` I : s i z r J p ; p I ",
"z E M T O.b N 0 7.s.5.y Y +.C a M k N z l q 6 7 i y # ; 0 q r n 7 ; k a q n ; d.z.8.s b R :.=.:.i i y R ` 7 i q z n +.s s s s z ",
"A O.l :.n B l 9 3.7.t.U / $.e b c N d l m l u s M A q z 8 4 w c w 4 w ; B q i 8.k.5.E U z A +.q l l a z B H z q q s P H ; w ~ k ",
"a C q q C q _ 8 i.i.4.g n E f 7 3 a E d n a q 4 q R B k w a 8 9 l b b 4 w B i 5.d.r.q l b C I n N V q > P n U 7 q k 9 K q q E q ",
"` $.I l z l q w 1.l.8.R R #.+.n e O.k n n q a a I ~ i l a 6 i s a 6 l q % a s 0.k.0.z l l s I :.C z z , I 7 t a l n s P n B ~ z ",
"E B q 0 i q 8 % 2.m.j.% M C b s s ~ e z a n R s O.C k 6 6 w 6 7 ; q w l m C P l.M.r.w n w R R R C l a I a > R n g n s n e s i p ",
"q q q z k q 0 9 4.2.3.6 b M 6 z n M R / 8 s b g z 6 a - 4 9 4 Y b > 3 6 s I 9 4.y.8.s > z a n O.i k r W 7 n %.O.p 7 =.W n r a 9 ",
"y q i g ^ s i s h.<.3.L u @._ g ` 1.L ) 1.9 y i a 0 q 3 f n ( ` M 9 g h Y M h | h.2.5 ; 6 s i / q r u T L g g s [ L J / g 7 L y ",
"7.8.] 1.0.w.2.k.t.7./ 7.f.b.7.y.c.g.4.g.z.e.1.8.1.p.1.6.7.6.j.l.4.2.8.6.t.4.2.u.t.( 3.5.1.2.z.z.z.h.g.z.S.h.k.F.S.Z.Z.h.1.1.8.<.",
"g.t.,.e.h.m.t.8.p.0.d.v.l.c.m.c.z.d.g.g.l.4.1.1.7.p.7.7.d.l.8.u.4.0.4.1.p.8.u.u.3.X.p.8.t.d.c.g.l.M.M.V.F.Z.S.H.S.F.Z.Z.j.d.8.d."
};
