/* XPM */
static char *result[] = {
/* columns rows colors chars-per-pixel */
"64 64 5 1 ",
"  c #464646",
". c #040404",
"X c #332C25",
"o c #2B2B2A",
"O c #5B5B5B",
/* pixels */
"     .........................                XX......          ",
"         X.....        o                        X....  o      o ",
"   o      XX..        o                o         X...  o     o  ",
"  o       XX..X       o       o        o         X.X   o     o O",
"  o        X..X     oo   O   o        o        o  .X  o    oo O ",
" o      o  X..X    o     O  o     O   o        o  .X       o  O ",
" o      o  X..X    o   OO  o     O   o        o  X.X      o  O  ",
"o  O   o   X.XX   o    O   o    O   o         o  X.X      o  O  ",
"  O    o   X.XX  o    O  oo     O  o        oo   X.X     o  O   ",
"  O   o    X.X   o    O o      O   o       o     X.X     o    oo",
" O    o    X.X  o    O o      O   o        o     X.X    o     o ",
" O   o     X.X  o     o       O  o        o      X.X    o    o  ",
"O   o    O X.X o     o       O   o       o     o X.X         o  ",
"    o    O X.X      o           o        o    o  X.  O      o   ",
"   o     O X.XX     o         oo        o    o   X.  O     o    ",
"        O   X.X    oo         o o      o    o    X.  O          ",
"            X.X    o          oo                 X.   O         ",
"           X..XX                                X..X  OOOO      ",
"   XXXXX XXX..XXXXXX           X                X..XX      XXXXX",
".......XX............ XXXXXXXXX....XXXXXXX  XXXXX....XXXXXX.....",
". XXXXXXXXXXXX...XXXXXXX.......................XXXXXXXXXXXXXXXXX",
".  OOOOO        XXXXXXXXXXXXXX      .....X   XXXXXX             ",
". O                                 X...X                       ",
".X    o                    o         X..X     o         o       ",
" X    o           o        o         X..X     o         o       ",
" X    o          o       oo           X.X    o         o    O  o",
"X     o         o   O   o        o    X.X    o        o     O  o",
"     o         o   O   o        o     X.X   o         o    O oo ",
"    o  O     oo   O   o  O      o      .X   o        o    O  o  ",
"   o  O     o     O   o  O    oo       .X  o        o    O   o  ",
"  o  O      o    O   o  O    o         .X  o       o    O   o   ",
"    O      o    O   o  O     o         .X          o    O  o    ",
"    O     o        o   O   oo   O  o   .X         o   OO  o     ",
"         o        o   O   o    O   o   .X        o   O   o      ",
"        o        o   O   o    O   o  O XX       o   O   o       ",
"       o         o       o   O      O  XX       o   O  o        ",
"      o                 o    O     O  X.X      o       o       o",
".                              OOOO   X.      o       o      ooo",
".X                          OOO      X...X    o      o      oo  ",
". XXXXXXXXXXXXX                 XXXXX....XX          o      oo  ",
"...............XXXXXXXXXXXXXXXXXXXX.......X                     ",
"......XXXXXXX      .........XXXXXXXXX X....X                    ",
".....XX           oo                   XX..X                    ",
"....XX           o                 OOOOOXX..XXXXXXX.XXXXXXXXXX X",
"...X     oo      o        o            O XX.....................",
"..X     o        o        o          o O XX....X XXXXXXXXXXXXXXX",
"..XX   o  O     o        o          o  O  X..XXX OOO            ",
".XX   o   O    o        o           o  O  X..XX  O              ",
"..X  o   O     o       o      O     o   O X..X  O        o O    ",
"..X o   O     o  O    o       O    o      X .X  O      oo  O   o",
"..X o   O     o  O    o      O    o        X..X O     o   O   o ",
"..X    O     o  O    o      O     o        X..X      o   O   o  ",
"..X    O     o O    oo      O    o   O     X..X     o   O   o   ",
"X.X   O    oo O    o       O     o   O      X.X     o  O   o    ",
"X.X       o        o       O    o   O   o   X.X    o       o    ",
"X.        o       o       O    o       o    X.X   o       o    O",
"X.X      o        o       O    o      o     X.X          o     O",
"X.X      oo       o      O    o      o      X.X         o     O ",
"X.X     oo       o      O     o      o      ..X        o        ",
"X.XX             o           o    o o      X..X       o        o",
"..XXO           o            o   o o       X...XO              o",
"..XXXOOO                    o             X....X O              ",
"....XXXXOOOOOO                            X.... X OOOO  O       ",
"......                                   .......      OO        "
};
