/* XPM */
static char *result[] = {
/* columns rows colors chars-per-pixel */
"64 64 48 1 ",
"  c #1C1712",
". c #1E1A13",
"X c #241D15",
"o c #272016",
"O c #2B2217",
"+ c #272118",
"@ c #2D2518",
"# c #2E281C",
"$ c #302617",
"% c #302718",
"& c #332A1B",
"* c #392E1D",
"= c #3D311F",
"- c #362F20",
"; c #373020",
": c #3E3221",
"> c #40321F",
", c #423522",
"< c #463924",
"1 c #4A3C25",
"2 c #503F26",
"3 c #4F4027",
"4 c #4F4028",
"5 c #504027",
"6 c #544429",
"7 c #59472A",
"8 c #5C492C",
"9 c #624D2D",
"0 c #684F2D",
"q c #67502F",
"w c #69512F",
"e c #634F30",
"r c #675130",
"t c #6C5431",
"y c #715732",
"u c #755A34",
"i c #795E36",
"p c #7A5F38",
"a c #7C6037",
"s c #7E6138",
"d c #82643A",
"f c #87683A",
"g c #8C6B3C",
"h c #916F3F",
"j c #92703F",
"k c #957241",
"l c #997542",
"z c #9D7945",
/* pixels */
"X.%%%&&&<<,,899888::#$. =*=**&3411&-&%&%###&#&&&@OOOOOXX++..X...",
".X%%&%&&<,,,88888e<:@$  =**=;*1411&-&&&%#-&&&&##@@$O#OXX++XX....",
"XX&&<1trwwdsaizlll64+o..11aalkklsdfsrryt4:utyyyyyueq4644tq36#$XX",
"XX&&<1rrrqsaspllll64++. 31aallkksddkqrrt4:ytuyyyyu994344qq36&#X.",
"XX<<7888ssrriuaaua11#@. 56jlqruuasreqqaa8ekluy44zlzkaykz76uy&&o.",
".X<<8888dsttuaapaa13@@..66jjqeaassrerriueezlya:<zzlzuukk88yw&&o.",
"XX<,9999rr64ua88q8::+o..67q9aa67hhapapii6687llua87ytyu7786yy><..",
".X<<9999ee44uirre8:=oo..8888au76hkuuppui6688kkya88yyyy6667ty<=XX",
"oX::55ai4433671<q9==++ .1124fkupuyaa76kl767768pyyuiuq8yy68=>**.X",
".o<<65ia443567<<w9>>o+. 1444kkuuyuyp77lk888877yuiiuy87yy88==&*X.",
"oo;;<>$@<<%&<<<<<1@@@@..154111uu4667e8sd::887767iu76uu8868$$$$.X",
"XX**<,#$<<&%111<1<@+@@..141164uu4667e8dd:;8e8777ui67uu7776O$$$.X",
"..X.....oooo.X++..++oX..,,8956<44<77<<yu77:<8887771111<<%$@$o+o.",
"........oXoXoX++..+XoX..,,8956<1<<871:yy77<:88q878<1<1<1$$$$oo.o",
"..oo$$@@@@===:::@@==X+..##::&&%%;;-#<:#@##;;#%%%#$11@@%$%%oo#O.o",
"..++$@$$@@===:=:@@=:X+..&#::%&%%;;&&<<&###&;##$%$@11%$%%%%o+##.o",
"oo==3111dd9909iu7867%%X ++X+X..X..o+oo+oXo..oo+++ooooo..oo##++XX",
"oo==3<11dp999ruu7857%$ XX+X+.X.X.XXXXo++oXXXXoo+++oo++.Xoo&#+oXX",
"o+11uyjjuuhh2555<<:,XXXX%%,,=========>$$@$oo+o%$*&+o..X.oX .X  X",
".+11uyjjyyhk1245<<=*+XXX%%:==*===*=&==@@$@XXoo$$;&+o....Xo.X X .",
"++13aa7798<<,,9999*:....31ittygjyiaiii0q33@+=&1177<::<<:<<$$ooXo",
"++11ia8887<<,,0999*:....11tyuyhguiiiii9013o+&&><77<:,:,>><%$ooXo",
"XX>,1198<<<177*:55O@...X6587gkttui67ii1311oo11wyttiuuuuu9q=>@@oo",
"X+>>1<891<<178*:55@O ...5587kkttyy66ia1133oX33yyqriiiuui98==O@oo",
"++$&1<&*<<$&&&OO&&++....**7776:,77673<31**oo=>yyhhyu52<17877@$X.",
"oo$&1<&&<1&&**OO&%++X...**7765::77771111*&oo=,uujhuu65<<7778@$..",
"..oXo+XX+XoXXXXXX+X+..XXXXXX.XX.......Xo.X.X<=31118888twai<<@$..",
"XXoXX+++ooooXXXXXXXX.XXX.XX+.X.X..X...oX....=>33119898wwau<<@@..",
"XX$&==&&&&$&XO**<<7715&&,:%&****@#$@;;&#oo. <::*q9ii988811**$$X.",
"XX$$==&%&&$&XO**><7713*&::%%&***@$$#;;%&o@ .:::*99iy9887<<**OO X",
"X+>>888867$&OO1198yyjj<19989yu89999rqq<1&&..%#31111<78,>$O21oXXX",
"X+><777867&&OO1199uihh1<8988uy77888r88<<&%.X$@3111<188>,$$22XXXX",
"o+11aijjui<<@O11id9997iiui88dp7789yyjj1<Oo..XX1>&$>>@@+oXo$$+oX ",
"++11iizjyu<<+O5<ii7777iiii88fk8888yyjj1<Oo..XX>>&$==$#o@XX$$ooX.",
"oo1>iyiyyy<1XX111179iudi89e81188ai6788<1Oo X..XXXoXXo..XXXXo X  ",
"o@1>uiiyyy11XX1<1197uiii77ee1187ii6799<<oo  ..XXXXXX..X.X.XX.  X",
"+@<<iu7799>>++**119789,<77129888111178&&XoX Xo&%&*%%$%;-$$OOoo.X",
"+@><aa6699<1+X>>1>9989<,791199e81<<188;*oXX.o+&%&*##%$&#O$o@oX. ",
"oo*&1<771<*=X.<<&%>,<<&*<<12&%1111=,,:#@oo..$@=>666777771><<$$X ",
"oo&&3>68>1**XX<<%%>,,<**<<11%%1111:>=,$@o+..#$<<6467767713<1$OX ",
"oo*&:;#$==XXXX%%XX$%XXO+&%%%XX%%++&;$$Xo+XX.>>87jjwyiu0w3189>1Xo",
"oo&&=*$@>*+X.X%$XX$OXXXO%*%%OX%%++;*$$+oXOX.==87jjywiuq01188>>XX",
"X XXXX..XX XXXXXXX X.X+XOXXXX XX.X..XXoX    31yyttda898799>3$$  ",
".XXX.o.XXX..XX  X   .XXXXXO$XX. ....XXXXXX  13wwwtdd8888893>@$..",
"o+$#==%%&&&&&&&$O+&%O@&&--XXXXXX$#><==@$XX..1111ff878888<111$$..",
"o+$$==$%%%$%%%%$++%%+X$&--XXX@XX$@,<=&$OXX. 1111ff8888771111$$..",
"XX><q898888888888988iiii99%&@X,>wwjj88<<$$..**1177<<88<1$@11#%o.",
"XX=<8888888888788789iaii99&-X@:,wwjj88<<@$..**1177<:78>>O@11$$.o",
"++11ytjjjjhjyuuuuuuu9ekk27<,X%22iu97kk77%$ X$$<<<:@@>>=*XX>5ooX ",
"X+<<yyjjjlhjuuuuuuuu9ekk97<>XX11iy97hk27OOXX$O<<:<@@>>&*OO>>oo..",
"oO<<ttyu77ii7788uyuu<<<<77<>XX1172999711$$XXXX$%oo##$OXo..OOXo..",
"oo1<ywyy78ii9978uuuy<11187<>XX217997991<$OXX+X@OoX##OOXoXXO$XX..",
"o+1<87fg871111ii22e8119911%&XX117211*&12XXX .X .   ... XXXX..X..",
"X+1<77gf891111ii2289<1001<%%XX2279>1*&11XXX  X ... X..XXXX.X....",
"XX>=><<<8825wt2262>>11<<1<&%@@,,<>11:,%%XX XOO-&O@@@ooOO**$$XX..",
"Xo>>1<1<89220w2227,>11,<11&%XX>>><<1:,%%XX. O+#&$$$@XXOo**$$XX..",
"XX<,<<901251tw65:>11&*&%<1XXXX@@**<<X@%%XX+X21777787ww9909,,@$X.",
"XX,>11ww12510w26>><1&&&*<1XXXX@-**<<&$X@XXXX<<667887099999<>O$..",
"XX$$11&&,,15<<5511&*&*XX&%X XXXXOO*-XXXX. ..<1rtgg099wiuii><$$ X",
" X$$11&&,:11<<5111&*&&X@$$XXXXXXO$&%@XX@.X  21rtgg990wuiii<>@O..",
"XXX$$$O+-&$%**-*X$X%XXXXXXXXX X XXXXXX%XXXX ,<<,119811<<<<$%@$.X",
" X$X&&OO&&%$****XX$XXXXXX@XX   X-@XXXX@%XX X,<<<228811<<,<$$O$..",
"XXXX+X+XXX+OXXXXXXXXXXX X XXXXX XXX.X.XX.XX O$,:>>&*::%%O&OOXX X",
"XXXXX+XXX+XXXXXXXXX X X XXXX  XXX ..XX.XX XXOO,:,>&&:,%%%&XXXXX "
};
