/* XPM */
static char *result[] = {
/* columns rows colors chars-per-pixel */
"64 64 132 2 ",
"   c #5B3023",
".  c #5B372A",
"X  c #5E3A2B",
"o  c #5F3E31",
"O  c #643625",
"+  c #693726",
"@  c #653A26",
"#  c #6B3A26",
"$  c #623729",
"%  c #653C2C",
"&  c #6B3D2C",
"*  c #733E2C",
"=  c #7C3E2A",
"-  c #653E32",
";  c #6A3F31",
":  c #713F30",
">  c #5E4133",
",  c #66412E",
"<  c #6C412E",
"1  c #7D4026",
"2  c #73422D",
"3  c #7B442D",
"4  c #654233",
"5  c #6C4433",
"6  c #6C4936",
"7  c #6D4739",
"8  c #6E4A3A",
"9  c #734534",
"0  c #7B4633",
"q  c #744936",
"w  c #7B4A35",
"e  c #724739",
"r  c #794739",
"t  c #744B3B",
"y  c #7B4D3B",
"u  c #7E5036",
"i  c #76513D",
"p  c #7C513D",
"a  c #6F4E41",
"s  c #734E41",
"d  c #7B4E41",
"f  c #755142",
"g  c #7C5342",
"h  c #7D5945",
"j  c #7D5749",
"k  c #7D5949",
"l  c #84452C",
"z  c #834732",
"x  c #824B35",
"c  c #8A4B34",
"v  c #834D3A",
"b  c #894E3A",
"n  c #835137",
"m  c #8C5335",
"M  c #83523D",
"N  c #8A533D",
"B  c #85583F",
"V  c #8A583F",
"C  c #91543C",
"Z  c #9B553C",
"A  c #97593D",
"S  c #814E40",
"D  c #835542",
"F  c #8A5542",
"G  c #845945",
"H  c #8B5A45",
"J  c #825648",
"K  c #8A5748",
"L  c #845B4A",
"P  c #8B5D4A",
"I  c #965742",
"U  c #935C45",
"Y  c #9A5843",
"T  c #935E4A",
"R  c #9A5C49",
"E  c #875F50",
"W  c #8A5E50",
"Q  c #86624E",
"!  c #8C614D",
"~  c #9B6047",
"^  c #94634D",
"/  c #9B654D",
"(  c #97684E",
")  c #866050",
"_  c #8C6352",
"`  c #8E6956",
"'  c #8E6A59",
"]  c #936553",
"[  c #9A6653",
"{  c #956A55",
"}  c #9B6B55",
"|  c #956C5B",
" . c #9B6D5B",
".. c #94725D",
"X. c #9B715D",
"o. c #A2654A",
"O. c #A46C55",
"+. c #AA6D55",
"@. c #A36E5A",
"#. c #A86E59",
"$. c #A27156",
"%. c #A97556",
"&. c #A4735E",
"*. c #AA745D",
"=. c #967262",
"-. c #9D7362",
";. c #A37562",
":. c #AB7762",
">. c #A57966",
",. c #AC7B65",
"<. c #A47C6B",
"1. c #AC7D6A",
"2. c #B17F66",
"3. c #B37E69",
"4. c #A7806F",
"5. c #AC826E",
"6. c #B48166",
"7. c #B2826D",
"8. c #BB876F",
"9. c #A78570",
"0. c #AD8372",
"q. c #AD8779",
"w. c #B28572",
"e. c #B98771",
"r. c #B58A74",
"t. c #B38C7A",
"y. c #B98D7B",
"u. c #B99076",
"i. c #B5917F",
"p. c #B9947F",
"a. c #B49082",
"s. c #B89583",
/* pixels */
"t < n q q , % y < f 5 v T 9 5 j 8 h i p J _ J y 5 f 4 o g w 5 9 2 y y c e 7 7 5 4 f J W T v * F K j v 0 | | W _ W K y ] g P ] q ",
"u i w 2 u 9 i q g f v S F y q E h k q 5 p ! v % X . e 4 p n F t T G D % 5 - , J - - g 7 9 2 F p U L g D g d 7 w 5 5 L D ] 5 F v ",
"q p q u p h L i ! g h g * q v J L J y 5 P 3.^ q f 7 J P G G T P N y & 4 . g 9 5 % 7 ; t F M y 6 5 - & 7 9 ; 2 2 y e 9 5 3 9 2 < ",
"n u n G 5 7 t e p U 0 z p y t U Y v D P ] [ q 0 y y t a L g J L 9 5 6 $ o % y 2 e r : v e 5 0 y * ; % 5 & O   & y - 5 $ @ % , 5 ",
"1 3 n M 9 5 i y y v v w q w i L D J y P ;.J 8 9 e y s d g Q k G G 9 4 p q 5 - 0 t y G v 5 6 , M : y e t J < 5 9 9 $ y y , & , 9 ",
"N w v 9 < q g 9 y v 0 2 M ! i p q p y L -.T d t J f y y i L k y L y 5 g G y 9 y L 0 r v t 7 y D K w t y t 9 , 5 e t 7 5 9 t 5 w ",
"V z x 9 2 5 9 y M t 6 w G D p u D D K w -.=.L 9 q 9 0 y y q y r y 8 7 p G g r q v 2 3 & L t M ^ L y 5 t M q q 6 t t t p p D t p ",
"n 3 m q % n 9 0 w u < w M p q G L K g ] t.e j M x 5 v g p y t y p h y p i F r v F 5 w G J y h P L 8 g q y y 9 t p i t h g t h G ",
"y w * % q 2 ] y 5 9 i q q < 6 L D p _ F t.f a p g y e d J D t G M g D y g y F x y 5 y v J p P f 6 i f 8 q 2 5 6 q f J p h i 6 p ",
"9 y w q w w 2 r q p q y 2 3 y n P P _ q.q.g y p D e r s 5 x c z p h f i g p N z v 7 e v w t G t i t p 8 Q M w u q h p H L g 5 y ",
"0 y 0 r M 3 v v y 3 9 v m M M y D j _ w.=.L d g t 7 g f p 0 v N J g 5 t t v v = 0 y 9 y & 5 y t f 8 8 w w u 2 q p Q p p p t y M ",
"K w 6 K N t r x t v 3 w 3 0 y D w d ' i.] t 6 7 g p 4 t w e 7 e q h i L t t 5 5 & 0 q 9 : 5 r y & , % % 2 6 & 9 6 i 5 0 3 % q m ",
"G J 6 w v N M v 9 q 9 2 3 # x w D y _ i.^ 9 7 y g y s f q 0 w y i 8 q n p e t t - * 9 2 % 0 y y % & 4 & & - % t G p 9 w t V $ q ",
"n , q y x v v v N T v w # w N N v x J r.2 M j 0 - & e f & L y q L 7 3 G 9 5 t j s 2 & 3 v v S < y & 9 J 5 5 - t p p 5 w M t q F ",
"w 9 M p q < y n D w w e 5 H ^ N b M w *.# n x z e 5 p w z v D y t t 9 w p 6 t 5 y w % D 8 D q i e = 5 y 5 7 h y B p 9 t 5 9 i i ",
"0 x c p y 9 q v v w w 5 n M M x v F P [ $ 3 9 v q t 5 0 0 F y F x 5 q w i t 6 9 5 y H G t f 5 9 y 5 9 % 4 t y p q p q p i h G t ",
"z 3 x n p < t i H n M 9 p 3 w w F S ( } l # 2 c D y t t v 0 9 F U 4 u p 9 t q , g p P n t w 5 6 t L t 7 7 y f p q M u 5 q p i q ",
"i u n M p p 9 3 2 y t w 2 w Z F y D ;.M w w 3 3 9 z w y y 5 & w t f t q , G G p Q p < x v p 5 5 5 e 9 y e 9 t p h g p , t q 8 % ",
"g ! D M 6 u p 3 w w t 3 w 0 l w y D ,.9 y 9 A M 2 2 * 9 w t e - 6 4 4 5 7 j L D t i 6 w 9 u , 9 5 i 9 q 9 9 D g g 8 q h p 9 , , ",
"t p q g u < < , 2 9 ! w M t t  .J =.! u < < < w , < 6 U 3 0 0 # % E i q t t G p , e p q 3 , , 2 < 9 9 0 y t y M h g f p , w w , ",
"P ^ | >.} Q 5.{ O.O.K ! y P g L Q X.} y F H ^ ! ! ^ Q C F P R T | ` ' ' X.4.5.>.y.t.5.,.5.5.r.1.[ 5.w.6.1.X.( ;.X._ ` h _  .5.-.",
"=.5.4.1.&.6.6.6.5.7.,.*.>.1.1.-.*.0.] ! ! } $.{ ] >.X.+.[ &.]  .] _ | -.;.5.r.r.w.9.>.} ) =.| {  .] D R >.,.5.2.;.0.5.;.{ &.;.>.",
"5 g y 5 & & w h K n y 5 5 9 g 7 g g 9 , % w n w < 5 > & + + & - : 6 5 p t ..{ =. .} _ Q k ;.,.;._ P P -.w j I 9 g G | g 9 t w P ",
"G ! p G ! ! G M y y q v K F P L k L t F K G t p y < 9 * + O O * % % % , L ;.<. .L g 5 5 y h y - 9 2 q q y ` F F M Q 5 9 g D p 5 ",
"L { L t t p v F C N P U G v g f f g t g _ K G ^ q h _ ] ] ~ 0 R I J e y t P :.L G j 8 5 8 6 6 % . < t X & 0 y ; * 2 , 4 y y - 5 ",
"k Q h p v G U G w P G ^ g L F g ' g d K K P I P F y G v D v M t p M 5 t 9 P q.p t p e p t , 4 % 9 q # $ B M 9 q q 9 2 F y w q t ",
"t a t g _ G H J L n v y g t M Q S s J P | g v N L y p M q 9 9 y p 7 4 5 q G 5.9 t 7 e 9 4 5 7 y 9 5 $ < 5 g 7 5 y 5 < 2 6 e 9 G ",
"t y q h P i y w K f h y p g g w g 0 K S D j d F v t y L y t y M w 5 6 5 5 J 5.g y 6 4 5 q < y 6 7 9 % & 9 y e 9 q e % 6 6 t G P ",
"f 8 f Q p 8 p D t p p y g t w t q y J y 7 d 7 9 N v D s a 7 K N w e 4 - 6 t ..g j 6 t y y e y y s 8 t - X t d d 9 , 9 h 9 4 w i ",
"a f i J h t y N r g 6 t g 5 y L P f d g 8 e d D F g 7 t i 5 x 9 t a t y 8 4 { 9 7 5 5 q t e y e e 7 P y g % 9 f p D f H g u M f ",
"g h f g G p q p P G g d t 9 y n d D 4 s s 8 j L P t g t y q q 9 t e y t e & =.D - t 5 y y g y 7 5 7 g 7 q w p g t M 8 p q w v q ",
"t t g p t w n p H L F g g & t 9 y 9 e 4 g g y J t 7 d J j t p t s g M v & & L 9 w 5 < e t d t y 5 5 t 5 , w p p 6 f g e 5 2 6 4 ",
"q 8 h 6 g p L y L X.L t K D y t 9 C D w y 7 a p t e j t y x d P t y D v 9 % ^ e 2 , p q t g J 7 p p 5 y 5 y 5 y u i p 4 4 v 7 p ",
"4 a j J g w g L P L J J p y y y D V H M 9 j 0 w L D G q y ] t y 5 y g y g 9 D 5 k q 9 D 6 G M 2 9 t 4 y p q y w G g J y S r e 4 ",
"7 k g y y t g J d D L W N y N y t y F 9 p w F b P p f 6 G g d e e - - 9 s g P y 6 , 6 < 2 n g < 5 q t q q 9 e q g f j S v e 5 > ",
"a 4 e s e t v D M P D t D D b D 0 D j g F V n n D e X t p y 9 t t t d 7 v y _ 5 , h u 2 p 2 q p 9 e 6 5 e h i q d P q y v 7 6 5 ",
"f a g k f y y t M K h j D M P p a g D 5 L p G v w 9 Q , j 8 t f s p d 9 t g  .y { G q q p 6 9 5 6 % 6 t q 5 t p k ) k e S a y t ",
"6 f k k y t y s M g L G p w 0 P d 7 p D p q G y p _ i 6 t 9 M y t j k i t t  .i u ! p u p t % 5 9 g 9 p , p 5 q g L g e e r t y ",
"e 4 g y y e e g y t P g h i F L j L G F i ! n w p p h t g y 9 q e k P y p G &.P u B M 3 i w y % 5 q q p 5 0 2 q y J q i 6 2 i 7 ",
"e y g j J y y J g y y D K L _ g P P P K G p D P 9 w t i g w q 0 H J ] G q _ ,.^ 3 ^ H w D G H M q 5 M G w 2 9 2 y D u w , 9 9 4 ",
"t p h D J G j g f D j D g _ ] 8 s E H ^ G ! U j ( V y q w v 9 p w G { D 5 F 7.G G w 3 M $.V 9 + 5 t # O # 2 * # $ y . , X , 5 < ",
"] L q 6 4 i ' h q 9 w p k 5 L J ) g G t h ! e 4 U z w p P Q 9 2 , % D 4 q &.:.{ ] J D q y ^ H V T ^ G U / P g K v D [ g p t G ^ ",
",.>.8.r.;.;.,.;.>.&.2.t.,.3.,.,.a.q.a.p.r.5.r.t.u.r.s.3.1.e.0.0.:.:.~ :.>.>.>.%./ ( $.&.o.o.} +.$.2.>. .(  .X.-.w.>.,.<.| :.} 7.",
"{ ..} ( { X.:.,.;.O.7.7.p.e.u.w.e.r.9.t.w.5.<.*.*.O.} y } P F y K F D D H [ K I ! U ^ F K w p y F v w w K M y G P P F P G J M V ",
"q q U A ^ o.[ #.( X.&.X.0.,.r.6.<.<.4.-.4.h w p P w 0 p H M + 5 5 g 6 < y q G & 2 3 3 @ # 1 O & v t ; & q 5 % & , 5 & 5 p y 2 t ",
"6 g p 2 0 9 0 F V Q ! ! &.&.w.U L L i Q h Q H Q T M w V G n 9 p g g P 5 n t 9 < q G F w # 9 $ $ D w r 2 J 9 % - & t 6 y i 5 5 f ",
"t t U G V q ( w M i G ! G 5.N H p e f p i p H n w y D L F 0 9 p V 2 t V M t < 5 n 9 K w 9 9 % 5 # x y - % 9 9 5 2 d G Q % y y M ",
"s 5 9 9 3 q B m p q G V K >.J M p j D y p g V M p L L F g y e ^ w M t y D 2 v 9 y 5 p y y w 5 q 1 * 9 0 r r * y g 9 , y p 6 g e ",
"7 j e & G M p p 6 G 6  .G 5.w q p L i n 0 p t f J M g g g j M M 9 * ; y i w q 9 7 t y y v r & ; 5 y * 2 t e 3 9 9 5 y = + * q 0 ",
"s 5 5 y K u 6 v y q w w L -.e w p g e p t q t L M F T i p t ^ 9 4 & 5 6 4 x M q 5 E y t 9 0 q : 2 9 # 0 9 e y y G t y w 2 5 5 t ",
"5 5 y D 9 H n v u i Q ! L 0.5.F t g y 2 9 9 g y D U T y ! M t y J t w & q p v 3 q D y 9 e e w v * v v 0 & q y K M F z y 0 ; y d ",
"$ r y y q y w n D F g p L  .{ P 5 9 y y y L F y e K e a L ^ G 4 j q 9 5 e e p 9 d y y 5 9 9 t M v b D y p v w b M g p w v e q q ",
"y d F y 9 0 5 0 M H N G _ t.5.^ 9 9 < g g p ^ ! p G y P J ^ D e D M 0 q y t p p L K p w b S v v w v 0 : = N 0 b p M w z t 3 < t ",
"v D M r e 5 9 v p h q t T r.q.O.G G y u w 5 w X F ] L Q ] 5 L P w * 0 w 9 9 2 h G M t v S x 9 0 b v x v y t ; y p M y v 0 9 * D ",
"b w * F M 5 p G G K t 0 ^ 0.5.%.G i u 0 3 w p 3 q P G P J p q G y 9 e 2 & , 2 9 9 q e J b 0 b c F S y F F v S S 9 w M 2 0 y w v ",
"x = $ w w M G G p n f I R >.t.O.i L M y w y q p g P K G L 9 K P ! y y e < 9 9 q 9 n M H v c C Y F : z D y y R F p x v t i y p H ",
"t 3 2 2 u M G t q 6 y M !  .t.X...L J p q u p p g F q h t q L E 9 9 q 5 5 p w P e L M V M b b Y v 0 z F S x 0 F 9 3 t y 7 t M w ",
"6 u p t 6 9 9 , t 9 G g } { 5.q.) F i w g f g p P L t i e L J t G 5 $ - e 5 p P g D 9 y y y v w w y 0 b F w c F q M v 9 D t v y ",
"y p G y q t e p F f g G P ] ;.t.-.X.p y p g j J n 7 i g t F g g q q 9 7 q g ^ M J x v y t 0 3 x v 0 0 e v x c b 9 q 2 y 0 r q r ",
"p q y 7 M w 7 g 9 6 y t P g t.w.<.j p g p N M M p t _ D p p d s 7 9 y 8 M u U v D V P 0 t v c x G 2 & = z q r d 5 5 v v S v w w ",
"p y p n g y e y 5 7 t y _ _ { 1.j D d D M J p t _ J ( f f y a - g y y t y A q b ^ D x v z C z l * : + = 0 0 & y w y w 3 y 0 w * ",
"y t p 3 ] G q 5 & g D y 1.&. .q.T ] ] G y 9 w | P t L t y s f t y 0 e y D F J y t K r F c 0 * * 0 v 0 $ : % ; S p n 9 = v y y M ",
"q 9 F D p g M 0 d 9 5 g J P i.t. .[ ] 7 ) ;.w.( y & P _ _ E W P 9 0 # # 2 9 q D d S d C 3 l = v * e # z * e w 3 M 0 O * 0 b w w ",
"6.5.u.w.&.:.@.7.0.-.;.&.>.1.1.1.5.0.q.t.q.;.<.0.w.r.&.-.>.s.t.>.1.$.P O.1.@.6.7.3.>.1.e.:.+.#.3. .&.:.,.#. .@.,.:.*.:.*.&.#.:.,."
};
