/* XPM */
static char *result[] = {
/* columns rows colors chars-per-pixel */
"64 64 30 1 ",
"  c #262414",
". c #292615",
"X c #2C2916",
"o c #2F2B18",
"O c #332B17",
"+ c #352D18",
"@ c #382F18",
"# c #36301A",
"$ c #3C321A",
"% c #42361B",
"& c #46391D",
"* c #4B3D1E",
"= c #503F1F",
"- c #4E3F20",
"; c #503F20",
": c #4F401F",
"> c #51401F",
", c #4F4020",
"< c #544221",
"1 c #5A4622",
"2 c #5D4924",
"3 c #634D25",
"4 c #684F26",
"5 c #675027",
"6 c #695127",
"7 c #6B5329",
"8 c #71572B",
"9 c #735A2C",
"0 c #795E2F",
"q c #7D6232",
/* pixels */
"..++@@+@+++++@++XXXXOX..X..... ........   . ..  ...X..X.        ",
"..++@@@%+++@@%%@+++@+OOXOooX.. ..  ..XX..X...XX XXo.XXooX.....  ",
"XO&*4448113131907774671174331<OO.o-%--<,<<<<,,,,,,,111112322%%  ",
"X+**44471222338977464721433311+O.O--,,1<<1121111,11111112211--  ",
"XX==33==2333;14334641186<;;;--++  ;*3511337776q032223357,,1,%- .",
".X**33==1<44;13434681164;<1<&&$@ .;;551<3388760032233355,,<,%%  ",
".X***&3335<<<;-*;1;1333333<2<<$$  *-;;&&33327822,,7753,11<,,%% .",
"..&*&&3335;<;;**1;11333333<;11$$  *--*&&33137722,157531,-<,,%%. ",
"XX==;<11;-<<;;<1<;<<--21-*-<-$$$  *-2122<,11---*2233;;1><111$@..",
"X+==1;11;*<;-;<;;;<1&*11**<<$-++ .&%22211<11-,--2223*=11<111$@. ",
"X.%%*&;;<<21<<-&<1*-&&****&&-%++  @@<,-<11-%<,<<-*****11%%%%$@  ",
".X%@&&<;<<22<<*&<;&&*&**&*-%--OO  +$-<<<<<%-1,<<*-&&**==%$#$@@..",
"XX%$++++%$%%O@@@@$$@@+$%@@@@OOO+ .+@$%%$###+&%-$%%$$%@%%%@%%XX..",
"XX@@OXO+$$$$XO++++@+++$$++@$ooO+. ++$$#+#+#O%$$-$%%#@@@@+@@%X.X.",
". .        .  . ..............XX....X.. .  .X.XXXXo.   .....    ",
"..                        ..  ..X.......  . ....X....     ...   ",
"OO&&******&&$&.X$%*-*-*&&*-,-&,,<<&&*-*&%&%$$$. %%-%&&,&,,1<$$oX",
"O+*&****:<,,%%..%%*<<,*<*-<<,--,<1-&-***&&&-%$..%$&,,,,-,,11$$.X",
"O#12343535:*#$. -<33<<353363**9955<,77662132&&.X-*2257215512,,oo",
"##12336633**@#. *1631<535332&&76251<65681112%&XX*,2255225523&,oo",
"+#1133=>**>>$$X.-;335335<-*<&*23,,1<637722*,*&XX**112322**:,-,oo",
"O@>>23>=*&1*%#X.*-223323<<**=>>2,,1<357732:**&..&&113212*&*,&&XX",
"OO=**=1<1***$$.X**5335,<=>11>>>><122331<,-1,$%..&&1111&&&*<1%%XX",
"oo*&*&>11<&*$%.X**3255,-<<12><>><12253<<**1:%%X.&&1>1<&,*&<<$$XX",
"oO:,>:11:&:&$@..&&<,<<11<<11&&%&-&-&-*1<&&=*&%..&&==&&&&*&%%&&XX",
"oo*:>*<<&&:&##..%$--,,111<<1&%&%&&&*&%;<&&**%&. %&**%$&&*&*&&*XX",
"Xo$$$&$+%$$$#$ .##%$%$*&&&##$$$@&&$%%$%%$#$$%%  @$@@@@$$$$#$@@X.",
"Xo$$$%#+$$$###..@+%%$$&%&$##%$$@%%$%$$%$#@#O$$. @@O+@@#@#+$#OOX.",
"...X... X...... ..XX.XXXXX   .........X..... .  ...   .   ..    ",
"X .. .     .  .. ...   . .        .... ....      .         .    ",
".X&&:&:&&*&*&&:***%&&*&*%&$$  $$&&*--*%*&&&&&&*&&&>><<&*&&&&*&..",
".X&&&:::,,,*<,,,<1*:****,*$$  $%*-;<<;*&:*&*&&*&&&1112--,****&..",
".O>29777807745117733664411%%  =<53<<567622477711*&11>333=>33==. ",
"XO2>89748866341>67>3446431%%..<;33<1337632777713=*3>33331>31*=. ",
".X==774311117821>>33>>3313$%. **221<*-3333>1111267>>**>>=1=1*& .",
".X*=32131111881>>>46>>>>32%%. **3211<;3344<>112264=1&&>=>>11&&..",
"+O&&<<><<>2355*>>*==>3==&%&%..**==&*<<<><><<121<1111&&&%>=>1$$..",
"OO&&;<<=111232>:***&4>&*%%%%..*:=*&*=<<>=*<>12><<<1<&%%%>1>>$$.X",
"XO&&11<1<>>1>>:>&&&&**&%*=%%..%&&&**==11**<>=*>>**<<11&&=*&&$@..",
"XX$&<=11===*&*::%&%&&%%%*=$%  %%&****;11******1>*&<>1<*&*&&&@@. ",
"..+@%%&%$$&&%%$%%%@@O@$$%$@@. %$&%@@%%**&&%$&&*&$%&&%%$%%@%@@@..",
" .@@@O$$$+$$$$$$@$OOOO$@$$@@..$%%%O+$#%&$$%#%&&%%%%%@@$$@+OOO@..",
"..X . XoXXoXoXX.........XX......... ..XXX.X.XXXXXooX..X.........",
".......oXXXX.... .    ..XX.... ..  .. ..  ...... ....  ..  . ...",
"oX%&$%&&&&%%%&*:&%$@..&&&&&&&&%%%%&&**%&&&&%$%$@ .$$$@%$$@%%%%. ",
"OX***&&:*:&&***>::$$  %&=**===%&%&**=*&&****&&#$..&$$$%$%%&*%% .",
"++54>>553225>5>4*:&%  *:43337474224333>:3353,***..>>33463>3>*=..",
"##68>>56332>325>::%%  **333377773234651<3336,<**o.1>43643323&*.X",
"OO23233432>>>*=>==&%. &*=>3313;15533<<>15342>3*&..**>2>>>>>>&$  ",
"oO1122>333>>>:>>==&% .&%1=1311;;3333:<:>5436>>&%..&%>22>3>>>%% .",
"oo::::**>>>2>1>1=*%%..%%**==34>=21*:<:11>>3>4>%$. %&>2>>>>**%&..",
"Xo&::*&%>>>>1>1>==%%..@%**&*333>12**::2>3>>2>3$%. &%>>>>3>&&$%..",
"XX&%&%&*&*<1&&><%%%%  @O=>1=1;*%**==>1<1>>>>%%@@..@$%&:**:1>$$..",
"XX$%$$&&**<<%&11%%@@  %%11====&&&&=>1<1<>>*:%%@@ .O@%%*:**>>$$ .",
"..$%**%&&&&&%&&*&*O. .@%&&&&*&********1>%%&&&&@O  O@&&::%%%%$$..",
"..$$:&%&&&$%%&&%&*OO .%O%&%%&&***=&*&&>>$$&%**@@  O@*&**%$%%%@  ",
"  %O@@@%##+O++%%OO.   O%%%%@++@@%%@O$@%%@%@@@OOO  @O#@$#@O@@#@  ",
"  OOOO@%O@O.XO@@OO.O  OO@%@@OO@+$@XO$@@@%@O@OOOO .OX@@@+OXOO@@  ",
"    O.        ..      ..XXXX....X.. ...... .....  . .......X.   ",
"    ..                     . ..                      .  . .     ",
" .%%%%%@OO@%@@$@O@@O@@%%%@%$%%@+@OO% ...%%%@&*&%@%%%%%%%&&@@@@..",
"OO%%&%%%@O%%%$$%%%@@%%@%%%%%%%%%%%%%....%&%%==&&&&%%&&&&*&$@@$X.",
"X.OO%@@OOOOOOOOOOOOOO@@@%@OOOOO+O@@@X.. ++@@&%%@%@@@@@$$$%@@@$. ",
". OOO%OO.OOO.XXXOO..OOO@O@..OOOOOO@OXX. X.O@@$@@O@OOOO@@$$@@@@ ."
};
