/* XPM */
static char *_f6730474a234b4ed49ec2c1babdbb3e7hcSGRxFc1Lvf6aA[] = {
/* columns rows colors chars-per-pixel */
"64 64 178 2 ",
"   c #43271E",
".  c #48261F",
"X  c #47291E",
"o  c #4B2B1F",
"O  c #462C22",
"+  c #4C2E23",
"@  c #512E23",
"#  c #4D3225",
"$  c #4C352A",
"%  c #533325",
"&  c #5B3426",
"*  c #533827",
"=  c #593A27",
"-  c #543529",
";  c #5B3629",
":  c #543A2B",
">  c #5C3A2C",
",  c #5D3C31",
"<  c #613427",
"1  c #613A27",
"2  c #61362A",
"3  c #633D2D",
"4  c #6A3D2E",
"5  c #703E2E",
"6  c #643E31",
"7  c #6A3F31",
"8  c #713F30",
"9  c #5D422E",
"0  c #5D4333",
"q  c #64412E",
"w  c #6B422E",
"e  c #69482E",
"r  c #71432F",
"t  c #654332",
"y  c #6C4432",
"u  c #664936",
"i  c #6D4A35",
"p  c #674D3A",
"a  c #6D4C39",
"s  c #734533",
"d  c #794634",
"f  c #744A36",
"g  c #7A4B36",
"h  c #734739",
"j  c #744C39",
"k  c #7B4D39",
"l  c #6E503B",
"z  c #745037",
"x  c #7A5137",
"c  c #75523B",
"v  c #7C533B",
"b  c #74583E",
"n  c #7D5A3E",
"m  c #755440",
"M  c #7D5641",
"N  c #775840",
"B  c #7C5A42",
"V  c #7A6043",
"C  c #804D37",
"Z  c #814E3A",
"A  c #815137",
"S  c #83543D",
"D  c #89563E",
"F  c #835A3E",
"G  c #8A5A3F",
"H  c #8C603F",
"J  c #835641",
"K  c #895641",
"L  c #845B42",
"P  c #8B5C42",
"I  c #845D48",
"U  c #885F48",
"Y  c #905D44",
"T  c #856143",
"R  c #8C6345",
"E  c #8C6846",
"W  c #856249",
"Q  c #8C644A",
"!  c #8D6A4B",
"~  c #916346",
"^  c #946A47",
"/  c #936549",
"(  c #9A674C",
")  c #946B4B",
"_  c #996D4D",
"`  c #95714C",
"'  c #99714D",
"]  c #8F6D50",
"[  c #946C50",
"{  c #9A6E51",
"}  c #8E755B",
"|  c #8F7D5F",
" . c #967252",
".. c #9B7353",
"X. c #927A53",
"o. c #9C7A54",
"O. c #91755D",
"+. c #937D5E",
"@. c #987B5D",
"#. c #A27952",
"$. c #8A7A61",
"%. c #937761",
"&. c #937C62",
"*. c #9A7D63",
"=. c #A37F64",
"-. c #96815F",
";. c #8E8161",
":. c #948263",
">. c #9B8466",
",. c #9A8867",
"<. c #948668",
"1. c #9B8569",
"2. c #9D8A6A",
"3. c #9E926F",
"4. c #9E9070",
"5. c #A38466",
"6. c #A28A66",
"7. c #A88F67",
"8. c #A4856A",
"9. c #A38C6C",
"0. c #AA8C6D",
"q. c #A4926D",
"w. c #AC926E",
"e. c #AD996F",
"r. c #A48E71",
"t. c #AD8D71",
"y. c #B28E73",
"u. c #A49372",
"i. c #AB9572",
"p. c #A59972",
"a. c #AC9B75",
"s. c #AC9779",
"d. c #A69A79",
"f. c #AD9C79",
"g. c #B19574",
"h. c #B29B75",
"j. c #B39479",
"k. c #B9977B",
"l. c #B29C79",
"z. c #B99E7C",
"x. c #ADA076",
"c. c #ADA27B",
"v. c #B5A07B",
"b. c #B7A37B",
"n. c #B3A57A",
"m. c #B4A37C",
"M. c #B3A67E",
"N. c #B6A57F",
"B. c #B9A47D",
"V. c #B3A97E",
"C. c #B8A97E",
"Z. c #B49F80",
"A. c #B7A681",
"S. c #B9A481",
"D. c #B3AB81",
"F. c #B4A881",
"G. c #B6AB82",
"H. c #B7AE81",
"J. c #BAAA81",
"K. c #BAAD82",
"L. c #BBAF82",
"P. c #B7B187",
"I. c #BAB182",
"U. c #BAB583",
"Y. c #BBB184",
"T. c #BBB187",
"R. c #BAB586",
"E. c #BEB886",
"W. c #BCB288",
"Q. c #BCB588",
"!. c #C1B084",
"~. c #C4B987",
"^. c #C0B388",
"/. c #C4B38B",
"(. c #C4B68D",
"). c #C4BF8D",
"_. c #C5BD92",
"`. c #CAC793",
/* pixels */
"a.x.n.h.i.k.8.a.l.>.5.5.0.N.I.u.J.n.`.a.a.a.v.L.!.h.M.c.a.c.v.l.N._.R.F.i.i.f.D.^.A.f.3.F.(.W.i.R.f.l.Z.O.*.*.q.2.a.r.0.h.a.a.u.",
"d.n.0.t.w.w.e.7.+.:.>.5.1.q.n.u.M.D.Q.L.i.F.F.J.z.J.u.v.a.c.H.H.U.a.c.Y.9.u.4.c.r.l.i.a.l.r.g.l.c.l.g.t.9.a.l.2.2.a.2.a.-.g.9.9.",
"B I c L E Q ` )  .Q U Q ! E ^ E { ) Q T R [ [ L W E ) E v  . .Q E W E n S.1.l Q Q c I L U R ~ E m n x ~ R ~ Q Q Q Q Q L L c c B ",
"j c y S o.! B W f J K ~ E R S h ~ L x k n S S P P ~ x v P ) ) v I R z f L.N.# i F i y s K S J y , k P / ~ ~ x n c v v g v S c N ",
"i j k n n v k j c x E i 3 i g s k i t G g w F P c k S ~ ) _ J S E L S v 9.a.j f q 3 > h k g 4 > y Z P J S s 3 q 4 s S Y J S i 6 ",
"k _ ) R i a j i L ` ^ G t x 4 4 g P S A h g K P J v f A x E P P U S 3 g | <.y k g g Z 3 q 4 % 3 k E R g t y % % y j v x v J G k ",
"P ) n S k 6 s k ) E R k g f v 4 g d g g y S y s G f > f ^ R S ~ v s 5 ; <.;.g P k h > - 4 k y v G ~ g f > > t 9 w s q y k k L A ",
"~ n P L g 3 4 d S L R g f ~ Y k g S L d t S k f G D s k R ) y L h k F s I.a.f 3 s k > y F G P L ~ ~ F v > = % ; 3 k q = Z d s = ",
"k / / K j g j k s P R q g S s g g g U y g ) S Z r f y L R L g J n g k s u.d.7 % s n 9 L L ' ' n k c P g h ; - # # > f F A k y = ",
"g q S k U c F 3 7 f F w k y g P g S P k J E L j s w 3 G n t ~ ~ S 4 4 > 1.d.6 y g P S  .! x c y y n L F P y i t k ; d G k k w ~ ",
"g x f P v F ~ v g i k L y A g S P y g J t i s v v w w f L i y x g ; s g q.0.S s k S R ) L 4 i w S s v F i D k g k > y G F s v S ",
"Z 7 + d S k x g Z s k y f S S P h > f k i i % s P F a j j y w f y q d 4 1.9.d > > A f x q d P y g t = 3 k f y = 7 y 6 v n S s d ",
"d s k d k Z S w 7 v t = y f g k g k f k L t i f P ~ R P s g 4 ; f y k w a.c.a O 4 f x s > s k k g 7 s g k 2 y y s y v g i k D s ",
"g v f x d 3 y r y j > g P f g g j k S s G y j g k ~ P c k 3 > # S = c < h.f.+ 3 w x g w 4 g Y F g s g g g 3 > > g F E S s = f k ",
"R R L A g A y d S f j y H k F U F t x k y k s v P i n k g 4 s t g 7 g & B.u.% 3 f F f s Z D D g 4 d S y k y y y G ' T R g s f v ",
"R ' G d P S q > y y L f x f g P f i i t y k K i F J j y 4 g d 4 s Z g s M.h.+ 4 g f d y g 6 = 2 s d g S g g g y ) ^ E k S ; f v ",
"y v g d ( ~ w * > y n y q v n G ~ j i f h h v P F x t y S g D S R f g k N.N.s s R T / D d t + + d P E A y y Z v S g 4 k K P R y ",
"y f v F U h i h i s y t 4 3 j P k J f P P k P R R K y t j L g S E y k & 9.q.~ G L S s f Z k > s x G T c k k y F y 2 y g c P E c ",
"i y S c L v R f v v i f S B i P y c k L E T c R v v h t v ^ _ P g t y i l.q.P P v 7 Z g ; A ~ L v 4 T J n P n v s & y ~ ) n a t ",
"g h y I Q T L v A t a F F G y f f c y k L F a k k t g K i v P y s d v x a.a.n k Z y 6 y i v G c % g f L ~ P P P d > g R ~ c i y ",
"g g f E E L B h y 7 k ^ F s % 6 F c i g F i i h s f f c c c > t s 2 z x u.d.R n S s > t x G J S k P J / S P R j k g y R L x n y ",
"y J n c G J , L y i j F G = 4 3 z n v s S y i t j P L y L S t y 3 = L i u.u.v ..f 3 - > i ~ P v L L R 6 y v L P h R R f n c j h ",
"F v R v P t - y v n v P n Z 7 f i ' S k F g k J K P v g v w q s i y i 7 f.P.R  .a $ y 6 S g S E E L v S k R Q f c n f i Q v f t ",
"J R y i t $ 3 h x n F f i t f j x A j i j g k J k g f f t > t y T L i > a.c.U h y S y i F f ~ B ..Y h P B L c a i a n ~ ( x L v ",
"h i t i y x v x M t L f - h c i s d 6 > * i L P s P k S j t i n n F i m c.u.k ; k I S f f f c M J M S L T t t i i i i F n L c s ",
"4 s f i g f y x v y v P y - v y y g y y a L R / s s 4 v g ; v F f v P R 3.F.O y P P R R n t q 6 i i E n F k > 6 y q n x x n P 4 ",
"j m u c J j a c m c J c a u N I a l c I ] ! E m n c i v c c J v L J c y q.a.0 J Q I Q Q c : $ > t j N c v 0 : J a 0 b I j M R M ",
"g.8.i.q.2.i.0.>.:.6.w.a.h.6.q.c.0.a.2.q.c.9.9.*.i.>.9.a.c.9.,.l.i.n.l.q.a.a.1.*.d.s.F.M.S.k.w.8.i.q.f.N.l.1.i.@.} 9.i.0.=.w.P.I.",
"j.B.q.3.,.l.v.9.6.h.n.u.,.0.i.w.0.N.p.q.n.f.i.%.O.q.x.a.,.2.+.q.q.a.!.l.m.c.1.2.4.N.c.A.0.i.a.&.:.a.8.S.z.f.q.} >.q.9.+.h.h.c.f.",
"Q ..E o.o.L B ) ! ) ! E Q j.t.u a W ! T W m u L W  .X.! I E W T o.[ ^ R ] Q Q ....[ ! B a !  . . .Q 5.6.v v E ) .. .)  ...I [ I ",
"P )  .S U J M R J i J c v g.w.k i L v A S , > j P v R L T F i R ~ E ~ / R U L ) / ( J k R o.^  ...R 2.v.e s k k P ) Q n / P S F ",
"v K x P S ~ P F v f Y f = i.w.y P P k : > 7 i k g s A f F g v u P j y d 6 j R c k k M J P E E R c j B.!.d 4 S S g D x n k S k y ",
"P v P k S P J k S R K t 3 9.,.t i K y - , 6 4 F ( S k S 7 F F x k h > y Z f L L x j _ ( n 4 k h j J a.B.d g P K P ~ P j g k D s ",
"k S ^ ~ S g K k g U y 3 & q.:.s > > - t 6 = a f ~ v g A x f j S i S i y d K A U R d K L x k P k j k L.L.s A L P j P f t i y d S ",
"S g x K S y h K k y k k k a.q.4 > t 6 S K t n R R d s d i F A g s y i f y G P P w v v F S S A g A F H.M.7 g ^ f Z i s y R i g S ",
"g d D g P k h s 2 y s R ' i.i.6 > y 3 q R k x x i A y 3 t f q 4 O w g R v s v i f R ' G P i 4 g s 7 N.f.7 K P v y i k F R ~ P k ",
"d y k Y R B Z d y y f v v a.$.> h g f ~ E g y q d 4 2 ; - 3 y 3 2 n v x > F R x c L f f k y 3 g 4 ; i.0.+ S ) v i J n v #.f Z k ",
"S k P / K P c g k d t i y m.f.J n x j P ) S k k v y @ - O , j S v ) f > 3 P E v L v t y 4 > = y 2 3 i.1.3 ) ) P f n x d s 4 y D ",
"F t P P L v j s g % k 3 y i.,.J P R = j v h d d y - 2 6 % 4 y S n L ( i k V T v n J j 6 d d S 3 y f r.&.f v k y k R Y g > 4 4 s ",
"R ' / S P K g g d S R s y 5.} S v E j J v d s Z > g f i d > y j F y P P P i J v P ~ h k h i G D g k d.a.s x y > 4 v g F y y 8 4 ",
"T ~ A G P g g q ~ F R s 2 h.a.f S P j u j v f S ~ ~ S ; Z k f F g f F f g k d S P U v L v k k G y S F.h.3 k 4 > w A G i w y 4 4 ",
"A G g K S S S y P f E F 4 A.1.> g s s t t ~ j > d J s y y 4 P L y h g y n P F x P R g F g / f 6 Z d L.n.S k y q t k E P 3 s # k ",
"D D Z g g S / f k s E k y d.6.o S w ; > d Z y 7 6 K k y y - d F h j n R R R L x f P d f k / i s y d M.a.v g s 9 y 4 P d 4 2 y D ",
"f c g A q P x k y y ~ J d F.H.y k > ; > d - > = > P K s y y y 4 F T v e R R y S v 3 y f a s h k A P Y.).c L q k 3 s y k y 4 g D ",
"y f G P F f G k s g q f J L.c.G g > @ ; g 3 , t i k k Z i v s v ` n u L P x G P k g y k y A k j _ P Y.a.i j % > g 4 7 y g d q 2 ",
"L g k E G g t k y t f P ^ L.i.A g s - 7 > Z k K Z d 4 g Z t y k x t f 3 4 F r K P P d K k A q x ^ k 0.n.t - > k 4 ; 4 y q 3 g w ",
"v s g z t > y y y y F F L u.1.; s 4   2 > y y S D y s y k 3 f P g A S k d y g w K y S _ R ..d s f L 2.N.> t t k k w F ~ g 3 d A ",
"J M J J n 0 u a I Q Q W i i.9.j c j j n p v p u : t h M L a L m k J J c h i 0 i c M Q W ! B i > : j u.a.: u 0 u I B N I i t I J ",
"Y.J.Y.M.i.h.,.6.V.a.a.n.a.0.I.u.M.1.q.1.i.l.C.8.9.i.N.i.a.N.a.h.j.c.M.l.,.i.f.l.u.c.i.W.N.u.B.h.L.h.n.w.=.q.w.9.I.Y.c.P./.L.i.n.",
"a.B.i.L.9.i.h.p.a.v.v.>.N.l.B.m.f.9.v.i.B.k.g.5.0.a.f.a.L.H.p.J.N.F.L.M.a.c.f.c.V.a.^./.j.F.i.f.L.w.~.h.6.n.a.7.2.a.f.g.l.f.>.a.",
"F P [ ..! a ! ) P J *.5.R R I ] Q R [ [ I L B J N B ~ c / o.[ U c L E Q I F u.d.n I [ / [ ) ) [  .{ W J E ! R I I Q I J ) { P n ",
"& k P P L P J / F P a.L.( v U / K J P F U K k f v h S Z S k S g h v K Y S f p.E.j j Z c R P ~ P / R E L c v P F S S J i _ ~ ~ ~ ",
"2 s A k L S k f i v p.a.L R k s d v ) U P v > k t % ; d d 4 g g h k M K > S c.M.j F k c P g S k v 3 y q % k > g d ~ k F v y j s ",
"; y g g f G n L q S c.m.v U R ..J ~ _ S K R ~ P y # = h s j P S S P P k g k h.u.f v k k S k k j k A q 3 k t i = g x S S 4 s S g ",
"C f k y s S A v P 4 c.l.7 y j E j J x 7 d y S S 3 > = 2 k J z c k P k s y 3 9.J.4 S > 7 t i f c ~ s 2 s y i k y q y -   O 4 3 w ",
"4 s v = % % > i 4 2 Y.i.> g v L 3 v Z - y t A g g % 9 i x f n B s n = 3 ; ; 0.0.> s > > i v n L f v S D g 4 4 - - t % X > # f 3 ",
"> y f f # @ f f 4 ; l.f.; i v h k L d k g - x k i g e q f R f g h y 4 - 3 s 2.2.- t h s f G T R P s g s 4 % g g i g 2 2 w w y f ",
"e x w e O = q g g % a.i.; > 3 h G n y v f w i F g g w G S g F f h y % y w g ,.q.g y q f ~ g s 3 v y s i ; ; d f A > 2 d y d # z ",
"q 1 w 4 > 3 A s y @ 0.g.3 k S ~ A t f f i Z g y k d 4 k S S F g y 7 4 k v x &.:.; 4 y x ~ d > t g 4 3 3 3 > g Z 7 + ; s s 4 s f ",
"s r y s 4 k g f 4 o j.t.. y P f s y v k 3 x % f i g A 4 = v L g > 6 g R f f &.i.O g y g g P a S y 2 ; y = s 4 % ; ; y y s D f G ",
"q > S s t k i i - & y.j.& Z 4 s - d A y > y i 3 y s K v t s g w s k L f s s 2.s.4 y y j g d s S g i q > = i h ; 7 3 3 = 3 x v g ",
"t f s y q g x t ; & 0.+.# q % y x g k g 3 f Z f * f k G c 3 % g ) _ A g 4 4 w.z.d C - y f j f v S 3 O t i k y y s 4 > 9 v q i v ",
"n # y s - 4 4 6 % @ 8.9.q # - y A s s 3 3 > S P 3 % h v g k t v s S d Z g k h.a.w s # y S x y i f 4 4 = 4 f 4 > t y w > q i q y ",
"h t k v > : $ , t , 8.*.> > 0 > y i a u i x R P i M j i j J c c c v v j R K N.f.i a a Q ) L M t y j 6 a a p m z n J v i u 0 0 0 "
};
