/* XPM */
static char *result[] = {
/* columns rows colors chars-per-pixel */
"64 64 5 1 ",
"  c #332C25",
". c #464646",
"X c #040404",
"o c #2B2B2A",
"O c #5B5B5B",
/* pixels */
" ............................. XXXXX   ...o.....................",
"...o........................... XXXX ....o......................",
"O..o....o......................  XX  ....o......................",
"..o.....o........o......oo...... XX ....o.......o......oo.......",
".o.....o...O....o.......o....... XX ...o..O.....o.....o.....o...",
"o.....o...O....o.......o........ X ...o...O....o......o....o....",
"o....o...O....o.....O.o..O....o. X ...o..O....o...O...o....o....",
"....o....O...o.....O.o...O...o.. X ..o..O....o....O..o....o.....",
"...oo...O...o.....O.o...O...o... X ..o..O...o....O..o....o.....o",
"..o....O...o....OO.o....O..o.... X .o..O...o....O..o.....o....o.",
"..o.......o....O...o...O..o..... X ........o....O.o.....o....o..",
".o.......o....O...o....O.o.......X .......o....O.oo.....o....o..",
".o.......o....O..o.......o.......X ......o....O.o......o....o...",
"o.......o....O...o......oo.......X .....o.......o......o....o...",
".......o...OO...o......o.........X .O...o......o......o....o....",
".....oo........o.................X .O..o......o......o.....o....",
".....o........o........OOOOOO... X .O........o..................",
".....o................O.......  XX  .OO........................ ",
"....o..................        XXXX  ..OOOOOOO............      ",
"   ......                XXXXXXXXXX                         XXXX",
"XXXXXXX       XX  XXXXXX         XXXXXXXXXXXXXXXXXXXXXXXXXXXXXXX",
"                XXXXXX      .....  X .......              XXXXXX",
" ...............    XX  ...O....... ......................  XXXX",
"................... XX ....O...o.......o................... XXXX",
"................... XX ...O...o.......o.....o...........OOO. XXX",
".................... X ..O...o...O....o.....o........o....O. XX ",
"...............o.... X .....o....O...o.....o........o....... XX ",
".....o........o..... X .....o...O...o.....o.O......o........ XX ",
".....o.......o...... X ....o....O...o.....o.O......o........  X ",
"....o.......o......    ...o.....O..o.....o..O.....o....O..o.. X ",
"...oo......o.......    ..o......O.o......o.O......o....O.o... X ",
"..o.......o........ X ..o......O..o.....o..O......o....O.o... X ",
".o........o......o. X .o.......O.o.....o..O......o....O.o.... XX",
".o.......o.......o. X .o......O.o.....o...O.....o.....O.o.... XX",
"o.......o.......o.. X o.......O.o.....o..O.....o.....O.o..... XX",
"........o......o... X .........o.....o.........o.....Oo...... XX",
".......o.......o... X .........o....o.........o.....O.o...... XX",
"......o......oo.....X .O......o.....o.........o......o....... XX",
".....ooo............X .O.....o.....o.........o.......o....... XX",
"................... X  .O....o......................o........ XX",
"..................  X  ..OOOOOOOOOOOOO....................... XX",
".................. XXX  ....................................  XX",
".   ............. XXXXX                ...................   XXX",
"  X               XXXXXXXXXXXXXXXXXX                        XXXX",
"XXXXXXXXXXXXXXXXX           ......  XXXXXXXXXXXXXX     XXXXXXXXX",
"XXX        .      ..................   XXXXXXXX ...........    X",
"XX ...............................OO...  XXXXX ....o........   X",
"  .......o........oo....o........o..O.... XXXX ....o....o.....  ",
" .......o..O......o.....o........o...O... XXXX ...o....O....o...",
" ......o...O.....o.....o...O....o.....O.. XXX ....o....O...o....",
" ......o...O....o......o...O...o.....OO.. XXX ...o....O....o....",
".......o..O...oo......o...O...o......O... XXX ..o.....O....o....",
" .....o...O...o......o...O...o.......Oo.. XXX .oo....oO...o.....",
" .....o..O...o.......o...O...o......O.o.. XXX oo.....O....oO..o.",
"X ...o..O...o.......o....O..o......O.o.... XX ......O.....O...o.",
"X ......O..o.......o.....O..o......O.o.... XX .....oO....oO..o..",
"X .....O...o......o.....O...o.....O.o....  XX .....O....o.O..o..",
"X ........o......o.....O...o.......o.....  XX .....O....o.O.o...",
"X .......o.......o........o.......o....... XX ....o....ooO..o...",
"X ......o........o.......o.......o........ XX ....o....o...o....",
"X ..............o........o.......o........ XX ........o.........",
"X  ............o........o................. XX .......o........  ",
"X  ...................................... XXXX ......o.......  X",
"XXX ...................................   XXXX .............  XX"
};
