/* XPM */
static char *result[] = {
/* columns rows colors chars-per-pixel */
"64 64 110 2 ",
"   c #0F0A05",
".  c #14100A",
"X  c #1D160E",
"o  c #261F16",
"O  c #262219",
"+  c #2A241A",
"@  c #2E2A1B",
"#  c #322C1D",
"$  c #343019",
"%  c #38331D",
"&  c #352E21",
"*  c #363123",
"=  c #3A3425",
"-  c #3D3926",
";  c #3D3629",
":  c #3E3929",
">  c #413D27",
",  c #40372A",
"<  c #433D2C",
"1  c #453F30",
"2  c #46402E",
"3  c #474231",
"4  c #4A4433",
"5  c #4E4936",
"6  c #4E4A39",
"7  c #514B37",
"8  c #534D3B",
"9  c #56513D",
"0  c #59533E",
"q  c #575340",
"w  c #5B5542",
"e  c #5D5944",
"r  c #5F5C49",
"t  c #615D46",
"y  c #635E4A",
"u  c #606047",
"i  c #65634C",
"p  c #69654E",
"a  c #67684E",
"s  c #69694F",
"d  c #666350",
"f  c #6A6651",
"g  c #6D6B53",
"h  c #6F6C59",
"j  c #716D56",
"k  c #726E59",
"l  c #6F7056",
"z  c #717157",
"x  c #74735B",
"c  c #79755D",
"v  c #76795D",
"b  c #79795F",
"n  c #777360",
"m  c #7A7661",
"M  c #777860",
"N  c #7C7B63",
"B  c #7F7D68",
"V  c #817D65",
"C  c #817F69",
"Z  c #7E8165",
"A  c #7F8268",
"S  c #828167",
"D  c #84836B",
"F  c #89866E",
"G  c #86896D",
"H  c #898A6F",
"J  c #878670",
"K  c #898671",
"L  c #878A70",
"P  c #8C8B73",
"I  c #8F8D78",
"U  c #918E76",
"Y  c #918E79",
"T  c #8E9176",
"R  c #8F9079",
"E  c #919177",
"W  c #94937B",
"Q  c #99967E",
"!  c #96987E",
"~  c #99997F",
"^  c #979581",
"/  c #999782",
"(  c #979980",
")  c #9C9B83",
"_  c #9F9D88",
"`  c #A19E86",
"'  c #A19E8A",
"]  c #9FA086",
"[  c #9FA088",
"{  c #A1A187",
"}  c #A4A38B",
"|  c #A9A68E",
" . c #A7A88F",
".. c #A9A88F",
"X. c #A6A491",
"o. c #A9A692",
"O. c #ACAA93",
"+. c #AFAF9B",
"@. c #B0AD96",
"#. c #B3AF99",
"$. c #AEB09A",
"%. c #B4B19B",
"&. c #B8B49F",
"*. c #B7B6A2",
"=. c #B9B7A1",
"-. c #BCBAA5",
";. c #C2BFAA",
":. c #C5C2AD",
">. c #C6C5B0",
",. c #C9C7B2",
/* pixels */
"4 4 < < 1 1 4 1 7 1 , 1 6 6 7 1 , 4 7 2 , > , , % , , , 1 , , % % % & & & , , , , , , , 4 1 , , , % & & & & & & & 1 1 1 , , & + ",
"w w q 8 q q w t t w q q w t 0 1 , , 7 4 4 7 7 7 7 0 0 0 7 1 4 1 1 1 4 7 7 7 7 7 7 7 7 0 0 7 7 1 , , , , 1 1 1 q q q w q 6 1 1 1 ",
"m m m m m m m m V V V m V k t 1 , % 7 7 7 7 p V C C V V 0 0 y y V V V V V V V f t y V V V p y 7 1 , 8 w w d C C C C C C k k m B ",
"Y Y Y Y P K K F C Y K I C C h w , , 7 0 t V V V | | | C V V V V V V C ` ' ` C V V V V C V V V 0 1 1 y j h C ' ' ' / _ ^ K C K Y ",
"W Y W Y J C m V C K P I Q I C h 7 , 7 p V V V Q ` Q / C C C U Q Q C | | ` Q Q C V V V V V t V w 1 1 y j V C ' ' Y K P Y / ^ C m ",
"W ^ W Y P J N V C J P Y Y Y I V 7 > 0 j V V U U C Q ` C ` | Q Q Q ` &.&.| Q Q Q Q C C V w V V V 1 1 y j C K K U K J K I / ^ K C ",
"/ ^ Y Y ^ W K D J P Y U I Y I V 0 2 7 t V V V U ' ` ` ` | | ` ` ` | ;.;.&.| Q C C C V V V V V V 7 1 p j V k k c C P Y Y Y Y ^ / ",
"^ ! Y E / ) Y U P Y Y Y K K C V 7 4 7 0 V V V U ` | | | #.#.| | ` | ;.;.;.#.Q Q Q C V V V V V V 1 1 p V f f f k C P I I J I / X.",
"E E E W ~ ! ! E / / I G J G I N 7 2 7 t V Q ` Q Q ~ ~ @.%.%.@.@.| #.;.;.:.;.| ~ | ~ Q H V V V V 3 4 g m g j N G I K D S S G E E ",
"P I E W E T T W ) ) I P P P T N 0 2 7 p V Q ` | E ~ ~ %.&.=.%.~ | | #.;.:.:.=.%.#.~ U F F V V y 4 6 f x p j S H I P D S D H T T ",
"H P P P P H P L U E ! Y J P E D 0 7 0 p V Q ` ` E E ~ ~ -.:.-.@.` ` | @.;.:.:.-.&.| U F U U V p 8 6 e p p g z Z P E P E ! ) ! ! ",
"H D G D P G D D K I Q ! P G T S 0 7 p V C ` Q V H H ~ ~ =.=.;.~ | ` Q | &.;.-.=.%.~ U F U U V p 8 4 w i s g x Z P I E ! ) ) ~ ~ ",
"H G S D P T G D T T W E G D A k 7 7 p V U Q F S H H ~ ..~ @.~ ~ | | | | | | @.@.| ~ U F S V V 0 1 4 d k l x G H H L I I P P R ! ",
"D D N Z I U D D T ! E I G N x i 7 7 t V U Q S S S H ~ ..~ ~ ~ ~ ~ ~ | | ~ Q ~ ~ ~ Q F F V V V t 1 4 f c z v G T G D S G D D G G ",
"S S b b G H N N P W E I N x f r 7 > 7 p F U H S H E ~ ~ ~ Q U H U U Q Q Q Q Q Q U F F S V p p 0 1 4 d k z v b Z b v l v Z A v v ",
"Z b b V S S b Z T W E D v g i e 7 > 7 t V H H H H Q ~ ~ Q Q U H V U V F U U Q U F F S V V t p t 1 4 y k z z v Z b b l z N M l a ",
"v v N N x x N G T ! G Z g s f t 5 1 8 t f V V V H H F U Q ~ ~ Q U S S V V F U U Q C V V V V V y 6 6 d k l v Z G T G G Z Z l a u ",
"l z b M x x Z H W T Z x g g g y 5 1 7 w t f z V F H S H ~ | @.~ U S V V V F F Q Q Q C V V V y w 4 8 f c v v L T ! ! T G Z a s s ",
"a a a g M Z D L E T b z j z x p 4 < 7 0 t t j V S H F U ~ %.~ ~ S S j V Q ~ Q Q ` ` C | V V V 1 1 8 m C z v T ] ~ ~ ! T S Z l l ",
"u u u s v M Z D H G z s x x v f 5 < 8 t t t V V H U F H ~ ~ ~ ~ S c V F ~ @.| ~ | | | | Q V V 0 4 q B K v v T ! ! ! ! T G Z v Z ",
"i i a s a a g x b b x z x c x p 7 > 0 t t V S Q ~ Q H V F F H F S S H E | | Q | #.#.| | / C V y 6 8 m K N Z L T D G T H S S G G ",
"a s l s i u a s x v z z x x z i 7 7 0 t s V Q ~ ~ Q F V V V S S H E ~ ~ ~ | Q ~ #.&.@.Q C V V V 6 8 n D S N Z S Z Z G G S S D Z ",
"s l l x s a a g v v z l j s g t 7 > 7 0 p V H Q Q U V j p j V H ~ ..@.@.@.Q Q Q @.&.| Q V V V f 4 6 k B M c v N G G Z Z G G Z v ",
"s l x v x l x v b b z l s s g u 7 > 7 0 p V V S H F V V p V S U ~ ~ ..~ Q Q V C | #.| C V f V f 4 6 h n k j z v S G Z Z G G v l ",
"l l v v Z Z G G Z Z s s a a l s 7 4 7 t p V p V V V V V H U E E H F V V S V V S W ~ { E V j j y 3 4 g v i u s l v S H T G Z z l ",
"l l l l Z G G G Z v s u u u s u 7 4 7 0 y p t p V j j j H U E H V V s p V V V V G U W H V j V y 3 3 y f u i l z z b P T G M l s ",
"Z v s s v Z S Z Z l a u 0 0 u 0 , , 7 0 t y V p j p t p V V V V s V j V j j p s b S S S c j f w 3 3 6 w i l Z Z x v G H A M s d ",
"Z v l s z v Z N l s u 0 9 9 9 5 % % > 7 0 t p V p p p p s j j j s s V s j s p p z x z z j j y 0 3 : < 5 u l M v l z Z S N l i r ",
"v v l g l v Z v a e u 9 7 5 4 < % % , 1 t V V p p p V p p V j p u s j V s p t p f i e e y y w 7 : = - 2 5 q a a u a l v g a u r ",
"d a i i i d g g e 9 0 7 5 > > - & % , 1 7 7 y p t t t p t 7 t 0 0 0 u p t 0 0 0 w q 5 4 8 8 8 5 : - = - : 2 5 9 9 0 u u e q q q ",
"4 4 4 5 5 6 6 6 7 7 4 2 > > > % , , 1 1 > 1 1 1 > > 2 7 2 7 1 7 7 7 7 7 7 2 > > , : ; , , , < < < < : = * = 2 2 2 2 3 3 5 5 5 3 ",
"- - : < : < 2 2 2 4 > 2 > > > > , 1 1 1 , % % % % % % % % > , % % > > > > > > > & & = = & * : < 5 3 < ; * * : 2 : : > 2 3 3 : - ",
"; ; , , < < < 3 3 3 2 < 2 4 5 7 8 6 3 < , : 3 : : : = * = & @ # % % % * ; < 2 < = = = - : : : 3 6 6 2 : = ; 1 1 4 4 7 6 4 < = & ",
"@ & 1 5 5 6 7 7 8 9 w w 9 9 0 w e q 8 6 8 q r e q 8 6 4 < ; & # , % # * , 3 5 8 6 6 6 8 q q w w r r q 9 q q q 8 8 q w w 8 5 , ; ",
". o 6 t f p y y g k m n g p i i u i h x x n B A N M k f y w 7 3 > > , > < 7 e t d f h n Z A B B n k h h k k k h i y d f y y w w ",
"  o 8 f k k g g v C P P S b x g g l A K J P R ^ Y P F C n f y 8 4 2 < 4 9 t f v C C J I R R ^ I K D G D I K C m k k f j k h h f ",
"X & q k k j c v m S I W E P J B N Z J E ) _ ^ ^ P P R W K B g t 7 4 7 w f m C Y ^ / ^ Y I I ^ ^ I I Y W / / Y I C n f f k m k n ",
"o = y k g g M B C D E ^ / / ^ Y I R / } o.$.[ ( R P W R I J C j 9 5 0 i k C J ^ ' ' _ ^ Y Y Y Y I Y / ' ' ` Y P C B h n C C V m ",
"@ , d n g x B P P I ^ ( ) [ o.X._ } +.*.-.-.$.X._ R D B D J Y C w 7 r i d h n K / ' ' ' _ / ^ I J I _ } ' / K V n k n C ^ ^ V n ",
"& , d k h c S P P R W ^ ) { X.O._ { +.*.-.*.$.X.X.) D N D K W D e 8 y f y y c D ^ / _ / / / / Y J K _ } ' ` Y C c n C I ' / C n ",
"& 1 w h n B C S G J R ! ! ! E E R W { O.O.X.} } O.} K A J K D m e q f f t y m K Y Y Y P P E ' _ P P ^ _ X.X.X./ D C F W o.' C k ",
"& 1 w f c V N B Z D P R W R G S L W ~ _ _ ] ] [  .X.^ J J D B k w q y f e y B K P P K C D Y _ / J C P I ^ X.o.X.Y K P W } / m h ",
"= 1 w f v N A N N Z G P T H Z S ! ! ! ! [ } } [ ] _ ] W M l x g q 6 y y 8 e m P Y P J D K P W U M x k m B I _ X.' W Y I P J m k ",
"= 1 y h g v M N N N G P P D Z S ! ) T T ) _ [ ) ) _ } ( v f z f 6 4 w w 8 w m K Y P S C F U K V g i f g n J ^ _ / / Y F B B n n ",
"= 3 d h i i z v v v G P G A Z G ) _ G Z J R P R ) { } ! N j k f 6 1 w w q w c F Y P B m F F V x i y f x B J P I I K J B N M m n ",
"= 3 d x g a l x v v D G G G A T [ / G N A J L I / ] ) T D B B f q 1 w y w y k C Y Y V m C C b k f g k m B J B A A A J B B N m m ",
"& 3 h B Z v l g l v l Z T T H L ) ( G A G P I W [ ) D S E E J h 8 6 w y y f c V Y Y C V N m c N C C C C J C M n J K P P K C B n ",
"* 4 g G J G l s l l s l L T T W ) ) R L P R ( [  .) D Z W / J h 6 1 y d f j k V K P J C N b N D I W P K K B x x B L K P Y J n k ",
"; 6 f C P P n g g g s l Z L ( [ X.[ } _ ^ R [ X.O.[ L L I I C f 6 4 t f g g g c C J C C B D D P / / ^ P P S k l N A B D I J h y ",
"; 4 d B P P N v l l a g x A R ( ( ) [ [ ( ( X.X.X.) R L I K C f 4 1 t f f f g k B J J K J K P Y ) ) ^ I F N g f x v m S W K h r ",
", 1 y k N D A N M l s a l M A L T T ^ ) ) [ [ _ R P I T Y I B f q 4 t f i f c V J Y W W I P P P ^ ^ I J V x a u f l x S ^ Y h t ",
", 1 y h x n D D N x l l l l M Z A A T R ( [ ( R D B P R ^ Y m f q 6 y f y p m C I ) ` _ Y P I Y I K D B M g i i i f b S Y C f r ",
", 1 y h d g A G N N A N l g l M A I R ^ W R P G M M J R ( R B f q q y h y f c C / } } _ I P ^ Y C n x x k x x g u a J J m g y r ",
", 1 y k d f M A N N N N l g l M N D K L J G N M v M G P ^ R B f q 8 f f y h V P ' o.' / P P Y P M x x c n m m x d g B C k d y t ",
"1 4 d k v l h z N N v l l l l h l v M N v g a g m N N N L I B h w 8 w f y c K ` o.' / ^ W I F N x c B J D S N M v h x n m n f y ",
", 4 d n x g g l v M z l z x v l s g x l s a r a b N v v A A B h 0 8 w f h C Y / ` / / Y I D B c v B D J C N S A N v g x C C f y ",
"< 4 i h d s x x l l M M N M B M l g l g g a u i x N M v x z v f 8 1 y h V C C ^ Y W ^ I D N b M D D V b m m I C J N h v J C h y ",
"3 6 i g s s l x x l v N Z A A N l g l g g a d s l x v v x x k i q w y V V V U C S G J D N n x c C N v z k n C ^ J A x n I I k d ",
"4 6 r g x x a a x M g l N A A M g a x x a a v N x g g l N N g i w w f k V C C C n l g h x x l s g g g p p j C C G B x B ^ ^ m h ",
"5 9 r h x h d d x M g s v N N v f a h g i d M M l s f j B M i e 8 8 w f h V C C x g i f h j s a i a p g f k V C B B N D ^ K n f ",
"7 w d g d r d h M N l g h j v n g g f f g g j z g j k x k g t 0 6 1 4 q r f V V n k j f g f p i a g x v n n n V C C Y C C V d r ",
"4 6 w r q q q r d d r e r r y i t e w 9 t e e 0 e u i i t e 9 6 4 1 1 1 1 w y d f p t t t r w r r i d d f f f h f h n n h y w q ",
"= = = = = * = ; ; ; ; ; ; = ; : : > : - > : - > > 2 4 4 4 4 3 3 4 1 < < 1 , 1 1 1 3 < 1 1 1 1 < 1 3 3 4 6 6 6 4 1 6 1 1 1 1 1 1 ",
"@ @ @ + + O O O O O + + + + + + @ $ # # # # @ $ $ % - , > < < < 4 4 1 , , , & , * * = = ; ; = * * = * = , 1 , , ; & & & , , , 1 "
};
