/* XPM */
static char *result[] = {
/* columns rows colors chars-per-pixel */
"64 64 96 2 ",
"   c #0F0A05",
".  c #15100B",
"X  c #1D160E",
"o  c #251E16",
"O  c #2C251C",
"+  c #2E291D",
"@  c #322B1F",
"#  c #352E21",
"$  c #382F22",
"%  c #373122",
"&  c #3A3325",
"*  c #3C3A27",
"=  c #3E3729",
"-  c #3E3929",
";  c #433C2C",
":  c #463F31",
">  c #46412F",
",  c #474131",
"<  c #4A4434",
"1  c #4E4936",
"2  c #4E4738",
"3  c #4F4939",
"4  c #514C37",
"5  c #524C3B",
"6  c #56513E",
"7  c #58523F",
"8  c #575340",
"9  c #5A5542",
"0  c #5E5A45",
"q  c #5E5D49",
"w  c #605C47",
"e  c #625D4A",
"r  c #5F6047",
"t  c #606147",
"y  c #65634C",
"u  c #68654E",
"i  c #676A4E",
"p  c #69694F",
"a  c #676150",
"s  c #6A6652",
"d  c #6D6B54",
"f  c #6F6C58",
"g  c #716E57",
"h  c #716E59",
"j  c #6F7056",
"k  c #717057",
"l  c #74735C",
"z  c #78765E",
"x  c #77785E",
"c  c #79795F",
"v  c #777460",
"b  c #797661",
"n  c #777860",
"m  c #7C7B64",
"M  c #7F7D68",
"N  c #807E66",
"B  c #817E69",
"V  c #7E8165",
"C  c #818267",
"Z  c #84836C",
"A  c #88866F",
"S  c #86896D",
"D  c #888A6F",
"F  c #878670",
"G  c #898671",
"H  c #878970",
"J  c #8C8B74",
"K  c #8F8D78",
"L  c #908F77",
"P  c #918E79",
"I  c #8E9075",
"U  c #8F9178",
"Y  c #909077",
"T  c #94937C",
"R  c #98967F",
"E  c #97997F",
"W  c #98987F",
"Q  c #979680",
"!  c #999681",
"~  c #979981",
"^  c #9B9B84",
"/  c #9F9D88",
"(  c #A09E87",
")  c #A19E89",
"_  c #9EA087",
"`  c #9FA089",
"'  c #A3A28C",
"]  c #A7A591",
"[  c #A8A693",
"{  c #A9A994",
"}  c #AEAE99",
"|  c #AFB09B",
" . c #B3B29D",
".. c #B7B6A2",
"X. c #B8B7A4",
"o. c #BBB9A6",
/* pixels */
"; ; = & ; ; ; : ; ; ; $ $ $ $ ; ; : = ; ; ; ; ; ; : ; ; ; : ; ; : ; ; ; ; : : > < > ; ; ; ; : : < , : ; - & % % & * * ; < > ; * ",
"5 6 6 6 8 8 8 9 7 2 : : : 2 < < 2 : # $ : 2 5 8 5 5 5 5 9 9 6 4 5 4 4 4 5 7 7 w e e w 9 9 7 8 8 7 6 < : > ; > < 1 1 < < 3 6 4 4 ",
"f f v l B v N B h f e e e e e e e 2 o o 8 a s s e u d v B m d u y e w t l x l b Z J C M z h l h d e 7 4 5 6 9 e s a 9 6 0 y d d ",
"M F G H B B B B B B v h d g l h a 8 o O 8 s h v h h b B J J Z m z l g l V G G J Y ^ ^ T J A B B N h g p s d h l m m d y s h n M ",
"G K Q Q Q Q ( ! P J F b s s l b v 9 # $ w g g g l b N F P R T P G Z Z Z K T T ! W ' ' ' ^ Q J G A A Z Z Z A G G K G M b m M F G ",
"K Q ! ) / / ) ! P F B b g l B A b w $ ; e h g l B J G P ! ^ ^ ^ ^ T Y J K U T ~ ' ' ' ' / ^ Y K P P T L T P E Y P G Z Z B Z G P ",
"J Q / ) ] ] ( ! G b h l b G ! Q B a ; : d b h m T ( ( ( ( ) / ` ' / ^ Y J H H U ^ ' ' ` ^ ~ P P R ! R R ^ ^ E T K Z C V Z G K J ",
"J P ! / ) ] ) ! P F b b B P ] ! N e ; : a z b A ! ) ( ( ' ( / ^ ' ^ E I S V I T W ^ _ ` _ ^ T Y ( ( ! R ^ W E L F V Z J G J J K ",
"P J J P Q / ' ] [ ^ B B F Q [ ) M e ; : 0 h A Y ^ ^ W W _ _ ^ W T T Y D V V I E E E _ ] ' / ^ E ^ ' W Y E E I J V m I E Y I J P ",
"G F Z Z F P Q ) [ ] Q G J Q ) Q b q : : 0 v G E ^ _ W E W W W T Y J J Z V S E E I I E ^ ^ ^ E E W ^ E E W ^ I D V V E _ Y D G J ",
"b M N m h b M K ' ' / Q P K G B v e : , e v B P ^ ' E T E T Y Y T I S C V D _ _ S V S J J G U E W ( T W ' _ I V V S E ' P Z M m ",
"b m m l g h b F Q ^ ! Q J F M M v a : < a h b Z R ^ E W W W I D D D D D V I ^ ^ Z m C S H J G J Y Y T Y E E I D S D _ ` P C m m ",
"B m b h f l M Z Z F H H Z M c c b a : 2 d l p k D W Y W ' _ D C C S T E D D E ^ S V S J I I S Z D D Y I V V Y E D D ^ ^ P Z Z B ",
"G Z m l v b B m l n V m f l m m b a : 2 h m k l S Y Y T W T I S V C T W I E _ _ T J J I E ~ U H D D J D V c I ^ E T ^ / J F Z J ",
"P J B B B B V v a i m j 8 q m C b a : 2 v G J S C S Y I C S T Y S C I E _ ' ] ] ` / T T ` ' / T J S Z C c m J ~ _ ` ' / K B J T ",
"P P B A G F F v r y l d 8 q M F v 0 : 5 v K W T S C D S c m T E S C D E _ ' _ _ ] ' ^ _ ' { ` ~ T Y J Z m c S U _ ' / ^ G F J T ",
"J G B Z L J G b y t j j t j Z B s 9 : 2 h P ) ) Y D S C c C J P J J J I ~ ~ T Y _ ' ] ] { ] ^ R ^ W W Y N z C P T ^ T I H Z H G ",
"J G G G P J Z z t t d d i x K F s 8 : 2 f B ) ) W E J Z c c D L T Y Z Z J T T E _ ' ] { ' ^ T Y _ ' _ W P A Z Z J Y T U I H H J ",
"J P R R L A m g t t y i p c T J s 8 : 2 a b K ! ' ] ^ J N c Z Y / ~ Z M Z I ^ ] ] { { ' ^ P J J ^ ' W E ' ' D m C G ^ / T J J J ",
"T ! ( R Z c l g y y t i l M J B s 8 : 2 a v N P ' ] ' T D A Z J ~ Q S M Z H T ^ ' ' ^ T G B Z A Y W T E ' ) L C Z J T Q Y J P E ",
"^ ( ( J h p h l h d 0 i F F v s e 5 : 2 s l d N ^ ' Q ~ ] ( Z N F G I J A A B A I Y S V l l C Z Z J E E P J J J A A Z Z G P Q ^ ",
"( ^ ! A h g l l n j y j M M l a e 8 : 2 f v f l J E E ! ] ( D C Z J T W E L N m S S m l p d M Z Z H P T L J T ^ R L N m Z K Q ) ",
") Q G B N N z c m n l f l v M v a 9 : 2 s N N N m C T W Y L J Y Y ^ _ ' ' ^ Z c M M m c s s N J F Z Z J T / / ( ' ( A c B B T ) ",
"R P Z N m c c c V V M n f f B B a 9 : 2 s N b N m C J T J J E W ^ ^ ^ ^ ' ^ Z m c b m x d d M Z Z C B Z T / ^ ) ' ( A m N B J R ",
"B Z Z N l k k c S J Z m h v G B s 9 : : s h g h B G B P Q / ' ( ( ^ U G Y G C m l z l l N b N N M M C C G G J P P L C m m M C Z ",
"h l z l p p p l D J Z M h b Q B h w : 7 a g h N B B B G P ^ ' ' / E C m Z C v l z N l z N Z m z m m M M B Z Z Z Z N m m M M z l ",
"t r 0 t y p y l Z F Z M v M Q Q N e 7 7 a N P P l h B G m Z ^ ' ^ U m j M m d d A L N l N C z l x x x x C G G Z m l l z Z Z d t ",
"t r 7 w y d p h B Z V M b B Q K h e 5 7 e N P B d g B B l z J R T H l d v x y s Z A l l m m l h l x l x M Z F C b l l x Z C k t ",
"l j u s l l l b b m M B J G B M a 9 7 9 s N h g s h N N h h b N Z B l d s s d g z l g g z z l h l b z z m M N B M m m b M B b l ",
"s y w e s s s s s d s h b v s a 9 2 : : e e w w e a d d u e e s d d y e 0 0 e e e e e u u d e e u s d s s d d d f d s s d s s s ",
"< , > , , < 4 5 2 2 < < : : 8 : : ; ; ; 7 w w 7 4 2 5 2 < < < < 2 < < < 1 1 4 2 4 4 2 < 5 5 1 1 2 5 5 5 3 3 < , , < < 3 < , , < ",
"% & & & & * ; ; ; ; = & & & & = : ; O ; : 7 5 4 : ; ; ; ; = = & = & & = ; , ; ; : : ; ; ; : ; : : < : : ; - = & = - ; : - & % # ",
"& & ; ; = ; ; : > ; ; ; > < < 4 5 2 ; - , < 2 2 ; ; = & & @ O @ # % @ # * > > > : ; = * > > : , 2 3 < > ; ; : : , < 5 4 < ; $ + ",
"+ $ : 1 1 4 4 4 6 7 8 7 4 7 7 w 7 8 5 3 5 8 9 9 6 5 3 < > ; @ @ % % @ % ; > 1 1 2 2 2 3 6 8 8 8 0 0 8 3 5 5 5 5 5 6 9 9 6 1 ; = ",
". + 5 e s y w e d h z l d u t e t y f l h l M M m v g u w 7 4 : ; * * - > 1 7 t a s f v m V M m b h f f v v h s u e e a e e w 8 ",
"  + 8 g l h d g b Z L D N c l d d l V H G J U U K G A B l p e 5 < > > < 5 0 d z B B B G I U Q Q G Z Z Z B K B B l h d d h h s a ",
"X & e g g g l z m Z Y T L J B N m C J Y ^ ^ ~ Q G J T K G M g w 4 < 1 9 s b B K Q ! Q P P P Q Q K K P P ! ! P J B b f a l b h h ",
"o ; s h g l N N B G T ! W R R P J Y Q ' { { / ~ Y U T Y J G m g 7 1 7 e h B G P ) ] ( ! P P P P K K ! ) ) ) T J B M h h N B N v ",
"# : f l g z G L J K Q ^ ^ ' ] ] ( ' } ..o.X.| ' ^ T F Z Z G P N 9 4 w u a f b G ! ) ) ) ( Q T P G G / ] ) ( G N b v b B P ! B v ",
"# : d b z B L Y P K E Q ^ ' { ] ( '  .X.o.X.| { ] Q Z M B G Q B 9 4 t s e e l Z T ! / ( ! ! ! P G G ^ ] ' ( P A b h B B ) ) B h ",
"$ : e z B G P G H G T E E E T Y Y ~ ' { ] ' ' ' } ' J Z Z J G b 9 8 s d e y z A P P P P G P ( ) P G ! ] ' ] ] ^ G m Z L ) [ B h ",
"$ : w l J P P A Z Z I T E J C S I T ^ ^ ' ' W ' } ' K G Z C m g 9 9 a s 7 w m G L G F B Z L ^ ) K F P ! ^ ] [ [ Q G P P ) ) B s ",
"& : a z A J J Z V V S I J D V C U E E ^ ' ' ' ' _ ^ ^ Y C c l u 5 5 w e 6 w N G P J A Z A L T L B m B B G Q ' [ ) Q P L K G M h ",
"& : s v m C A Z m V S J J Z c S E _ I I W _ ' _ ^ W ' T M k l u 5 < 9 9 2 9 z G P J Z N A L A N m l v M B G ! / / ! P G Z b v v ",
"& 3 f l g l C V x V H J S V V D ` ^ S V I I J Y W ( ' Y B l b a 2 < 9 w 5 w h A P L N b A A N N h h b N F J K K U K G F M x z b ",
"& 3 v m k l c c x V S S S S V I ` ^ V m C S F P ^ _ W I Z M b a 5 < 9 e w w l B P P N z B B N l l l N B G G F F H J F B M m b b ",
"$ 8 b F S C m x x j j V I I S I _ ~ Z V S G I E ' ^ J Z J G B f 5 < w e e u h N J P B N N z z c B G J J J G M n F J G G F Z m b ",
"$ 2 m J Q I c l j j i x D U I U ^ ^ J J J U E ^ ] ^ S C K J B f 5 < 9 e u d l N G P F B N z N B Q ! Q P K F v l M F J J K G b h ",
"= 8 v G ^ E B x k s i j V J ~ _ ` ' ` ~ T Q _ ] { ` I H K G N s 1 < w s p d g l C F B B B C Z J ! / ! Q Y G b d M Z J P P G l a ",
"= 8 v B ! T A m l d i j x C E ^ _ ` ' ` ~ ~ ] { ] ^ U J P B M s 1 : w s s s d g B Z F Z F Z G P ! ) ! P L Z x d x V Z J Y J h q ",
"; 8 s B P P J Z x j i i l n Z H J U ~ ^ ^ ^ ` / Q K J I P G b s 4 : e s u u g N Z J P R P J J J Q ! Q J C z s i g x c N P P h w ",
"$ 2 s b Z G L G m k j d j l n V V H I U ^ ^ ^ U F V J I P G N s 7 4 e s e u N B L ! ( ( P J K P K J F N c k d p s d k m K P h w ",
"; : s v v B J G m m V n j j j m Z J I Q ~ T J Z n n J Y T J M s 7 5 a s e u l B ! ) ) ) P J T P B b l f g k d d y i m G m h a q ",
"; 8 f v f N B B m m V m j i j n V S J J J S V x l n F U T K B s 7 7 s s u s N B ) [ ) ! J J T P m h d d g l x l y y M G v y e w ",
"$ 8 h b N v b N m n x j j j j j l x m m x j j j n M C H T U Z f 7 4 e a a h B ! ) ) ! T P J A N l l m m m c m x l j x v b x s e ",
"$ : h B N v h v V n l j l l n j d d l k d i t s m C V Z U U Z h 7 4 w a a z K ! ( ( P J J D m z l b B Z m c m M V x d d m B h e ",
"- 5 f l h l m m x n M C Z Z J C l k l l d d y d m Z Z Z A B N f 7 5 e g N g B B T P P G M n c c C Z m c h h B K Z V l f Z F h e ",
"; 5 s h f l m M c M Z J Y Y T J c l l l l j d j c C Z A B N b d 5 5 e s N N B B C Z Z B x d k l B C l p d v B Q H V x l J K v a ",
"< 5 s h m b h l M B m Z Q ^ ~ J x h b b d j m M m z m B J A l e 7 9 a N h N G B x j d d d k d k g d d y u g B B F M v v K ! M d ",
"1 8 s l M b s f C C l M T ~ E H h h v h s d M V z l h N J G g w 7 7 e s s N B B j y 0 w d g p p i y y p y g B B B M m M P Q N d ",
"5 9 d g f s s f M m h x m Z F B h d d d d d l l g h l l b h u 8 2 : 2 8 e s N N b h u u d d u u i d g l f h b B B B B B B B f e ",
"1 7 u e 9 9 a s l l s s s s v h d y q w s s y t y y a s a w 8 4 < ; ; : 5 9 a s h g e e w e e 0 t u d g f f h h h b B B b f w 9 ",
": , < < - : < 3 8 5 5 3 3 8 8 5 4 < < < 6 6 3 1 < < 1 < < < 2 : : ; ; = ; ; : 7 5 2 < : < < , < < < 3 3 2 8 2 8 8 2 2 8 5 : : 5 ",
"; = = # + # % = - - ; - ; - : - * & * ; > , > - & % & & $ $ ; ; ; = $ $ O @ @ ; & & @ # & = & & & & & & ; : ; ; = $ # # $ ; : : "
};
