/* XPM */
static char *result[] = {
/* columns rows colors chars-per-pixel */
"64 64 108 2 ",
"   c #0F0A05",
".  c #14100A",
"X  c #1D160E",
"o  c #231D0E",
"O  c #261F16",
"+  c #2A2415",
"@  c #2F2917",
"#  c #252118",
"$  c #2E261B",
"%  c #2F291C",
"&  c #342D1D",
"*  c #37301E",
"=  c #39321F",
"-  c #342E20",
";  c #392F22",
":  c #363122",
">  c #3A3424",
",  c #3E3926",
"<  c #3D3628",
"1  c #3E3929",
"2  c #413C27",
"3  c #40372A",
"4  c #423D2B",
"5  c #453F30",
"6  c #45412D",
"7  c #49452F",
"8  c #464231",
"9  c #4B4533",
"0  c #4D4935",
"q  c #4E4738",
"w  c #4F4A39",
"e  c #514C36",
"r  c #524D3A",
"t  c #4F5138",
"y  c #55523C",
"u  c #58543F",
"i  c #575540",
"p  c #5A5542",
"a  c #5D5A44",
"s  c #5F5D48",
"d  c #615D47",
"f  c #625E49",
"g  c #5F6047",
"h  c #616047",
"j  c #65624C",
"k  c #68654F",
"l  c #67684E",
"z  c #69694F",
"x  c #676450",
"c  c #6A6651",
"v  c #6D6B54",
"b  c #6F6D58",
"n  c #706E56",
"m  c #716E59",
"M  c #6F7056",
"N  c #6F7059",
"B  c #717156",
"V  c #74735B",
"C  c #78765F",
"Z  c #76795D",
"A  c #797A5F",
"S  c #777560",
"D  c #797661",
"F  c #777860",
"G  c #7C7B64",
"H  c #7F7D68",
"J  c #807E67",
"K  c #817E69",
"L  c #7E8165",
"P  c #7F8268",
"I  c #818267",
"U  c #84836C",
"Y  c #88866F",
"T  c #86896D",
"R  c #888C6F",
"E  c #878570",
"W  c #898671",
"Q  c #878970",
"!  c #8C8B74",
"~  c #8F8D78",
"^  c #918E77",
"/  c #918E79",
"(  c #8E9176",
")  c #8F9078",
"_  c #909177",
"`  c #93937B",
"'  c #98967F",
"]  c #96987E",
"[  c #98987E",
"{  c #979581",
"}  c #999682",
"|  c #979980",
" . c #9B9B84",
".. c #9F9D88",
"X. c #A09E87",
"o. c #A19F8A",
"O. c #9FA189",
"+. c #A3A28C",
"@. c #A6A590",
"#. c #A8A693",
"$. c #A7A892",
"%. c #AAA994",
"&. c #AFAF9B",
"*. c #AEB09A",
"=. c #B1B09A",
"-. c #B7B6A2",
";. c #B9B7A3",
":. c #BAB9A6",
/* pixels */
"4 1 1 1 < 3 3 4 4 4 9 9 6 3 1 4 7 5 2 & & * 2 5 2 3 4 5 7 9 5 2 3 3 > < 3 5 9 4 < = * & & : > , 1 4 4 4 3 5 5 5 4 < > : - - : < ",
"r r w t r r r y r y p p u q 8 4 5 3 = * * = 5 9 e r e 9 9 7 5 5 4 2 5 5 9 q q 9 3 3 1 1 1 1 2 , , 4 8 9 q r p a p i i q 5 5 1 i ",
"F F G G D D D D G D G D D n p 9 3 = * * * 3 e d c m c d 9 4 5 9 e u d f x j d r 9 9 r r e w 9 3 < 4 p f p c K ~ E E K H b b S H ",
"~ ~ ~ ~ W W Y K ! ! / ! ! K v y 3 & * = 2 5 u c J J D f y q r i p j m C m v k d y r p d p y e 9 , 5 f v b K } @...} } / E E P { ",
"/ ` ` / W K J J U W ! ~ / ~ K b 5 = 3 2 q d f n D D C c f f j c x b J K V m v c d p p i 9 9 y q 1 6 f V D ! } o.~ ! W { { { H H ",
"{ { / / ! Y A J U W ! / / / / D e 3 3 2 y d k n V D m m n m B m b D K E D m b c f d d r 9 5 d y 3 6 j V H W ~ / E E W ~ { { E H ",
"{ { / / ' ' W U U W ~ ^ ! ! / D y = = 3 e p d j n m C D D G G C m J / { ! D c h f k f u e e f d 4 4 j V m m m C K ! ~ / ! { { } ",
"{ ` _ ` } } / ^ ! ^ ~ ! ! W / J y 3 = 2 e d d j c m C J U K G G m J { } { U n c v v f d y r f u 1 5 c m m c c m K ! ! ! E ~ ..o.",
"^ _ ` ` [ ] ` _ } } ~ T W ! ( A y 3 & 2 u n m n c c Z H E E P G J K / } { { H S D S x s d u y q 3 9 v A v n A Y ! ! Y I I T _ _ ",
"^ ^ _ _ ` _ ( `  . ._ W R ! ( G y 3 = 2 d n C C k x B H W ! E H D J K ~ { { ! E K D x s f d r 9 4 q c V z n J R ~ ! I U Y Y ( ( ",
"Y Y ! ! ! R T W ^ _ ` ` W W ` U p 5 4 9 p v m m l l b G ~ { Q H D S K K { { { ~ W D x f k f p e 5 q d j j n B L ! _ ~ _ [  .] _ ",
"Y Y T T Y T U U Y _ } [ ! T ( L p 9 7 r f c c c h j b D ! ~ E G S m S K ! ) ~ ~ E D j d k k p y 9 q u j k n B L W ~ _ `  .O.[ [ ",
"R T I I ! _ Y T ( ` ` _ T U L B r 9 9 u c v h p a j B G G G V Z D J H H G H L G G m j d a p e 7 3 9 j m M B Y ( T R ( ) ! ( _ ` ",
"T U A I ( _ Y I ( ] _ ( T G V j r 4 6 r c v a u p l B A Z M l v V D G G V b V V m v h a u e 7 6 > 9 v V B Z R ( Y U U U Y I T Y ",
"I I A J Y Y L G ! _ _ ! G V v a q 2 = 4 f c f a h x B S V v j g h l c v v b m b j d f a r 0 6 2 < 9 f m B Z Z L A Z M V L L A Z ",
"A J A A J I A I ( _ ~ Y C v c p 9 , & < y h d s j x v N N b j g s a s h j c c c f a a p e 9 6 2 < q f m B Z Z Z L A M M L A M l ",
"Z A G G V V G T _ _ R J n k k d q 3 = > 7 e u u h h h j B S b c j g a i i a j x f f p u e 7 7 7 4 q c m M Z L R R R T L L M l g ",
"B B Z A B V L R ] _ I Z v z n f 9 3 = = 2 6 y u s g a j V D Z b l g u t a s j x n c f p u y 7 6 4 r v C M L R ( ] ] ( R L l z l ",
"l l l v F L U ! _ R A B n B V k 9 > * = = 2 7 y a h d l S G F b s y t y v V N N V V n n v d 7 3 3 i D K M A ( O.] ] ] ( I Z Z M ",
"g h h z V G L L R T B z B Z Z k 9 3 = = 2 7 t u h l h k N S V v p t t a V G V V J J J J V f e 3 3 r J W Z A ( | ] ] ] ( R L L Z ",
"j l l l l l v V A L B B V C V k 9 2 , 2 2 7 l B m v d u g j g s a g g l Z D V S K K K J n f u 7 4 i D W G L R R T T ( R I I T Y ",
"l l M v j h j v B V B B V V n j e 2 , 2 7 y z Z C n a e y y i s g l N F S S N Z K W K D k d d q 5 w S U I G I U L I U T I I U I ",
"l z M B z l l M Z Z B B n z n d 7 3 * = 7 u j z n z a t 7 7 y g b F P U G m c v K W J c u r r e 4 q m H G Z C A T T L L T T G Z ",
"z M Z Z V B B Z A J B n z z z d 7 3 * * 7 e y d j j u 0 0 0 a l b S F S V c f k K K D c r q r e 3 q b D n v n Z T I L L R T Z M ",
"M B Z Z L L T T L L z l l l n k e 4 = = 6 7 6 7 a a t y g l M v f p u u d d u h M M Z l y 0 e 9 1 0 b V j g z B Z L R ! R L N M ",
"B B M B L T R T L Z z h h h l j e 3 = = 6 6 2 7 t y e t g l l g y q 7 7 e e t u g g l g y 0 q 6 1 8 f v g j M V B A R ( T G M l ",
"L Z M l A L L L L M l g u u d y 3 & * * = 6 7 7 7 7 2 7 t u u t 0 0 0 e e 0 7 0 t g g a y q 7 4 1 4 q p l B H L V Z Y R U F l j ",
"L Z M l M A L G M l g u y y y 0 3 @ + @ = 6 0 0 6 2 2 7 7 7 t t 7 7 t t 7 6 6 6 7 t 7 0 q 7 , , 1 1 3 0 d n S G B B L I F N j s ",
"Z V b v N Z G A l a u u y e 9 4 & + o o = 7 0 0 6 6 7 t 7 6 6 6 2 2 0 t 7 6 2 2 6 6 : > 2 3 : ; : > , 4 0 i g j h l N B v l g g ",
"l j j j j x b v a t y e 7 7 4 < ; $ + @ = 6 6 7 2 2 7 7 6 6 6 4 , 2 7 0 6 = 2 = , > % % : : : ; > , < , 1 8 w y y p a g a i i y ",
"0 9 0 0 q q w e e e 7 7 6 , , > 3 3 3 3 , > > > = = 2 , 2 1 1 1 2 6 7 7 6 2 = = : - : * & ; > 1 4 4 1 < - > 6 8 6 6 8 0 0 0 0 7 ",
", , 1 1 4 4 6 4 7 7 7 2 2 , 2 4 5 5 6 4 , > > > = = = > , , , , , 1 1 4 1 1 2 2 : : > : : : 1 4 9 9 1 < > > 1 4 4 1 1 8 8 8 1 1 ",
"> 3 3 4 4 3 5 5 6 9 5 5 6 7 e e e w 8 5 3 3 5 4 < > > - > & $ $ : > : : 1 1 8 6 < > < , , 1 5 8 w 0 8 1 3 3 5 5 9 q q q 5 4 ; ; ",
"$ ; 5 q e q e e r y u p u y u u a p r w r i a a p i w 9 6 < ; & > : : : 1 8 t t q q w w i a i a a a i r q i i r y y p d u q 3 3 ",
". O 5 f k k d f c m D D n j j j f h b N m S P E H S m c s i e 9 4 , , 1 8 w i g x c m S F G H H D m b b S m m c f f c c f f p p ",
"  O y v m m n n D K W ^ J A V n v B P Q W ! ) { ~ W W J D v f r 0 6 6 8 i s x S K K W W ~ { { ~ W U K E W W K J V m c c m m c c ",
"o - p b n n V D J U / ` ^ ! U K G G W `  . . .) ! ! ) ` W G n d e 9 r a x D E ~ { } { / ~ / { / / ~ / ` } } / ~ K S c c V J m m ",
"O ; f m n m J Y W / ` .. .' ` / ~ / { +.%.&.O.| ) ! ` ) ~ W K n u q y f b G K { o.o.o.{ / / { ` ~ / } X.o.X.` W K J m S K K S J ",
"$ 3 x D m C ^  . .} o.o. .+.@.$.X.+.&.-.:.:.*.@. .) E H U W / K p e s j x v S E } o.o.o. .} ` / E ~ ..@.o.} W J S m K K { { K S ",
"- 3 x S A J ` X.+...+.+.X.+.@.@.X.+.=.-.:.-.*.%.@.} U G K W ' K p r f c s j b G / } }  .} } } / E W ..+.o.X./ K D D K K o.} K S ",
"; 3 f m K / } X.[  .O.O. .] ] _ ( ` +.$.$.+.+.+.%.+.! I W ! Y D d i x c d f m K Y ! ! ! ! ^ o.X.! ! { ..@.@.@.} K J K { #.o.K b ",
"; 5 p m W } } } ] ] [ [ ] _ I U ! `  .X.+.+.[ +.%.+.` W T I J m p i x c p d C K U Y K K U ^ ..} W I W / } ..%.@.{ K ^ ` o.X.J b ",
"; 5 f m U / X.o.] ] ] ] _ Y L I ( ] ] ` +.+.+.+.+. .+.` G b V c q i d d r p m J U Y W W W ^ ` ^ D B m D H ~ +.@.o.{ ^ / ~ K S b ",
"; 5 f S G U { X.] ] [ [ _ Y L I ] O.( ( ] O.+.[  . .+.[ Z k n z q 5 p p e d m J W U J K W ! W J v l c b D U ` ..X.{ W W J J S S ",
": 9 c S c B W [ ] ] O.O.( P L R ....T L Y ( ! )  .X.+.[ D n S x i 5 p p p p v J Y U D G Y Y J m j f c m G U E W ! Q E K D D D D ",
"< 9 b G n B Y _ ( ] [ ] ( R P ( ....I G I T Q ~ [ +.[ _ U K D m q 5 p f p f c J W W J D K K C n c v m D H H S F P G m m D J D D ",
"- 5 m W R T I I R ( P T _ ] R R } [ T L T ! ~ ` +. .T I / ` K m i 5 f f f f n J ! ^ K J J A C J K K K K H D x v F V p f J K D D ",
": q V ! ] ` T U R T L L _ ] _ `  ...( ! ! _ ] O.+. .I J ` } K b q 5 p c f c n C W ! K K A A J K / / ! W U S j g V b p p K K S m ",
"< q b W o.X./ Y T I A J ! [ ..+.+.+.O...( ] O.$.%.O.! T ~ ! K b q 9 p k j l k B G U K H K U U ! } } ` ~ W G j d M b l z U U v f ",
"< q b K  .o.} ` ~ U A A Y ` O.+.O.O.@.+.| O.$.$.+...( ! ^ ! J c q 9 p k j l z v G U T Y E W W /  ...` ~ Y G j h z z z V W W v d ",
"3 5 x D ! } @.+. ._ G C U ~ ] | ` ] ..+.+.$.%.+.` ! ! ( / ~ K c w q d f d j v V K W / ' ^ ! ! ~ {  .{ ! Y C l h l l l A { ~ b d ",
"3 5 f S J / o.#.X.` ! Y U Q ( ` ( ` ..+.%.%.+...W U ~ _ { / D c r q d k d d v C U _ ..} ^ ! ! / / W ! W I C b l j l B J E K c d ",
"3 5 c m b J } #.[ ' +.X.T G T ~  .+.$.%.%.+.} ! G I )  . .) H c i y f c d h v C /  .X.{ W W ` / K J D G J G G m h c K E D v f a ",
"3 q c S b m W { ` } +.+.W G I W ` ..@.+.O.` Y K K T ( ] O.{ K b p y f c d l b G / { ` / U U / ! G m D D K K I S l b K K m c f d ",
"3 5 b J J K D K ` [ _ _ ! ! W E U W _ _ T G V G ~ ` W ! | ..E b u r d f d k D K ! ! K Y T U J C m V U W W U J G V B m S D m c f ",
"3 5 b J J D D K ~ ` ! ! ] [ ` ~ J G Y T L B c V _  .~ R ` ( U b u r d f j v D J J J H J K G Z V V G U W U K U I H S m m K J b f ",
"3 q c S v m K W Y W { ..X.+.+...T G G K G D l v ! } ] _ Y J D b r q f c n n m C V Z L G V N V Z J K J A V D W ~ T G b Z E K b f ",
"4 q f V V D K U U Y _ } +.+.#...I Z G D S V b S T ~ _ ~ Y J D c r r f n n n m n v v V V M N B V G G Z n n C W / Q H V D ~ ~ m c ",
"9 r f D ~ ! V m K T G Y  .+.O._ A n G D c v U ! G C C I ^ ! C f p p c c n m m n j g a l B V B B v v z z j n K K U H V H { { D c ",
"q y f D ! ! v c K U V C ~ ` ` Y V v C C k v U W C n n D ! W b p p r p c c n V m l g a f b B B v k k z n z n J K K H G U / ~ D c ",
"q u c m b b c m G G V B Z G U K V v c c c n V V n n V V S B j i q 9 q r d k m D S b v c c v c x z b B Z m S D J K K K ~ K K c a ",
"q r d f a p a j v v j f f k v b k j a p f f a d f j c k f a e 0 5 1 1 5 r p c v c v f f s a a s a f j c x x c b b S K D c f p i ",
"4 3 5 9 9 w 0 0 w 0 0 9 q q q r y e q 9 9 9 5 5 9 q r e 8 1 1 > > - > > 4 9 9 q w w w w q 8 8 1 1 1 8 8 3 3 5 r i q i 5 5 3 3 5 ",
"< < < 3 8 8 5 1 , , , 2 4 4 3 4 9 9 6 3 , > > > 3 5 5 5 , : : - - - ; > < 3 4 4 1 5 8 8 1 1 < < - - - > - ; 3 3 5 5 3 ; - ; 3 5 "
};
