/* XPM */
static char *result[] = {
/* columns rows colors chars-per-pixel */
"64 64 97 2 ",
"   c #0F0A05",
".  c #14100A",
"X  c #1D160E",
"o  c #261F16",
"O  c #2A2315",
"+  c #262219",
"@  c #2A251A",
"#  c #2E2A1B",
"$  c #322D1D",
"%  c #34301C",
"&  c #38331F",
"*  c #352D21",
"=  c #363222",
"-  c #3A3425",
";  c #3D3A27",
":  c #3C3629",
">  c #3E392A",
",  c #403827",
"<  c #40372A",
"1  c #433D2C",
"2  c #473F30",
"3  c #45402E",
"4  c #48432F",
"5  c #474231",
"6  c #4A4433",
"7  c #4E4936",
"8  c #4F4A39",
"9  c #504C37",
"0  c #534C3B",
"q  c #55513D",
"w  c #58543F",
"e  c #575340",
"r  c #5A5542",
"t  c #5D5A44",
"y  c #5F5C48",
"u  c #615D47",
"i  c #625E4A",
"p  c #616047",
"a  c #65634C",
"s  c #68654E",
"d  c #676A4D",
"f  c #69694E",
"g  c #676350",
"h  c #6A6652",
"j  c #6C6B53",
"k  c #6F6C58",
"l  c #716E57",
"z  c #726E59",
"x  c #6E7255",
"c  c #717257",
"v  c #74735B",
"b  c #79765F",
"n  c #76785D",
"m  c #79795F",
"M  c #777560",
"N  c #797661",
"B  c #7C7B64",
"V  c #7F7D68",
"C  c #807E67",
"Z  c #817F69",
"A  c #7E8165",
"S  c #7F8168",
"D  c #818267",
"F  c #84836C",
"G  c #88866F",
"H  c #85896D",
"J  c #888B6F",
"K  c #878670",
"L  c #888671",
"P  c #878970",
"I  c #8C8B74",
"U  c #8F8E78",
"Y  c #908E77",
"T  c #918E79",
"R  c #8E9176",
"E  c #8F9178",
"W  c #909177",
"Q  c #93937C",
"!  c #98977E",
"~  c #96987E",
"^  c #98987F",
"/  c #969680",
"(  c #999682",
")  c #979880",
"_  c #9B9B84",
"`  c #9E9D88",
"'  c #A09E86",
"]  c #A19E8A",
"[  c #9EA086",
"{  c #9FA089",
"}  c #A3A28C",
"|  c #A6A691",
" . c #A8A793",
".. c #A7A892",
"X. c #A9A993",
"o. c #AEAD99",
"O. c #B0AE9A",
/* pixels */
"# $ - 1 4 4 ; = $ * : 1 : ; - - ; - ; ; ; 3 > > : ; ; > 5 5 ; 1 5 5 1 1 1 5 7 7 2 2 2 < 2 2 8 8 2 2 2 < 2 2 2 2 8 2 2 < 2 2 2 0 ",
"< 1 5 5 6 4 3 1 : 1 6 7 5 1 1 1 ; ; 3 6 6 6 8 8 8 6 5 5 6 5 3 1 4 4 1 1 5 6 0 0 e 0 0 e r r r r r r 0 0 0 0 r r 0 0 2 2 8 0 0 0 ",
"g i r q q 7 7 7 q y g a t 9 7 7 5 7 t p p a j k k d y t q 7 3 1 1 1 1 1 2 0 u u k k z M C Z Z Z C C h k C h h C g r 0 r r r i i ",
"V n j d a p e t a j M N j d p w e t x v v N S S N M z h p w 7 5 3 3 3 6 0 u h z Z Z Z Z Z ( ( T Z Z Z Z T Z Z Z C i h h C C i C ",
"D V B B D V k d j z B V B n l h d h M V L P S V M M B B v j t 8 6 6 7 u h N Z T ( ( / / T T ( ( Z T T T ( ( T Z C C Z Z C Z C C ",
"F D D F G G B v M N S K H G Z B n v B F / ) I K B B V V B z h y 0 7 w i z Z L T ] ] ( ( T T T T T T ( ] ] ] ( T C Z T T Z Z Z Z ",
"F Z V N x c n B S K I U L U T U S A V L ` | _ E S S v k k v B k q 7 u i g z C Z ( ] ] ' ' ( T T Z T ]  .] ( T Z C Z ( ( T L L Z ",
"G D N c d d v A L I I U I U ( ( P S K U ( ` ) / ) S x g x v V M w 0 i h i g N Z / ' ( ' ( ! ( T Z T ( ] ( T T T Z Z T ( ( T L Z ",
"E I n x d x k n S P P I H P / Q H H P U H A H E ( U M j c n v h w w h h u i C L T T T Y I T ' ( Z Z ! Z Z Z ( ( T L T T T Z Z C ",
"E P N n x x v n V F H G F F K G S S G F B m H I / E S v c j j i q e h h r u C Z Y I Z Z Z Y ' ' T Z Z C Z Z ( ' T L L L Z Z g C ",
"A A A A n n B A A S H D V N c c n B c v A H I U P U I A a y p y 2 0 u u 0 u C Y Y I L Z Y Y Q T Z Z C h C C Z ( L L Z Z C C C i ",
"n N H S A n S G S S H D N c d d v v d d B H L K K L E H p q y e 0 2 r r 9 0 C Y Y Y G Z Z Y T I Z Z C C C C ! Z L Z Z Z i C g C ",
"n B D D A A P I G D U P m x x x k x d a c N M V K I E D d t y r 2 2 r r e r z Z Y Y C C Z T Q T Z C Z Z C C Z ! ! T C C C i C C ",
"V B A A N A H P D D G H A x x x n k d d x v v N K I H V x g g y 2 8 r u r i b Z T Y C C Z L T I Z Z Z Z C C ! ! ! Z C C C C h C ",
"D B n n n n x c N B x x A A x n S V x j c N N D P G x x V V k y 0 8 r i g h z Z Y T Z Z C C C C Z Z C C C C Z ! Z T C C C i i C ",
"V B c x n n x d n v d d B H A A P P B n M A H P Q H x j S V M y 8 2 i g h l z C Z T Z Z C C l C Z Z C C Z Z T Z ! Z C C s C i r ",
"N n d x A D A c v j a d N G L E E U P P A S I / ) I N x A N k y 2 2 u s j j j l Z G Z Z Z C b C ! T Y Z Y Y Z Z T T Z C l s s s ",
"n c d x D H m n n x a d v S I E I I / I P L E / E L A M B M h t 6 2 i h s s l b Z F D Z G C b C T ! Y Y T T Z I G Y I Z l h f l ",
"x x d n I P c x N B d a k B H H S S I E U E / U S B N N A M h r 6 0 i h h s l C G J C Z C C b C Z Z C C Z Z Z Z Z Z Y Z l s C C ",
"c n x n I P x j V D M k k v N A S S P E / / / K v c N V S B h t 7 0 i h i s C Z T T G C b b b b Z C C C C Z Z Z Z G Y I C C C C ",
"H A n n H K v x n F U I v d z N S / / / / E S N j j A H K Z j r 0 0 h h i s b Z ! ( L C F Z b C Z Y G Z C C Y Y T Z T Y C Z Z Z ",
"G H n m D D N n B F Q I M j x M S P U E P S M x j k B S I Z k i 0 q h h h j C Z ' ( L C F Z C b Z Y G C C C G Y Y Y T Y G Z Z Z ",
"V V A A N V G K G F A N N n v v z M A A n d i g N S n N K F z i 0 0 u s i z Z T ( T Z Z C m b C I Z Z C C C C C C Z Y Y Y Y Y Z ",
"S A F F A V K P G A N n V H S N h g v z d p e p B K n v S V z i 0 0 r s h C T ! T T L Z m b B D Y Y G C C C C C Z Z Z G Y Y Y Z ",
"I P P I U I S N v n F L I I E L v d j j d a q r N H S A v j s i 0 0 i h C C C Z ` ( L Z Z Z F I ! ! Y F N N Z Z G Y Y Y Y G C C ",
"G K I I U I M j x v V K U E ( L x a g g a p e p c B B B c f a r 2 0 i h C C C Z T T K Z F K F F I Y G C M B Z U Y Z G G Z C l l ",
"v N K L H A j j c v h k K E I A d t d g w w k v d d a x C b i w r r s C z C C C c v B Z L F b v l l l l h z Z Z Z C b l l l l l ",
"a j N Z B v a a c k p a N S S v p e a y q r c n a t e a N b w 9 0 w u g h h C C j j z B Z C l s a a f j h z Z Z Z C b h s s h h ",
"e y s j j h i a h j p t a j k j y e w w w t y p t r u p s u 9 4 6 2 2 0 r k C C M z z l z l h a d j c n z M N V Z Z L Z b l i i ",
"6 7 w u i i r e y y e q q e y y w q 7 7 q w q q q w r r w 0 4 1 < < < 1 2 r i i h h i y u u t y u a h h h g h k k z N M j i w q ",
"- < 0 r u r 8 2 7 6 6 6 5 5 6 6 3 5 5 6 4 6 7 6 5 5 6 7 9 9 6 1 # @ < < < < 2 2 5 5 2 5 2 2 1 1 2 2 5 6 e 8 8 8 2 2 6 6 6 2 2 2 ",
"$ - 6 0 0 8 2 2 1 1 > 5 1 1 1 1 > 3 5 3 ; 1 5 6 3 1 1 3 2 1 2 - O o $ * $ < * < - = - - < < : > > > > > > 2 < 2 < < - - - , - - ",
"* , 2 2 4 2 2 2 2 2 2 2 4 4 9 9 0 8 5 1 1 2 6 5 1 < < > : * $ # $ $ $ * - 1 1 1 : ; : ; 1 1 > 5 6 6 5 > : 2 2 2 5 6 7 6 2 < * * ",
"# * 2 7 7 9 9 9 0 q w e w w w t r e q 8 0 w r y e 0 8 6 5 1 - = < < - - 1 5 8 9 6 8 7 7 e e r r y t e q e e 0 e q q r e q 7 1 : ",
". o 6 i s s i i h z b M l a a p u a j v z v Z D V N z j j s y w e 0 8 8 7 q t i g h k n A S V V M k k k z z z j a i g h i i r r ",
"  o 0 j z z l z B G Y Y F m b v l n G U I Q ) ) T P Z Z Z C N z j h h i a h c N Z K L U R E E U K K S F K K Z V z k j j z z h h ",
"o * e j l l b F L T ( ( ~ Q Q Q I Y ) } ....} _ U P L L P P I L F D G G D F T ( ] ] ` / T I T T U I T Q T T U L Z M h k b N z z ",
"o * i z l v F T Q ! ` _ ^ ^ _ ^ Q ! } X.O.O..._ U P Y T U Q ! / U U Q Q T Q ` | ....} ) T Y T T T T ^ ) / Q E U Z Z z C Z Z C C ",
"# < g C z b T ) ~ ^ _ _ ^ ~ R J I W ' | } } } ) T Y ~ ( ~ ~ _ _ / Q I J J W _ } } } _ ) Q T ! ( ( / ) _ ) Q I G Z Z Z Z / / C z ",
"* < i M N Z ! _ ) ~ ^ _ ~ R H H J Q ^ ' _ } _ ) Q Q _ ` ^ ^ _ ^ ~ U H D I Q _ ' ' } [ ) Q Q _ ` ( ) _ _ ! Y G D Z T Z / ] ( Z M ",
"* 2 r M Z T ' ' ~ ~ ~ ~ W J A A W ^ Q ^ } | } ' ^ ( _ ' ~ ~ ^ ^ Q G A D Q _ Q ^ } } } ] ! ! ` ' ~ ~ ~ ~ R H A A / / W ( | ` B z ",
"< < r z L T ' ' ~ R R R I H A A ^ [ U U ) _ ` _ ^ ^ ' _ ~ Q ^ ^ ~ I D D ) _ R R ) _ _ ) ! ^ _ _ ~ R R R J H A H ( _ Y T ` / N k ",
"* < i M F Y / ( ~ E J H D D A H [ [ H A P U I I W Q _ _ Q ~ } } ..^ H H [ _ H A H U U U W ! _ _ W R H H H H A J ] ` P G U Z N z ",
"< 2 i z b D Y ! W R H H J J H R [ _ H n D G L P I W Q Q W ~ ' } ..^ R R _ ) H B H G L P I W Q Q W R H H H H S R ] ` J C V N N M ",
": 2 h v j j D I R R H J Q ~ H R _ _ H A G I R U F H P I E R R ~ [ ^ J R _ ~ H S G P R U G H J I W R J J Q Q I J _ ( K V B N N N ",
"= 6 k B l c A J I R R E ~ ^ E Q _ ) Q I I W ~ Q I H H H R I R Q ^ ^ Q Q _ [ E I I R ^ ~ P G H H R W W W ) ) W ~ _ ( L Z V N N N ",
"= 2 z K G H H H K I ( ` ~ ~ [ } } } } ) Q ~ [ } _ Q I H H I _ _ ^ ^ _ } } } } _ Q ~ } } ) Q I J R ~ ^ [ ) / [ { | _ I Z K Z N M ",
"- 8 z L Q ~ W I I E [ [ ~ Q _ } } } } } _ _ | | [ ~ Q I P E ` [ ~ Q } } [ { } } _ _ } } } ) R R R ~ } } Q / { | [ ) I L I Z M z ",
": e h Z / _ _ ( ( ( _ ) U U ) ) ~ Q _ { | ..X.| _ / ) _ ! ) _ ~ E I ) _ Q ~ _ } }  ...} ( ) _ ) R R ~ ~ U U ~ ) Q R P P I Z k i ",
"< 2 k Z / ` ] ] _ ) Q U H G R Q Q ~ [ { X.X.} ` Q ~ _ } ~ Q Q U K K R E E ~ [ } X.X.} ` ~ Q [ _ J H R R G G R Q Q R I I U F h i ",
"< 2 g N Z ( ` ` ) U P F B V F I ( } ....X.{ _ U L I ` ) G D G F B B F U _ } ..X.X.} ( Y P U _ ) D V F F B B F Y _ _ Q E / L k i ",
"< 2 i M Z L / ( ~ U G D A V S I ~ ] } } [ Q H D F G ~ Q G D Z Z A A F P / [ } } [ Q L F D L / Q L D D S C C F I Q ) / Q T Z h y ",
"< 2 g M M M Z / ! Q G F J J J G F G W Q H V v n C G P I Q R G F P I J G F G Q Q H B v n V G K I Q U G F J J G F Z F T L N j i u ",
"< 8 h N z M Z L W Q I I Q ^ ! I C B G F V c j j V G F K Q Q I I Q ^ Q I C B F F V v d j V F F K Q Q I U Q ! Q Y C V F Z z a i i ",
": 2 h N Z Z Z Z F I / ` ' } } _ F B V V V v a j V K G F D P ( ` } } | _ F B V V V n s j Z I G F D I / ` } } | _ F N B B V z s i ",
"< 2 h Z C N Z Z Z G / ' } |  .' G n N V N v j k V G F V Z K Q ` ' ' } _ F n V N N v j z V F F D Z G / ( _ ' } _ F n z B Z Z j i ",
"< 6 h v j k B D Z G I T _ } } Q D n B N v z N V B B V D D G G I I Y Q U B n C B k v N N V B V S F F G P I Y Q Y C v v C L Z z i ",
"1 7 s l z v V G L F D F ( ] _ W B v N N j l Z G N b B V Z C C C C F G F n b V b j j B A N N N V B V C C C F L F m v b Z T I z g ",
"6 0 a c D G P P I L N C / [ _ W n l V N s j L I B n V C b b m m v b m b v v B b g g M N v n n N v c v v v v C V m b b Z ( ( C h ",
"6 q a v V F S F L Z b b I ~ Q I v l v v s j F G b z B C v l v b z l v v l z B N j d v M k k c c j j l c l z b B B B V F ( Z M h ",
"0 r h l j h z M S V v k M V F Z n j h h j l c c l l b v c l v v l l v v l z N N M k k k j h j j j c n b v b b N C Z L L Z C g i ",
"6 0 r u e 8 r y g g y r y y g g p t w w u u y t u i i i u u a i i i i i u u i s g i y r r e e e t u a a a a s h h z N b k i r 2 ",
"; 1 < < : = = : : : : : - > > > 1 1 ; ; 1 3 3 3 3 1 1 1 1 1 1 1 < 1 : : : : : : : : : : - - = - ; 1 1 3 2 3 4 2 2 2 2 6 2 < < < ",
": - $ $ # @ + @ + + + @ @ @ @ @ $ $ % % % % & = = = * $ $ $ % % # # @ @ o @ @ o + + @ @ @ @ @ # # $ $ $ % % = - = * $ $ $ $ $ * "
};
