/* XPM */
static char *result[] = {
/* columns rows colors chars-per-pixel */
"64 64 27 1 ",
"  c #241E12",
". c #262013",
"X c #2B2313",
"o c #312614",
"O c #352A15",
"+ c #3A2D16",
"@ c #3C2F18",
"# c #3E3017",
"$ c #3E3118",
"% c #433419",
"& c #48371A",
"* c #47381B",
"= c #4C3A1C",
"- c #513E1D",
"; c #55411E",
": c #59431F",
"> c #574220",
", c #5C4620",
"< c #5F4821",
"1 c #634A22",
"2 c #694F24",
"3 c #6D5125",
"4 c #725527",
"5 c #755827",
"6 c #755728",
"7 c #775828",
"8 c #7A5A29",
/* pixels */
"Xo@@%++%OOO%oOOO  OoOoO+@++O+OOOOO+O+ooooOOOO+Oo+O++OOOOOooOooX ",
"oo++++%OO%OOO%o%  ooOOOO@O++OO++OO+OOOOOo+OOOOOOO+++O+O+ooOOoOXo",
"++::34347887:---  **88868887,1112232;;%o>-><22228878322223>>--Oo",
"++::74448887,::-  %*68888887,,112442;;Oo=><>33228888322232;;--Oo",
"O+,<7733233211--  **21761111<11132>;--OO>>23<><>2<,,,,33,,11>>OO",
"O+<:7733313312=-  *>2166,1,1111144;:;-oo<<44>,>>1,,,,,22,,1,--oO",
"oO-:111,:,22,:==  --<<><::--;;,1-=>>>;oo,<>>,,<<,<<,==,><>=-=&oO",
"oO--11<<--21::=&  -=<<,,:,--;;1:--:,;-oo>>>>>>111<<1==-->,=-&&oO",
"OO>:::--,,:-<,%+  **=*>>--->11<,,,:,=*..---->-11->1,11=%*&---=oX",
"oO,>1:-=,::-,<%o  ****>>-=-><<,,,,::**..-->>->11--,,,>%%@&=--=oX",
"oO===&---&-:;;%+  @@>------****%==&%%%. **=%>>-->-%*%%**%@&%@%XX",
"oO=&&&>-&&:-;;%+  @@>-==-==***%%==@%%%XX%===>>---;%%$%&%%@%%+@o ",
" o@@++%@+%+%%%oO  @O@@o+++@$$$**++OOO+  %%@@%%@@@@$$O+oOOooO@+ X",
"oX+OO++%++O+oOOO  OOoooooo@@$$%%OOOOOO  @@@@@@O@OO#@OOXooOoo++oX",
"X                 .  ..    ....X        ....X.......      .... .",
"                                          .  ..... .    .. . . .",
"+O*%%**%%*%%*=%%#%%%Xo  OO**%$$%%%*%%%%%****%*$%O#Oo. $$===;==oo",
"O+=&&&====**=-%%%%%%OO .@@==*%$%===%%%*&======**OOOO. %%;>;;;=OO",
"+O==1,1,:>==11>;:,*=%%  ==11<<<13433321,224432;;=*#@  ==4444<<OO",
"++--,,11<>==:,1:<1=**%  =&,,<,<<33443311333433>>==O$ .=;4444<<O@",
"++1,,,221<<><<--=>==%$  =&32>,22221164-:<<<111<,<,%%. ;=;;33>>@@",
"O+,,,142><<<<<--====@%  =*44,>22121167;;,<<<11;>,,%%  =-;;22>>@@",
"+@1,11,,<>;>-><,=>>-O@. %&<>--;>>>=->>;-,>1,<<:,>;$%  #$*;=;>>++",
"+@1,,1--<>;=;>1<====O@  &*>>=--->-*=;>;;,,1,11::;-%$  $$*;;;>>++",
"O+&&;;;;>;<<,>*=>-%$@@..@@==;--;>;;>;-1,<,==;=::::O+  *=;*=;=;@@",
"OO&&;===;;1<,>**-=$$OO..O@==;=;-;;;;--:1,<===;>>::OO..****;;=;@@",
"Xo@%%=%$%%%%$$$%$$#OoO..@@===*$$$$%%=*==*%%=>>$%%%... $%;===$$Xo",
"oo@+%%$$$$$@O$$$O@#$OO..@@****$$@+%%%%&%%$%%==$$$#..  $#****$$oo",
". .X.X...X.. X................X.. X..X.X.XX..X......  ..X..XX...",
". ...          ... .....   . .        ... ....   .. .. .........",
"OO=*====*=*=@O. #$%***%*%***%%$$OO .+O%%%%%$$$&%%%%%%%*%%*%%*$XX",
"O+==>:;>--==%%. $$===========***@@..@@%%=*%%%%===%==*=;=;;****Xo",
"+@:-64422322;,  &=111122222211>,*%  &=>>11::11212111112222::::++",
"++:-77422223>:. =-11214322442211&=  =&,>21<:1<223222112233::::++",
"++<<2164432411. %&::2443441:--::=*  ==223222--;-4422<:1<:::::<+%",
"++<:<<444644,1  %%::244243,:-=<:=*  --222333::-;3412<:<1:-<<<<++",
"O+--:-11::11%&  %%&&-=11:--:>>1<=&  %%--;-<<,1::;:=-;;::::<<--oo",
"++----1:-::<%%  %@&%&=::=---1<<1&&  &&--;-::,,::--&=---:<:<:-&oo",
"O+-----:-=&=%% .%@%%%%--=-::-=**%@  &=---;===*;;=&&=;-====&%&-oo",
"oO=---;;=&&&@@  @@%&%%--==-1%%%%@+  &=----=**&;;&&&&-=-=&&%%&&oX",
"XX%%@%@@%%$@++ .Oo@%%%##*%%%%%$$+@  ++&%*&%%&&%%&&++#+%%&&%%#%oo",
"Xo@%++OO%%++++. oo%%%##+%%++%%$#++  ++%#%%%%%*&%&&+o+o%%&&%#++oO",
"  XX.. .XX. ..  ...X.....X..X.X.    . . X. .XX. XX.....XXXX.....",
"   ..  X... .     .  .  .  .....             .   .. .. .       .",
"OO&&%&%%%%%%%%%%%%$%++..OO%%##%#%%&%%%&%%%&%oo  ##%###%#%%%&%%XX",
"+O=-=&&&%**&%%%%%*%%+O .++%**&&*%%=&&&&&&&**O+  %#&*%%&%&&&&%%oo",
"+@11-=22212221-;11;-%% .=*::11:::<<<<1--;::;&=  &*2112<1<<<<=;oo",
"@#22-=33223333-;12-;%*  =*::2<1:::<<11:::::1*=  &*2212<<1111-=Xo",
"++12<<<1::1<---:<<;-##  &&:1:<::;;;:21<1::&&%%  &&;;&;::11;;**Xo",
"++11<<:<::<<----::;;#%..&&1:::::==::22<1<:&&%%  &&=&;;::21&&*;oo",
"++;;::11:1<<-:11::::##. #%1:<1::::;;:;11===;%%  &&;;;;&%;*::&*oo",
"O+-;-:11<<<<::11::::%% .%#11<<<:<1=;;:1:=;;;%%  &&=;;;%%;*;:%&oo",
"OO;;::==,:--:-::;;%%&&  %#;;==&&==;=;;::;;;;%%  ##%&&&&;==;;&;XX",
"OO--:<&%,,==:::::;%%&&X %#==*=;=%&==:::;=;;=%%  O+%&&&;;=&=;;&XX",
"oO&&&%%%-&--%%&&&=&&oO  #+##&**=%%;=%#&&=&%+OO  oo&%%%#%%%%##%XX",
"Oo&&%#%%&=--%%%%&==&oo X####=;=;%%=;++%%&&+OOo  oo#%&%###+##O#XX",
"Xo%%+%O+%%%%+%%%O%oOoo  +%++%%+%%#++++O++OOOOo  Oo##&%O+OO#%oOXX",
"oo+O+++++O%+++%%Oo++oo  %++O%%+++++O++OOOOOOoo  oo##%%OOOO#+XoXX",
"X XXX   XX         X     XX X X   X  XX    X X   X  XX  X XX X  ",
"     X             XX                                           ",
"XXooO+++O+%%%%+%%%Oo+o+oooOO++OOOO++XX  ++%&&%%###+OOO#+O+#+ooXX",
"Xo+oO+%+%+%%%%%%&&%o++++oX++O%+++++OXX  ##&&&&&%%%++O+#%###+OOoX",
"XoOoooOOOO+%oooo%oXoooXoXoooOOXooooooX  ####++%%++++ooOOOOOOO+XX",
"XoooooooOo++ooooooXXXoXXXoooooooooXoXX  #+++oO%%+O++ooOoOO+OOOXX"
};
