/* XPM */
static char *_dc89d0c389c47f5b1795cc99ec3e4bcFDjcWDklpRjTkg4C[] = {
/* columns rows colors chars-per-pixel */
"64 64 230 2 ",
"   c #4E2A1D",
".  c #532B1E",
"X  c #5C2D1E",
"o  c #57311E",
"O  c #5A351E",
"+  c #57381B",
"@  c #612F1E",
"#  c #62331F",
"$  c #6E301D",
"%  c #683D1E",
"&  c #4E2B23",
"*  c #572E27",
"=  c #5B2D22",
"-  c #4C332C",
";  c #4F392B",
":  c #553223",
">  c #5D3323",
",  c #5D3A25",
"<  c #55342A",
"1  c #5C352A",
"2  c #553B2B",
"3  c #5E3C2A",
"4  c #483730",
"5  c #423B36",
"6  c #593433",
"7  c #573934",
"8  c #5E3D32",
"9  c #622E24",
"0  c #6B2F25",
"q  c #643424",
"w  c #6A3425",
"e  c #643B26",
"r  c #6A3B25",
"t  c #63342A",
"y  c #6B3529",
"u  c #643C2B",
"i  c #6B3D2C",
"p  c #723627",
"a  c #733D25",
"s  c #723429",
"d  c #723D2C",
"f  c #7C3E2D",
"g  c #653432",
"h  c #653D31",
"j  c #6B3C32",
"k  c #683F38",
"l  c #723E33",
"z  c #7C3E30",
"x  c #5D422E",
"c  c #5C4333",
"v  c #5A4839",
"b  c #64432C",
"n  c #684428",
"m  c #6C432D",
"M  c #6B4A2C",
"N  c #754424",
"B  c #784527",
"V  c #73442D",
"C  c #7A452C",
"Z  c #744C2D",
"A  c #7A4A2C",
"S  c #644434",
"D  c #6B4433",
"F  c #644A33",
"G  c #6D4B35",
"H  c #64453C",
"J  c #6C443A",
"K  c #644B3D",
"L  c #6C4C3B",
"P  c #734433",
"I  c #7B4533",
"U  c #744B35",
"Y  c #7A4B34",
"T  c #724639",
"R  c #7B4739",
"E  c #744C3B",
"W  c #7B4D3A",
"Q  c #6D5135",
"!  c #6D523C",
"~  c #68563D",
"^  c #735135",
"/  c #7B5234",
"(  c #74523C",
")  c #7B533C",
"_  c #755A3B",
"`  c #7B593E",
"'  c #544E47",
"]  c #5C4C43",
"[  c #5C5443",
"{  c #624940",
"}  c #6D4F40",
"|  c #734D42",
" . c #7E4D41",
".. c #6D5342",
"X. c #6C5944",
"o. c #6F5E49",
"O. c #745442",
"+. c #7B5542",
"@. c #755B44",
"#. c #7C5B44",
"$. c #755B4A",
"%. c #7C5C4A",
"&. c #7A5C50",
"*. c #756145",
"=. c #7D6146",
"-. c #76634B",
";. c #7D634C",
":. c #7D6A4C",
">. c #756453",
",. c #7C6452",
"<. c #746A55",
"1. c #7C6A54",
"2. c #7E6D59",
"3. c #7E7257",
"4. c #7E715A",
"5. c #85492D",
"6. c #88522D",
"7. c #834632",
"8. c #834C34",
"9. c #8F4C37",
"0. c #824D3B",
"q. c #8A4B39",
"w. c #904C37",
"e. c #825235",
"r. c #895635",
"t. c #845A36",
"y. c #83533C",
"u. c #8C553C",
"i. c #835B3D",
"p. c #8B5B3E",
"a. c #925535",
"s. c #915A3D",
"d. c #89623E",
"f. c #834E40",
"g. c #835642",
"h. c #8C5443",
"j. c #845B44",
"k. c #8A5C44",
"l. c #835748",
"z. c #835C49",
"x. c #8A5D4A",
"c. c #935E44",
"v. c #945F49",
"b. c #846244",
"n. c #8B6245",
"m. c #866847",
"M. c #83634B",
"N. c #8A634C",
"B. c #846A4D",
"V. c #8A6A4E",
"C. c #936344",
"Z. c #9C6145",
"A. c #93644A",
"S. c #9B654B",
"D. c #926B4E",
"F. c #9C6B4E",
"G. c #8D704C",
"H. c #846552",
"J. c #8A6552",
"K. c #846B54",
"L. c #8B6C54",
"P. c #816759",
"I. c #846D5A",
"U. c #8B6D5A",
"Y. c #906754",
"T. c #926C53",
"R. c #9C6E53",
"E. c #926D5B",
"W. c #9B6F5C",
"Q. c #847155",
"!. c #8C7255",
"~. c #8E7855",
"^. c #85735C",
"/. c #8B735C",
"(. c #8D795E",
"). c #937255",
"_. c #9D7355",
"`. c #93745C",
"'. c #9B745B",
"]. c #937A5D",
"[. c #997C5D",
"{. c #A06E51",
"}. c #A37459",
"|. c #A37B5D",
" X c #856F61",
".X c #857562",
"XX c #8C7561",
"oX c #847963",
"OX c #8D7A63",
"+X c #8E7C69",
"@X c #937562",
"#X c #9C7661",
"$X c #937C64",
"%X c #9B7C64",
"&X c #937E6A",
"*X c #9C7E6B",
"=X c #A27C64",
"-X c #A67C64",
";X c #8E8067",
":X c #8E806A",
">X c #948266",
",X c #9B8264",
"<X c #94826B",
"1X c #9B846C",
"2X c #99896B",
"3X c #9C896E",
"4X c #948571",
"5X c #9B8672",
"6X c #968A73",
"7X c #9B8B73",
"8X c #968978",
"9X c #9D8D7A",
"0X c #9D917A",
"qX c #A38167",
"wX c #A1846C",
"eX c #A98569",
"rX c #A9846B",
"tX c #A1896C",
"yX c #A18673",
"uX c #A28B74",
"iX c #A98A73",
"pX c #A28D7A",
"aX c #A98D7B",
"sX c #A39177",
"dX c #A99075",
"fX c #A4927D",
"gX c #AB927C",
"hX c #A49481",
"jX c #AB9481",
"kX c #A89B87",
/* pixels */
"=.V._.`.H.;.B.=.#.O.O.y.) +.H.^.I.OXK.;.O.%.$.).$.S F ..+.=.M.J.U.K.K.=X%.D 3 D S 1 1 j +.C.j.l.M.$.x.j.} O.%.K %.#.l.M.L.M.=.J.",
"r M C.S.j.n.G u r t y.i c C j.2.+XOXH.G P O.O.G G L E 7.l.u D b ( E E V y u D u   : = u q r u t C 4 ] H < & r q h E 1 D Y m Y / ",
"/ M Z ` G +.m i q D i u C n.Y ^.<X&XM.D 8.R P D D D R D S D L L N.+.+.j.g.R f.j = 9 t D U = q t t h l 8 D 7 8.I I D E Y I u / P ",
"8.p.n._ _ #.( _ ( i y.w D E V.@XtX[.( m d P q.P D R u g...+.( S @.N.n.M.L.N.h.d Y i R I +.E W R m P P j t I U y.E ( G b n.G ) U ",
"5.y.a j.z.` ( U ( W g.I # Y L OX1X^.%.Y m E E W W D V 1 G #.+.O.).z.z.M.L.T.R.( L J #.M.D E P W i P i E h R i U ( G ( y.U C / C ",
"p.y.e.) y.%.+.U ( D.W P b.B.H.$X`.^.+.g.m m P #.#.J D G M.N.E O.N.M.M.B.M.N.g.M.=.z.M.J.%.%.#.( U Y E ) +.g.E M.+.M.+.^ P y.) C ",
"Y n.c.) g.#.+.U P m.M.` j.L.(.tX/.OX( P Y y.g.) ) ( u E +.@.V.g.L.J.V.` #.M.x.B.N.`.qXM.#.J.N.).+.+.B.l.) #.B.b.Y.E O./ ) g.( j.",
") Z.k.` +.j.l.W g.n.i.b.n.#.!.&X<X$XH.+.W G x.#.#.K D G $.B.B.J.M.#.#.N.$.j.m x.N.H.J.#.) M.#.#.@.L l.j.#.T.z.#.z.+.@.G j.k.y.q ",
"x.j.0.) W z.+.i J #.#.( ) g.B.I.(.$X/.J.#.) M.#.#.#.#.L l.j.#.T.z.#.#.z.+.@.G r.) @.+.) G x.#.K D G $.B.B.J.M.#.N.$.j.m ( N.L.) ",
"` P x.0.j.j.g.) j.#.#.) ` 8.b.,X^.9X^.qXM.#.J.N.N.).+.+.M.l.) #.B.j.b.Y.E O./ Z.y.E P U y.g.) ( u E +.@.V.g.L.J.` #.M.x.j.N.n.#.",
"I ) j.j.i y.g.Y Y #.V.y.6.C ).(.&X&XI.M.J.%.%.#.#.( U Y E ) #.g.E M.M.+.M.+.^ 9.q.W g.m m P #.J D G M.N.E O.N.M.B.M.N.g.j.j.y.k.",
"p.j.( 0.0.Y P y.+.#.N.8.d y m.1.3XOX^.#.M.D E P P W i P i E h R i U U ( G ( y.P i a Y m E E W D V 1 G #.+.O.).z.M.L.T.R.k.P I 5.",
"i G ( 0 s f q 8.0.i ( C a B j.K.K.I.2.R I +.E W W R m P P j t I U y.y.E ( G b i < d m d P q.P R u g...+.( S @.N.M.L.N.h.I u.p > ",
"I q y y $ p I d I U Y Y B t.j.)./.`.OXt D U = q q t t h l 8 D 7 8.I I I D T Y > o V D 8.R P D D R D S D L L N.+.j.g.R 0.R I q w ",
"C w i X @ E +.#.B.V.=...%.K.Q.[.1X3X%X= u q r u u t C 4 ] H < & r q q h E 1 D D M / G P O.O.G L E 7.l.u D b ( E V y u D j P t t ",
"qXqXrX!.!./.;.J.[.[.~.:.].%X(.`.%X/.(.T.=XrX%XgX6X1X$XtXiX`.K.L.L.K.%X).;.H.K./.`.K.)./.(.1.K.XX-.2.$XL.H.!./.$XL.M.T.J.U.E.U.&X",
"|.|.-X`.`.L.L./.`.T.[.!./.$XL.!.#.M.z.+.{.'.V.rX!.K.;.L.'.l.+.z.N.} M.N.( ( %.H.L.%.!.T./.I.4.I.I.P..XU./.`.H.@X`.-X).@X@X*XOX9X",
", l.T.y.D m.N.A.V i %.L.b.'.-XH.%.%.%.%.M.$.,.$.@.%.%.=...+.+.O.} S ..! X.O.X.#.( ( O.z.z.!.^.2.^.,.`.K.m d : w 9 t i u y Y = ) ",
"> m S i.U Y Y [ d ) D Z j.D.).#.g.z.W R m P P t I U y.E G b > 1 & t ; q - - < i 3 i u k.m @.1.XXI.1.,Xq * < 2 X 9 8 P i q m l u ",
"t / m n C i.j.a ) U U n B.^.(.B.J.+.P W i P i h R i U ( ( y.y w w q e e . 2 q T y e C W ` #.!.(.H.K.C d t - > y 1 i D E ) V y.i ",
"i C > # / s ^ s l Y b.m B.I.(.M.L.%.#.( U Y E #.g.E M.+.+.^ d C # : . b m q G E y 1 b ) ( %.^.;.K.| U f i q r V = D m ( D E D > ",
"e M D r y i.W ) P d j.C =.K.K.J.#.) ) #.O.L +.E j.z.#.g._ G ) m l F ( G U ! W ) R u E +...J ,.!./.O.i 9.y w W c.j.E P E P ) U , ",
"i ^ ( W I W ) y g.l.V.G V.^.(.+.) G W K D G ) M.J.M.#.j.#.m y.G Y u E E E S U G ) Y J ) O.#.E $X/.M.i U +.U u.x.g.U P R U I f a ",
"D ) m.) ) ( i n.=.) j.W L.`.@Xg.m m #.J D G M.E O.N.M.j.j.g.W W ) L t L U m q P P m i | U J _ ^.@XU.) ) W D A.k.W ( +.i.( l Y Y ",
"E +.O.E #.Y I C.R.A.L.D.K.*X(.H.m E W D V 1 G +.O.).z.M.N.R.q.u.f J S S i i y = y E S D S L F L.1.@XS W g.) g.l. .N.+.m P y.i.m ",
"! ! K.#.0.D y.) k.n.g.j.1.$XuX;.d P P R u g...( S @.j.j.j.h.y.b b h h J u ) 1 q 1 E S U ( G F I.(.I.l.+.z.H.l.! %.+.j.i E +.y.I ",
"I.2./.!.M.@.).L.+.n.yXI.@X<X,XI.#.;.@.%.%.j.H.@.@.=.;.#.O.#.V.@.....X.@.B.%.%.M.&.O.$.M.$.K.1.^.XXI.,.U.$.-.1.I.OXH.T.W.;.%.J.U.",
"OX8XpX6X1X^.$X1X`.OXOX<X&X<X$X>X^.(. X*X$X&X<XpXtX<X<X+X<X6X$X`.`./.^.XX>XOX.X(..X^.OXOX/.OX*XOX.X>X<X&X+X5X4X9X+X+X1XpX+X9X7X7X",
"+X+X&X8X1XOX$X$X$X>X>XOX<X$X<X<XXXXX&X6X<X<X4X7XyX3X<X+XoX+X`./.$XOX<.4.2..X>XOXoX4.>XOX^.XX&X$X+X^..X4X.X+X6X7X>X6X0X4X9X8XpX<X",
"^.OXOX<XOX5XOXgX*X4.<X$X<X<X>X$X2.1.XX^.oXOX1.`.`.K.!.^.(.Q.A.$.M.>.-.;.<.<.(.OX:.1.3./.1.@XXX!.(.I.$X<XXXU.$X1.,X<X$X9X6X3XyXXX",
">X<X<X.X3X/.%XXX,X$XOX$X$X[.].(.Q.(.o.X.$.c Q @.J $.+.=.%.( ( U S F ( b m m : w 9 t i u y Y +.E G F E H.%.j.g.l.#.K.OXuX1XaXfX<X",
"^.(.1.4.4.@X`.L.`.H./.%.*.V.=.=.B.M.:.( X.L ( ( b Q +.L #.G D G ~ #.i.U Y e 2 X 9 8 P i q m N.V t D = g.z.x.E R U m U.&X<XsXOX^.",
"1XoXOX>.>.@XI.`./.(.!.;.B.M.:.$.L.|.~.m.Q.:.X.-.M.c *.@.M.y.G m ` _ ^ p.) u r V = D m ( D E z.Y.l.D d g.+.E ) W g.B.!.<X$X1X+XOX",
"oXoX2.OX^.1XOX(.K./.K.K.=.` N.;.=.).G.C.!.V.).E.=.( ( J.V.H.Q G M.@.#.n.E G W c.j.E P E P ) g.v.k.i m T ) P k.v.k.#.l.&X*XpX1XOX",
"oX1.I.<X<X<X,X$XK.1.^.!.=X=.%X!.K.@.^ ) L.[.`.tXQ.~ _ K.).*.G _ M ( j.M.m m u.x.g.U P R U I ) R g.l.+.( ) W z.Y.l.u P 7XyX1X7X.X",
"<.^..X^.<X&X*X@X@X#X%X>.K.`.,X[.V.$.L $.!.|.L.L.:.-.=.=.Q.~ +.#.G i ( $.` G g.l. .N.+.m P y.E R U ;.G ( m ( N.V t i C <X*X<X(.>X",
"^.2.<..X^./././.E.@X$.U.%X%XK.].-.-.K./.(.K.[.`.].(.(.^.*.Q.@.=.F S %.+.W E l.! %.+.b.i E +.g.l.$.=.S E U +.+.E G h I.OXhX9X/.>X",
"(.;XK.+X+XOX5X&X<X.XOXOX$X`.iX@X(.1.OX>X3X2X$X$X^.oXOX(.^.(.,XK.,.L.K.H.E.L.>X@X$X$X].$X>XK./.,./.;.K.2.@X*X`.%XY.5XXXpXhXhX9X<X",
"$X$X>X8X1X:X1X&X9X&X1XOX$X$XsX$X^.$X[.yX>X>X$X$X:X<X4.OX^./.,X;XOX(.>X1X9XfX5X1X>X,XsX3X6XuXfX1X7XsX7X<X5XjXjX6XpX5XkX6X7XhX<X5X",
"<X6X<X<X9X9XpX&X$XXXOX].].(.<X9X(.@X].>X%X>XOX1X3X6X<X<XOX2X<X3X,X$X5X1X1X<X1X7XuXtXsX3X1X7X<XfX>X3X7X7XpX9X1X7XpXhXfXuXfX0X9X1X",
"Y `./.<X9X5X&X-.$.H.%.l.( ( ! @.$.M.T.%X`.@.) z.N.).M.#.+.x.) Y j.#.L.+.+. .L.%.)._.{.D.D.n.j.x.l.H.K.#Xc.+.Y u.j.R _.n.A.z.;.#.",
"j j i 7X6X<X^.Y _ ( ) b D m U ` Y / ^ A A > 2 q 8.6.A 1 + . . > t 6 u r X j ` G +.M.T y.d j I 7.8.n.u S.7.v ' ] 7.y H # t w p d ",
"( L 7.J.8X>X$XP ) b.j.y.y.U m A B n B H E , q n d A Z u ^ Z n O g V a.k.u r ^ r.F.` y.y.7.q.J f u.c.W y 8.v K S m i 8.9 v E K I ",
"V C q.N.,X<X%XY 8./ d.U C i h , M r t [ i r n C.Z ` t.A Z V N r N e.A C % e.j t.e.k.D.h.I I ) i.d e.C k.R d S y j y.l J u z K d ",
"w { ..h.aX1X`.M b./ ) / t.u.^ e O Z i 6 m e Z M M b./ ) / t.u.^ e O Z i 6 k e p.m.d 8.e.w.a.+.l Y P u I X = J r V C t g j d T 8 ",
"= - v E 5X$X=XZ ` t.A Z V N r N e.A C % S ^ ^ u Y 8./ d.U C i S , M r t [ h j Z e.i.s./ e.y.U g ) 0.l Y y t 6 t q U * h i i n 5 ",
"X ' A.L.uXuX%XV A Z u ^ Z n O g V a.n.u % ( Y / P ) b.j.y.y.U V A B n A H q | Z n.b.y.^ ) V X b 6.u.P g.+.W d G ) J ) ` y.Y 9 p ",
"( ) L.#.dX5X%Xe.6.A 1 + . . > t 6 u y X %.G ` n Y _ ( ) b D m U ` Y / ^ A y.k.N.Y.+.l.H.M.#.j.W C.n.T.E.+.j.k.T.M.) H.!.n.) O.W ",
"%.L.%.) OX$X(.@X2.K.K./.!.1.$X<XI.1.OXyX=X;.O.@.E ).#.@.%.K L.b.j.j.L.B.@.M.`.`.!.O.U.U.T.N.x.N.%.T.T.@XK.H.R.U.z.B.!.R.N.W.z.+.",
"I.K.^.^.&X,X<XaXOX`.>X$X<X.XXX1X$X.X5X<X$X/..X/.`.%XU.K.K.XX/.B.,.`.L.I.!.tX[.<X2XI.H.J.N.l.L.U.'.'.'.wX/.@.N.].`.K.L.J.J.#.H.1.",
"XXOX$XK.>X>XaXpXwX>X<X<X(.OX,X>X<X4XyX3X*X&X3X1X%X1X@X$X/.5XOX(.L.!.1X1X/.<XaXwXuX5X@X@X@X$XuXuXuX7XpXgX7X%X$X%X$XuXrXH.`.K.;.I.",
"$X$X/.K.OX9XuXtX$X,X0XpX$XXX6X1X<X6X7X1X8X8X5XfXOX5X/.^.^.5X8XOX.X<X1X<X^..X5X1X6X5X5X1X1X<X1XfXpXhX7X7X%X,X$XwX7X<X1XOX1XXXXXOX",
"*X$X$X@X5XfX3XuX3X2XjX6X:X6X<X9X6X7XfX7X6XfXfXfXfX,X1X+X<X$X7X(.<X7X&XOX$X$XOX8X7X9X1X7XjX9XuX5XpXuXuX5XuXtXtXuX5X3X,XuX<XfX3X<X",
"*X/.XX@X/.>X<X1X%X^.3X<XuX1X<XfX6X:X7XfX7X<X9X1X$X@X$X,X<X/.>XOX<X$XOXXXOXOX1X<X@XI.OX$X3X3X<X1XaX7XfXpX$X$X3X@X@X,X,XwX3X,X>XOX",
"=X%XOX$X@X!.^.(.;.L.XXwXwXI.$XgX>X<XOX,XiX,X(.=.D.!.%.H.:.K.;.*.L.K.`.XX$XOX<X<XV.K.%.;.}.-XT.rXyX@X`.%X#X`.tX$X/.$X%X,X,X>X[./.",
").|.OX%X`.%XH.i Y y.M.c.F.( +.D.N.L.M.Y.).L.T.^ m ( ( ! Q #.( ^ =.( F c L.$X,X#.N.'.N.` z.S.S._.H.'.[.M.l.M.n.).(.}.).K.1.-.;.L.",
";.}.).`.`.@XU.V Y m f.N.` S M.%.1.B.#.j.L.B.L.b.) E +.3 L ( F F L.#.~ _ J.2.$X;.K.K.M.N.j.N.T.|.T._.F.).M.V.V.`.^.'.z.;.X.-.L.`.",
"X.H.^.(.^.$XG > C j.M.) R l.J.!.I.L.F M.@.1.H.1.V.=.D S @.S G #.=.( ( -.@.^.&X/.OXT.B.`.M.M.`.2X/.M.).'.V.].-X#X,.N.M.%.,.%.N.(.",
"M.%.!.^././.H.x y.D ^ ) +.i E z.M.#.$.#.l.K.#.! z.S D u #.V.D Q M.#.` X.B.2.*X%X&X).`.).z.N.'.]./.).N./.[.=XW.R.J.L.M.B.$.+.=.U.",
"$.#.,XXX&X@X..> i   u ( g.D ( (.#.L #.@.N.=XL.N.G u G U D D _ G x F @.K.).,XuX%XH.L.M.).H.J.}.%XU.wX$XaXW.`.U.M.L.$.L.U.M.H.L.E.",
"K.H./.5XOXXXI.y e > +.j.D ( ( L.E U %.b.Y.H.+.j.L O.) S S L H S c %.-.@.K.iX+X%XL.%.Y./.#XqX'.qX%X`.`.}.L.`.T.%.H.-.J.Y.L.L.T.'.",
"K./.%X3XOX$X$XK.;.-.Q.H.=.#.B.(.!.L.%XL.=.K.z.( ..B.H.=.M.} &.&.! j.=.Q.!./.XXXXXXL.I.%X%X$X1X7X,X$X%XwX!.(.H.U.U.U.K.-XL.L.L./.",
"!.,X3X,X1XOX%X*X^.OXOX^.@X/.>X`.L.`.OX^.1.@X/.XX.X/.1X&XOX$.I.I.`.%X).`./.^.1X*X^.(.I.yXyXiXaXyX,X,X`.=XtXU.*X'.@X%X[.5X*XwX,X>X",
"@X>X$XOX!.%X1XXXI.I.H.@X/.U.K.`.U.(.!.^.I.XX(./.@XXX,XXX/.^..X,X&X3X%X%X`.,X,X`.@XI./.wX1XtX#X3X5XOX%XL.'.K.U.L.;.L.`.%X[.1X%XXX"
};
